<mxfile host="app.diagrams.net" modified="2023-10-12T15:58:42.241Z" agent="Mozilla/5.0 (Windows NT 10.0; Win64; x64) AppleWebKit/537.36 (KHTML, like Gecko) Chrome/118.0.0.0 Safari/537.36" etag="Nte8-S0G8MC_sgblfkuE" version="22.0.4" type="device">
  <diagram name="Page-1" id="Y7ghewPUeVu550ZwAkcd">
    <mxGraphModel dx="1388" dy="534" grid="0" gridSize="10" guides="1" tooltips="1" connect="1" arrows="1" fold="1" page="0" pageScale="1" pageWidth="850" pageHeight="1100" math="0" shadow="0">
      <root>
        <mxCell id="0" />
        <mxCell id="1" parent="0" />
        <mxCell id="II7UFy0TQZ8Xzfp5rinB-1" value="" style="rounded=0;whiteSpace=wrap;html=1;" vertex="1" parent="1">
          <mxGeometry x="-49" y="233" width="355" height="161" as="geometry" />
        </mxCell>
        <mxCell id="II7UFy0TQZ8Xzfp5rinB-2" value="HOST" style="text;html=1;strokeColor=none;fillColor=none;align=center;verticalAlign=middle;whiteSpace=wrap;rounded=0;" vertex="1" parent="1">
          <mxGeometry x="32" y="196" width="60" height="30" as="geometry" />
        </mxCell>
        <mxCell id="II7UFy0TQZ8Xzfp5rinB-3" value="" style="rounded=0;whiteSpace=wrap;html=1;" vertex="1" parent="1">
          <mxGeometry x="-31" y="321" width="85" height="43" as="geometry" />
        </mxCell>
        <mxCell id="II7UFy0TQZ8Xzfp5rinB-4" value="" style="rounded=0;whiteSpace=wrap;html=1;" vertex="1" parent="1">
          <mxGeometry x="79" y="321" width="85" height="43" as="geometry" />
        </mxCell>
        <mxCell id="II7UFy0TQZ8Xzfp5rinB-5" value="GUEST" style="text;html=1;strokeColor=none;fillColor=none;align=center;verticalAlign=middle;whiteSpace=wrap;rounded=0;" vertex="1" parent="1">
          <mxGeometry x="-18.5" y="272" width="60" height="30" as="geometry" />
        </mxCell>
        <mxCell id="II7UFy0TQZ8Xzfp5rinB-6" value="Виртуализаторы:&lt;br&gt;KVM - native linux (free and power)&lt;br&gt;HYPER-V - native windows (pay)&lt;br&gt;VMWARE - (pay and power)&lt;br style=&quot;border-color: var(--border-color);&quot;&gt;Virtualbox - (free)" style="text;html=1;strokeColor=none;fillColor=none;align=center;verticalAlign=middle;whiteSpace=wrap;rounded=0;" vertex="1" parent="1">
          <mxGeometry x="100" y="145" width="219" height="78" as="geometry" />
        </mxCell>
        <mxCell id="II7UFy0TQZ8Xzfp5rinB-7" value="Win" style="text;html=1;strokeColor=none;fillColor=none;align=center;verticalAlign=middle;whiteSpace=wrap;rounded=0;" vertex="1" parent="1">
          <mxGeometry x="95" y="279" width="60" height="30" as="geometry" />
        </mxCell>
        <mxCell id="II7UFy0TQZ8Xzfp5rinB-8" value="" style="rounded=0;whiteSpace=wrap;html=1;" vertex="1" parent="1">
          <mxGeometry x="195" y="316" width="85" height="43" as="geometry" />
        </mxCell>
        <mxCell id="II7UFy0TQZ8Xzfp5rinB-9" value="Ubuntu" style="text;html=1;strokeColor=none;fillColor=none;align=center;verticalAlign=middle;whiteSpace=wrap;rounded=0;" vertex="1" parent="1">
          <mxGeometry x="200" y="277" width="60" height="30" as="geometry" />
        </mxCell>
        <mxCell id="II7UFy0TQZ8Xzfp5rinB-10" style="edgeStyle=orthogonalEdgeStyle;rounded=0;orthogonalLoop=1;jettySize=auto;html=1;entryX=0.013;entryY=0.445;entryDx=0;entryDy=0;entryPerimeter=0;" edge="1" parent="1" source="II7UFy0TQZ8Xzfp5rinB-4" target="II7UFy0TQZ8Xzfp5rinB-8">
          <mxGeometry relative="1" as="geometry" />
        </mxCell>
        <mxCell id="II7UFy0TQZ8Xzfp5rinB-11" style="edgeStyle=orthogonalEdgeStyle;rounded=0;orthogonalLoop=1;jettySize=auto;html=1;entryX=0;entryY=0.181;entryDx=0;entryDy=0;entryPerimeter=0;" edge="1" parent="1" source="II7UFy0TQZ8Xzfp5rinB-3" target="II7UFy0TQZ8Xzfp5rinB-1">
          <mxGeometry relative="1" as="geometry" />
        </mxCell>
        <mxCell id="II7UFy0TQZ8Xzfp5rinB-13" value="ОС" style="rounded=0;whiteSpace=wrap;html=1;fillColor=#f8cecc;strokeColor=#b85450;" vertex="1" parent="1">
          <mxGeometry x="-49" y="233" width="355" height="15" as="geometry" />
        </mxCell>
        <mxCell id="II7UFy0TQZ8Xzfp5rinB-14" value="ОС" style="rounded=0;whiteSpace=wrap;html=1;fillColor=#f8cecc;strokeColor=#b85450;" vertex="1" parent="1">
          <mxGeometry x="79" y="321" width="85" height="21" as="geometry" />
        </mxCell>
        <mxCell id="II7UFy0TQZ8Xzfp5rinB-15" value="ОС" style="rounded=0;whiteSpace=wrap;html=1;fillColor=#f8cecc;strokeColor=#b85450;" vertex="1" parent="1">
          <mxGeometry x="195" y="316" width="85" height="12" as="geometry" />
        </mxCell>
        <mxCell id="II7UFy0TQZ8Xzfp5rinB-17" value="ОС" style="rounded=0;whiteSpace=wrap;html=1;fillColor=#f8cecc;strokeColor=#b85450;" vertex="1" parent="1">
          <mxGeometry x="-31" y="321" width="85" height="12" as="geometry" />
        </mxCell>
        <mxCell id="II7UFy0TQZ8Xzfp5rinB-18" value="" style="rounded=0;whiteSpace=wrap;html=1;" vertex="1" parent="1">
          <mxGeometry x="442" y="233" width="355" height="161" as="geometry" />
        </mxCell>
        <mxCell id="II7UFy0TQZ8Xzfp5rinB-19" value="HOST" style="text;html=1;strokeColor=none;fillColor=none;align=center;verticalAlign=middle;whiteSpace=wrap;rounded=0;" vertex="1" parent="1">
          <mxGeometry x="487" y="196" width="60" height="30" as="geometry" />
        </mxCell>
        <mxCell id="II7UFy0TQZ8Xzfp5rinB-20" value="Контенеризация:&lt;br&gt;KVM - native linux (free and power)&lt;br&gt;HYPER-V - native windows (pay)&lt;br&gt;VMWARE - (pay and power)&lt;br style=&quot;border-color: var(--border-color);&quot;&gt;Virtualbox - (free)" style="text;html=1;strokeColor=none;fillColor=none;align=center;verticalAlign=middle;whiteSpace=wrap;rounded=0;" vertex="1" parent="1">
          <mxGeometry x="563" y="145" width="219" height="78" as="geometry" />
        </mxCell>
        <mxCell id="II7UFy0TQZ8Xzfp5rinB-21" value="Виртуализаторы:&lt;br&gt;KVM - native linux (free and power)&lt;br&gt;HYPER-V - native windows (pay)&lt;br&gt;VMWARE - (pay and power)&lt;br style=&quot;border-color: var(--border-color);&quot;&gt;Virtualbox - (free)" style="text;html=1;strokeColor=none;fillColor=none;align=center;verticalAlign=middle;whiteSpace=wrap;rounded=0;" vertex="1" parent="1">
          <mxGeometry x="953" y="1055" width="219" height="78" as="geometry" />
        </mxCell>
        <mxCell id="II7UFy0TQZ8Xzfp5rinB-23" value="" style="shape=image;verticalLabelPosition=bottom;labelBackgroundColor=default;verticalAlign=top;aspect=fixed;imageAspect=0;image=data:image/png,iVBORw0KGgoAAAANSUhEUgAABH4AAAHrCAYAAAC5JlpOAAAgAElEQVR4Aey9+X8VRfb///llvu/3LO+ZeTs6Om7jiAiKIIiAiCCbLIIIgiwiIMgiyC47hISEkJAQshFkef+v9X0863JuKp1eqrurb+5Nzg/96L7d1d1V53XOqarXPXX6/730j5fNSy+x/cP8L9v/vmT++te/6qYyUB1QHVAdUB1QHVAdUB1QHVAdUB1QHVAdUB1QHVAdaHEd+H9K/CjJpUSf6oDqgOqA6oDqgOqA6oDqgOqA6oDqgOqA6oDqwPTUASV+Wpy5U8OcnoapuCquqgOqA6oDqgOqA6oDqgOqA6oDqgOqA6oDIXRAiR8lfjRsT3VAdUB1QHVAdUB1QHVAdUB1QHVAdUB1QHVAdWCa6oASP9MU2BCsoD5D2WXVAdUB1QHVAdUB1QHVAdUB1QHVAdUB1QHVgdbWASV+lPhRVld1QHVAdUB1QHVAdUB1QHVAdUB1QHVAdUB1QHVgmuqAEj/TFFhlZFubkVX8FD/VAdUB1QHVAdUB1QHVAdUB1QHVAdUB1YEQOqDEjxI/yuqqDqgOqA6oDqgOqA6oDqgOqA6oDqgOqA6oDqgOTFMdUOJnmgIbghXUZyi7rDqgOqA6oDqgOqA6oDqgOqA6oDqgOqA6oDrQ2jqgxI8SP8rqqg6oDqgOqA6oDqgOqA6oDqgOqA6oDqgOqA6oDkxTHVDiZ5oCq4xsazOyip/ipzqgOqA6oDqgOqA6oDqgOqA6oDqgOqA6EEIHlPhR4kdZXdUB1QHVAdUB1QHVAdUB1QHVAdUB1QHVAdUB1YFpqgNK/ExTYEOwgvoMZZdVB1QHVAdUB1QHVAdUB1QHVAdUB1QHVAdUB1pbB2KJn//7v/8zVW8jIyPm0aNHhn3V2++//155e3jH6Ohow9pUNT48XzEqp5uKUX4/onZUTufU1+XXOfV15XSOfkJ9XX69U19XTu/U1+XXOfV15XROfV0xnVNfV07v1NcV0zudw8br3ZQSP40CpVFGQ3saRf40aqCtGMUbDnLJ2hSj/M4aW1U7ytatJN1TX5df52QyhEwb8WeEYqQYoXPq64r7OWxV7UjtSO2onA2pHRWzIR0zlNc7ZFj1JuNkHddNxGvKiZ9GDLYbOUCgPY0gf6o2GNexKUYTjUacSdZeMcrv2GUypHZUTOfU1+XXOfV1xXTN9X/q6/Lrnfq6cnqnvi6/zqmvK6dz+Dz1dfn1Tn1dOb1TX5df59TXJetcUxA/MslzB5IhjxttNNKeKlnGRnc+0qaQuLjPUozKOzbFKNnRubrmHqsd5dc7dxAnOqe+zl/31Nfl17noIE70zrXlkMeKkWKEzqmv8/drcfandqR2pHZUzoawK7UjtaOQdtQ0xA/KTaQMW1wHUubcVBiNtKeqCRFKUPUWJ3PFyN+JV40Pz1eM/PGIk5VilN+PRCdD6uvy6aD2R/l1Tn1dPh1TX1dMx6L9gfq6cnqnvq6YHsbZr469/XUxasdV/FaM/PGIk1UVmESfGfdetaMR01TEDyBVAcpUdT7SnirIn6iCV/E7zmikTeCUdL3IecUo3ABBMfLvkKqwm+gzk+xBfZ0fTlF5VvFbMfLDIklOVWASfWbSu9WO/LCLyrOK34qRHxZJcqoCk+gzk96tduSHXVSeVfxWjPywSJJTFZhEn5n0brUjP+yi8qzit2IUj0XTET8AFdpwppJUkPaEJn+qMJLoM5OMRtoETmll8lxTjMISP4pRvMOL6mRU56v4HX2n+1t9XTZOVWASfaaLSfRYMVKMovoS4jd9XlTX5Dc6p2OGdL3TMYOOGbBDtaN0OxGfkrRXO1I7UjsqZ0PYVivZUVMSPwiRQU8oYmGqAaE9oQdyIQaeWc9I6ijkvGKU7iyy5BviumCRtFeMFKMQeuY+I22gjR6qr0vXOe2Pwg+00Tv1del659pwVcdJ/ZCcV4wUo9C6p/1Ruk6J7SXttT/S/gibVDuaOXbUtMQPTirUIKEZHBvtCTkhCt15xj0vqaNwzytGyc4iTqahz7lYJB0rRopRSL3LGiCgh+rrknVO+6NqBtronfq6ZL3L4wOePH1qevsemBttHebilZvmwuUbXtups7+ZrO30uUuZZbKewfUzF6541cm37nHleEdWXX49d8mEalNcHUKfy2oP10O1JxRGl67dMl3dvebR2ONJuS3z9Ec9PffN1RttpdoXGo+457UiRnHtkHNqR5P94unzl8yVa7dM971eMzQ0nBj9Sb+WNmb4/ckTaxvYiMi7yF4xmoyRjx1KmVC+Lg27UBg1NfETaiCXZjR5BkNpZX06n5ATorS6hLpGfX22EINtxai6yZDaUbIeh7KVtOf42JBipBil6VDea9oflVuGPJP7o+GRUXP+0nWz8qvt5vXZi80fX3nf/OGlWbqpDKZMB/7y2gfm4+VfmYNHT5me3v4J5I+PrxsaGjI3brWbrTt/NO8t+ML88ZU5U9YWtSX1JejAn1+da/4zb7nZtG2PuXTlhnk4OJg430rqjwYeDpmjJ8+Zjz9bb/7y2oeq0+qjvXSg6YmfEBOiJKPJO5hOK+/T+cgEMMS/4Wl1CXVN6uuzL0v+KEbVEj9qR/HEQihbSXuOj/1IGbWjyTilyTbUNZG/z14xUoxC6F0zjhkeP/7dHD5+xrz9wWfmv16e7TWI1ImsTmQbpQN/e2OeWfv1LhuNJjboY0cXLl0z85euM396VQmfRmGl7/HzC3/65xwzb8kac+bC5cTIn7j50eDQsCUy//LaXPXTSvjk0oGWIH4YjJcZbMcZjXQaofY+nY87qShL/oSqd9pz3Pr6HCtGEydEabINdc0HF7eMYqQYldU99XXaH7k+heOyOuVzf/SdWb/V1+X3dSwXmP3xSjuI/O+XZ5t35i03y9d+Y77cuMNrW7Fum8mzfbE+X3n32UQk+daraDne4b7T57hMm4rWM899Pm1wy5RpTwiMeMaCZevN39/8yOrl/74132z7/qAZe7HsK6s/YinNos83GCbYkBH/fHeh/f352q25sUUueWRdtKwrf5/jqcYoq51qR9uMixG6t3D5V+bVdxfVfO0rs82SlZtNW3tnbNRPdA779Nkzs/vHo+Z/Xq9F+UD+fLRkbSndVIwmYuRjd26ZEL6uUXbUMsQPgzzIErasAV/0etRofAaZectkdT7ROkl7GJzGXcs6l7d+Rcpn1SHuumI0PtguIvO898RhkHVOMVKM8uqZW159XU1/1I7Ujly7yHvcbHY09vix+Wrr7voEmYnEqbOXzOjYmDexl9X3xF1XO1I7SrOdZ8+emc67PWbzjh/MX1+fZyfKsxeuNDdvd1q9zLKj/T+dMP/8z0J7HxPtnfsOm67ue4XmEuhvWl1DXYuzk6xzaketY0fDwyOms+ue2bn3J7ucFkLypbfnm70HjsbOB9FxV7e6e/rMW3OXmv/vH+/ZZYsbt+017Z3dE8q45X2Os+woTv/QOZ3D1vQuipGPzPOWCYVRSxE/KF4R59asgEh7ihhOXoUpUj7O0H3OKUY1R1BE5nnv8cEjroxipBjl1TUpX6TzQQeLDhLkvVXu42zE55zakdpRUb1sNju603XP/gvNJOQf/15gTp75zTx58jTXZMLHZuLKqB2pHWXZEcnGF3+xqU7gHPz5lNXNLDv6fO03dTJz07d7zP2+fju51v6opnM6P6o+zYLr81xfR7Lxrd/tr+vn6k07TF//g0nkTxSjE6cvWh+NryZn1dDwaC4/HWdrWXbktsE9VjtqPTtqOeIHhXMNx1XApOOo0cQpfdlzRY1G2pOX/ClbX5/7k+Tpc14xat5/hgQ/xUgx8vED0TLq62odvdrRuByiOlLFb5F3kb36umxf99uVm/VlXuRD6SjwD3IRbOQexSgboxB2JfIusp9KjEZHx+zyFia7LPfa+cMRL+KHJTXcw3b24pUJeVRoj469J0aThNCx6DN0zDDeV2J3rh39cvqCeeWdWkTastVbTEfn3UziZ8een8xfXyzz2rrrQG6CPooPvxWjZIx8fCXyi5NryHOhMGpJ4idqOFmgNDsg0p48HVBIZUp6VpZcs667zi2rrGLU2H8dBA/FqJjck2wm7rzIuuheMVKM4vQq7VyZAQJ6is5pf1St3jUbRi7xs/TLLaa7537ugWxRHyf3qa+rVufwGSLrovupwoglh/sOnbAETlHi5/K1W5Par76uuSes6Ol0xuj0uUvmjfeXWL32JX7WbN5pJKnzz7+cM0+fPsvtq6Pjh2brj6L1K/K7qI+T+6bK1yW1NRRGLUv8iDMAGAEpaY+wkgQZ6nxZQKQ9voPtUPVOe06SPPOc9zUcxajYgC8PFkllFaNisk+zHfdaktzznFeMFCNXp7KOtT+a+O+d2JraUbIdNQPxA06KUTJGWXbvc11socx+KjCqivgRndOxd3V6p/1Rcn905vzlUsTP6fOXDXmwfGw/rYxilIwR/i7LX7bSHLaliR9x2FmgtAog0h6fDijNgENdy1J03+s+gwTFqFin64tBVjnFqJj8fWwtS/a+1xUjxchH3ygTYhCHXqJz2h9Vo3fNhlGzED+id+hemm/UMUMxvUyTaZ5rje6PqiR+ROfU1xXTqax+qdl8XVZ9fa7nsZW0stOJ+FE7qsZ+RB9D2VHLEz+iaGmDhFYaIEh7sjogUYQq92nOKu+1rEGCYlTMYeTFIa28YlQMgywbTJN53muKkWKUpW9cDzVAQD/ROe2Pwutds2HUTMSP6B26l+QjdcxQTCeT5FnkfCP7o6qJH9E59XXF9CqtX2o2X5dWV99rRewl7p6yS72aKeJH2qdjhvA2FHJcNy2IH3HYSYOEVhsgSHvSOiBf51SmnBhxqH3aIEExKuYoQmEjz1GMiuGQZmci21B7xUgxStM3roUcaKO36Jz2R2H1rtkwajbiR/QO3YvznTpmKKaPcbIsc65R/VEjiB/ROfV1xXQrqV9qNl+XVM8858vYjHuvS/x85pnc2c3x04zEj9pRWPsRvQxlR9OG+BFFixsktOIAQdqT1AGJIlS5d51TqOOkQYJiVMxRhMLFfY5iVAyLJFt0ZRvqWDFSjJL0jfOhBgiuvqJz2h+F07tmw6gZiR/0T31dOJ3DN7g2Heq4ERg1ivgRnVNfF07vms3XpfWdvtdC2U6U+Ons6p5ko9H5USsQP2pH4exHdDKUHU0r4kcUjU7INcqo0YgQQ+5DAeLWW47jOqCQdU96lrw/9D5ukKAYFXMSobGR5ylGxfCIsyWRaei9YqQYxekb57Q/ik/UGGeDakc1O2pW4gfMFCP1dY0kfsRP6Ng7jN5pf5TcH7nED1/1gvjB34kOso/Oj1qF+JE2qB01lx1NO+IHRYsOEqJGkzRYLnO+SsdGm6KGU6auvveK0VaxV4zCOIIqsJFnKkaKUZyvUF+XPIgT23H3akdqR61gR81M/GBPakcz246mgvhB73TsXV7vdMyQPGaIEj8dnXczfV2rET9qR+VtiDFEKDualsRPdJCAsOIGXiHPhQKEuidtbgcUsu5Jz0qqR6jz7kBOMSrmGEJhkfQcxagYLq5NJck21HnFSDFy9Y1j7Y+S+9Eku5vpdtTsxA+4zXSMonZe5HeS/oc6XxVGU0X8IBcde5frY7U/Su6P4oifLF/XisSP2lE5Gwo5rpu2xI9rONOFVHANp0iHn/ce3hd66+7pNdt3HzTzl64z78xbbreFy78yJ05fMMMjo5USdI3ofJAX4ZpzFq407Z3dlbYHPH3w6em5b3bsOWQ+XLzaHDj8i9c97nNlIFfWjkZHx8y+QyfM+wtXmp9/ORcrmzSMfjr2q3l3/ueGBHhu/Yocy0Aur01I+aHhGs6LVmw0be1dti0PB4fMrn1HzIJl683xUxfq7StSv7z3JGF04vRFa2t7Dx431FnqX2afhlHeeqeVL4tRnjam1SPUtSSM8tTTt6xiVKzvmskYtQLxgy3OZIx87T+tXCh/lvacKjCaSuKHtmp/VHziqv1Rcn+URPyk+bpWJX7UjorbED49lB3FEj9pDj3UtbSOKeS1x48fl54k+rQZQELWO+1ZdKo+dSpbJq0Oea89e/bM/HzirHnj/SXmb2/OM3985X3zh5dm2e2Pr8wxL70930AAnf/tamVtS8IIQmL/TycsYXPtZnspHEcfjZmX3l5g/vLaXHPyzMXK2iLY+uDQ2zdgPl+7zcr9290HC7UvhB319PaZDVt3mz/9c44loqQN7j4JI9o5b8ka8//94z0r27v37hdqhyuvMnbUfa/XvDV3qXlt1iJz5sJli3Nbe6f5dOUm8/c355ltuw7UsXffWcVx590es3ztN2bjtj3m4eBg/b0cb96+z/zp1bnmy4077NpxV9ZFj9MwCt2+MhjlaV/oeic9L4Qd+bRLMSo+wJqpGDEBmTV/he2TF3+xybS136n7Eh+do0yS3oc+P1Mx8sUhrVxoLJKeFxqjvv4HZtcPh61+/v2tj8y272t9bJavW7xyU32s2dZR+5Mmqc5Z57U/SiYw0nQuC6Msuee53moYQbi/OWep1dEV67aZ+/0DE/xonB2t+mq7+fOrc+09x06eM0NDQ7l9dRQvxWjmjBliiR9htqOKEfJ3HkMuW/bp06eljSKr7Y00GuTRShg9f/7c7D/8iyUeIEQ2fLPHOjccHBtkCxNmCCAm9xcuXasErySMRkZGzbffHzSzFqwwFy7fmOB08+oebe3rf2j6+gfM4GB5Z5yldz71g3QbGhqx9RoZfVS4fWXtqAzxc+naLfPX1+fZjg7yZ+uuA4Xb4cqsqB3FET+DQ0PmXk+vJVju9/XXddh9XxXHDGbnLFxlyZ/R0Uf196I71ONOV7fp7e0LMjjgmUl2VEXbeGZRjLJsx71eVd3jnlvWjtx6Jx0rRsUHcWA2EzFqJeJnpmKUZO95zsf5pKrOhbSjZiB+kJP2R/nJH+2PkvujLOInzte1OvGjdpTfhvDxoewolvjhBVU7t6o6mrjnIqyxsbEJE6I8HaVP2VCAxNU/7lwrYXTlepv5n399YP7n9Q/N8V8vmLGxxxMm7c+ePTdd3T1m3ZZdNhLo87XfGCbWPnLPUyYJo657veazNVuDED8uVq2EkVvvpOOydlSG+Plq6x6rG399/UNL/rw++9MJOpRU56zzRTGKI36SdDGrDmWuQ+qdu3jVvPLOQkv8UAf1dfk71TIY5L23rB0l6Zl7PsnX5a2rb3nerWOGfHrXbBi1GvGjdpRP38Q/+Np0iHIhMWoW4kd9XX69azZfJ7ZQZh/CPniGD/ETtaPpQPyoHU2dHSUSP1WDEspofJ6D0dCeKidEU+HYWgWjuYtW2Un7tl0HDRPVOMwIZ2QC+595y80bsz81h4+fnkD8nL14xRB+/vK/F1gCac6iVea7vYcMZAJykG3fwWOGMGBy2Rw7edZ8/Nl6W57lV19u2GG6e/rq7+eY0EoIKZae/dfLs81fXvvARpZs2bHfRsm4dSUPEXmJiDxhW7lhh+novGcgrqQcET+vvrvIbjfbOmy92ju6zGuzPrHv4nj5mq32nbyXCCfaLfWP7k+evmAWfLbeLh+j/KIVGwyyGHyxpEfeu+/gcVvm6C/nzIEjJ20EyL8//MxcvdFu+gcGzfotu83bc5eZQ0dP22ik9Vt319sh7ZH9y+98bH67eqveJt7R3XPffLV1d70e//5wmQ27jtaX3wMDD82pMxfNgmXrbDvBQ/ILFVnq9WhszLz9wTK7zOvUuUtWln96dY4hf420X/a3bncaSKE1m3eZc79dMx8tWVtv5+yPV5qfjp02g0PjSxKo7y+nL5h3P1pul0Xt/vFn88EnX1odQt5vz11q9Szazjjih68xrNqw3S4B+/HwiTqmUrerN25bgvGV/yy0dfpg8Wpz8MipxNxWO/cdrtf9pbfmm292HbBY8jx07tLVWhQUUXREQRExR52xoeOnztn3k0+Le7ft+tFG/7jtYGkaeEAacR/bpm/3mt77E22KtrKkjai8rrv3bBtFV2hDVFekvUMjo2bXD0fMm3OW2HbQ7q937DfkQpIyPnupc5XEgk89QpXR/mjcXwu2PvtQ8vd5zkzEqBWJH/RGx3X57MlH/0OVCWlHzUT8oHfaH/nrnc6PykX8RO1ouhA/akf+NoSsQtlRKvHDi6paLxmqY/F5jhgN7WGQUEWbQgHi0x7K0BbZqmgPz/atS1q5KzfaLKHCpI8lVUllkV9//4CdhJOrxM2PQ/4dyJT/evk9G+1BbiAmuv/9ymzzxbpthoTRIovd+4/YCfD/vjW/TuZILiHuZxJKnajH3Z77ZsmqzfVnSjn2RJi4BMG27w9aMoD3Sjmex3tYagPhwzPZ/+2NeXYSff1mu63Xrdsd5n/+9aHNbUN+I7cdkE2QQgePnKy3gbZAnny764Aluigz/s7Ztl0/HDpu87mIPHftP2JlAsmCXKgnz718rc30PXhoVm3cYcCAJXe9fQ9szhd5ZnQPSQapIM8+e/GqeW3WYoujlBX5L1q+YUK9GZxByAmRJuVpw59fm2v+8q8Pcuf4OXTstJUn7fn9yRNLHvA8kmhLHWV//VaHLYuMqYOLl9SZfDh37/Xae5E1JAlkI88U2Um95R6Skfc5y7fiiJ/2O1028TS6ChEnOkndIORen40Mx/VHng0JFyVDIPuov9SDPb/fnb/CPBgYtMQPyxLd63IM8QVxiq/bunO/lffX2/dNIHRYTkmOIle3uJ/fb76/xEBiSf2JxoMU4v1/f/OjSW2gvRBYggF7ErWv2/K9xdzFgOd/tnqrbYNbPu1Y6sG+mX1dWhvca9ofjfddLrZZx64Mqz6eiRi1KvGD3ui4zt+mqrYd9/kh7ajZiB/tj/x1Dj1w9aLqY7cvafYxg2/Ej7QJXzediB+1o8bbUSbxUxUoVRu++3y386E9VQwSptKxNTNGew4es5NvonVcTKLHSRgxgX3j/U8t8UMURf+DATshPXX2ov3CExP1LTv2mb7+Wk4VIX6YxC5wJuvkOlm9cYed2DOJd5ebdXb3mqWrvk5c6nXyzCU7SYY0gkiRqKU1m3baBGsfLl5Tf14a8UOdmGwzwAYziC7qC1nz3oIV9STBXCNy6Z//WWj+9d5iQ/I2SdpLRAqTbybit9s764QTxA/PJ+qDRM5EyYiMo8SPnHf3jx//bohygqDiiwHkKOI65Ni/X0TbkCiYOlO/js7uF0TGbLP1u/32HHX8+cQZWw+iSNyol6s32iwe1DFvcmeihSAMduw9bAkPiDbIBKJO7nT11NtJfSF+IJd4D4nEj548X79++XqbmfvJantty3f7zdBwLUm6ED/c88o7H0+QN+QdX2jjfUtXbbbtpP15iB+ilMAdggQSS3SPDh/Z8t4fj5w0Y49rSyCJkiFxH4lWJScT93z46Rp7fvWmnfU20WYIIKJ+ILSom7tt3fnjJOLndkeXtR3atO7rXTb/D/cwsF70+QYra/vuF88S4od6Qr6hv7yX+h4+ccZGgUFInb90rV4v2kyUFlFWYEJ5vnJHNBLvPX/punmaEP1HWXdz28NxFQM5931VHyf5umg7y/zW/miiDuXFdCZi1MrED7ai47qJvj/Jf+S1hTLlQ9pRMxI/yFj7o2y90/4ouT/KS/ygc0SWt3JyZ3xK1D+pHTXOjryJn9CglOlM8t4b7XxQuNCDhGZwbM2IEdEMTPS27z40YTIXxTAOo3s99+3yKCJFvtv7U530EYfBciImoixNItqC80L8QI64ERpcIzKI5U9EXrAMSOqQRfz8eu6yTf584dJ188jJT0TkBZN5JsSSiT+N+CHiJhrZ09HZZdtI7hpIHepJMl6+cMZkHvJk4OH4l5q4vp5IilfnmtWbdpgnT57adkjEzxtzlkwgfWhjFvFDnY+cOGvlwhK6G2136rIh6TVRSixP63/wcIKzhsyBkIGgYnkQiY1ZWkUUFMuUqKu7Xbx83fD8PMTPtVvt5h//XmDJrv4Hg7Ze1JdPpiMD3iM4shfiB8LsyIkzE65xneglSIp3P/rcknjUT4gfyDSWfUW/kAAeREFBMl65dsu2yZf4oRzLzsBy1/6fJ+gP9YEggVBELkK27TlwzOqb+wUS2swyNmwJEskl9tKIHwgu5L1lxw/1iB8wBSPIWJZuuRhx/P7ClRZXIrf4LcQPS8YgJF1fh07Ulg1+aHbuO1KXN1F6yGwtxFLfgzpBefLMb2bHnp9M+53uUsRPM/o6Vw/TjuN8nfZHE31FVCf5nSbT0NdmIkatTvygI2pH09eOmpn40f4oXe/cMUNoXx33vGj/AT7NilEh4uer7XZMydyjFb/qBWathFGcjkXPtdKYwYv4AaDQhhMVWpW/4wAJPUiYasfWrBixZIrJKp+3TsM4DqOLl6/Z3DBMRJM+887klYntj4d/sVExQvxAQEQdy8DAoP2iGNEo5HqR+mQRP5Rj4s0yIyIviMJg2RobOX8gP3yIH0inazdvT+qA9h48ZshZQ34VSJ5fz12yERkQAqfO/mYn7BArskEGsZwMwmXscS2EFuIHYmJZzPKnNOKHdkGWkGsIAo28ORKJwbWFy2sRIEzke+/31+sgdYH4gtQ4dPSUgcQiRxLtdJffCQ5EC1ki4lW/z7nzfr7eRQTP0i+3GKKSBAvwY+kRuiH15RptgcCxS7Min8Xk+sjomCViIBOPnqzlwRHiZ96na8ztjs5YX0e0GDgLGeJL/Fy6esPMX7bevL9wlSWaqEN0+/mXc+a7vYcn5JSi7Y9/f2KJItE1oq9oWxHih6gsot6Gh4fNkpWbrexot+SKEozYQ05is+TH4rcQP7Wlg7cmED+0hYTtyJM8UoLRmQtXLbnGPSw36+ruNaNjY7ZNtC0qg7Tfbt3kWPuj5h5og5Ni1FoYTQfiB70LSf7ouG5yf5Xmq6PX4sZ1RTFqVuJHfV26n0M+akfJdlSU+JGIH8Zx0T8rkXneTTFKxijq1+J+h/R1SdiFwsib+Juur6AAACAASURBVKEiDORCJTSLE1xV55IAoU2hBgmhAPGVQZJiNBtGEAZMIiEQ0iZ8ghETUTp4CBDy/ECsEP1y7UZbrCODLGEyTPLaBwO1pVMsdyIRbVRGQvz8/a35dtmQyDqL+IHwYeJKxAY5beTLUrDtsvkQP7SFhLpRjIT4IXwTwuSIXd62pP5seUd0Tz1k2ZAlfl6ebaLLgGhjGvEDibVp+776Ei+iM0QuA4NDZvbClZn1gLTa8+NRQ94YyJG5n3w5SfaCBREjkFY79tSiSeS87F07IscS0Tk889DRX207iLJi67nfb/757kIbCXTmwpV6nSF+iFAiabe0I7r/dvchSxYShQaBJcQP8r/b3WPrHsWI+lIPIp+oqy/xA4n33oIvrP67ETzROrm/WUJ1q73LbNi2x7CMMIp7EeKHHD8skyQqi6VzkGmXr96Mxenq9Tb7ThJb01Yhfsgd1NZ+Z9IgToifL9Z/awYe1hI3YzP7Dp2wy+34oh+yg/zauG2v6bzbU18u6bY76Vh0I7qPYhS9nud30rurOC++Lq5+2h8lD1irwCLpmTMRo+lC/GBXakfTz46amfhB57Q/StY5d1yX5HNDno/rW5sVo7LEDx+dGRoajh3LJckh7rxiVA3xg6ybrT/KRfyENJyQRp71rLRBXChQmsVomg0jlg0RkcPXuCAgkrBCfkxMT5w6b5cwsUyHY762NH/pWnPtZrvtWGmfu/GlKfLS8PWiKogf8vngWN+as9S+hwgGJsCy0TYm5nmInyhGk4ifE2fs8h8IFaKTWLYUt73z4Wf1CIsixM+Tp0/tV76I2iGZMEuJXHyGhkbs18FoH9FAcXXgHJFJRIlcvnbL/DfEz6JVsf9AEG2y58BRS5z5ED8Hfz5llyRFiQ/3NzKC7JK8S5b4eWOezXfz9OnkL8jVoohqeW9YJsZyQCF+IIsgOUS/3IEcy6MgL1Z+td1e9yV+Tp+/bMkzK9/2ifIVWRMJQzJkvtQFJtSLdrFcUfSMPbpHHYoSP5BcLCcjuosord+u3Ki3VdrMnvPIGKKS30WIH2nblett9ste5CdiqSP/Ur0773MD2ZpGBMv97N26RY9djKLX8vx231f1sfZHE324L05V4+I+fyZidObCZZtXDNsnkhaS1xcbKefKsOrjmYhRiD9eq8bFfX5IjJqd+MEGtD+K9+3ogasXVR+LP4rbNxtGZYkflnrRJra49vqeU4yqI37AIAT5Ewqj3MQPDQhhOFUbvvv8rM4nBCihAHHrnXacZczNhBHRPizLIYLBzZHjto/PuZMDhmgRljARKQSRwJIdCA6WPDHocZ0bS4cghZhMHv3ljF22Iku9CkX8zF9hyOPj1qunt99GazARJzJGIhooQ34dJsdENOUlflw7ihI/LGubveALm/CZpUJJWJNMWeqal/hh0g1Jgnwhflj2BOkgz5M9S6yIoCLB9ahd4hbfsQ8ODZnOrns2Hw9EkHzK3q070Sbrt35vicAs4gfZknAbYo2cTCwfi258nh5cqD/LoKgzbSKaZe6iL01nJPEz1/m0PQQPUUHkm6F+QvwQmXPjVu1LbFJv9G1oeNjWBdKFr6lxzZf4IQ/SohUbrZ6QXyhKdow+GrNED0si+bIXUUHk32HJ3MGjv9bx4D50jLYlEj9rttrlYlJ39pLjx/2qF+1HrvvJHzUwMW8T94ANOi3JrIsQP9j54NCwTQAtbSap9OKVm6y98nU5SWYtupa0d9sTd9xMvi6pDe557Y/ifUgctu45V4ZVH89EjKZTxI/oTdnBto7rqp0MgZMvRq1A/NAe7Y8m+3e1o2Q7CkH8sNTL147EN0b3ilEyRj7jjVYaMxQifkI4Nx9BhirjAwhtKmM4zWY0zYTRzdt37L/9tWTFJyeQJ2DMJJ+vRLFsi+VLy7782i6J6untM+u27LJLuYjs6ezqNo8ejdmOla94sWyISCKIIUlSW4T46e7pM5+v22YjV46fumAjL0T3iFjiS1CQDEQdySSWKA1IIhLY8g9pEeJHMOLT3xAYstSL5V4sKWIJG9EfPT33bW4WyjP44fPwJBlmaRVRItQ1L/HDMiq+4gUBgmz7+uOjsSDgSK786crNhok7UTvUg42E2pBz1Ic69/b22c+ZgyHPBD8pC8FAFBfkDaRDFvHT1t5l8WCZ0C3n62WCC3swYNkSS8f2Hjw+gfghUuq7fYdtJI3cAxnBkjGIKaJebt7utPUT4udPr861S9YgqKSd1PvsxSsWCwgZlurRJl/iB5lYOb8xzy5zQk9Eh0jQzHIo6soSQpawESFEe0j2LPlyKA9eh46etroWJX5+u3rLRgfxRa7unvt1mVPPOOIHfSP6BpKV5V6yPpxwYXIc8Xxs9fDxX+2zihA/tIOvw0EYSiJqcjGJLPjamHyxTPBJ2osOpe3LDraT3l3Fee2PJk8M0rCVa1VgkfTMmYjRdCR+0B0d1020tySdr+J8SDtqFeIHndP+aKLO6fwomVQIRfyor5uoc8ijCp+W9MyQvo66x22h7Kgw8UOlyji3JOFVcd4XENpUdJAQChDf9scpRdy5ZsCIiStfjWJZENE5KzdstyQKRAobk0OigpjwMiEn5FzawjGTeyaqm7btsYmPWYpCkl2Wv0BKQACxzIt7ihA/QyOjZsfen2ykBXlK+NQ0OWSYqLI05rPVW+17IFeu3Lht67zv0PE6iVGG+KHOtYifuXXih3OQEUSgEM1C/iLkANGza99h89acJZYsYGIuS5zyED9E9hDh8893F1kSZM/B4xPwABNICEglvqQlCbSRAzlrqAebzRXzWq3e1JmoHyb8r81aZGW5cdueelkSUs9asMISFz7ED4QXS50gM1hyFmcXEIY/HDphiST0BmJHIn6IWEF23+w6UG8bJBYkIQQO5AfRNiLrN2Z/apdRcc2V94EjJy0RApkFaUF5Nl/ih7JXrt+2XyGjPl/v2G8uXrlp6wRZ9dqsxZa8JJ8VyZz5PD16zdI6EiSDxdUbt8227w/aciTwjhI/kKbzlqy19sUXsyDjIAt5dxzxA5GzZNVma4tExvFu8ARbkmVDQn72IpcRzyhC/BBNRT3nLFxlbZ920B50BlxPnb1U/yJdHLbuOergszWDr3PrnXSs/RHJ8f0wdcslybOK8zMRI5f4wS+0+lIvV3d0XDdub1XYS9IzQ9pRKxE/6J72R+M6p/OjxhA/6J36unG9S/JLVZwP6evcvss9DmVHpYgfcW44OLdyPsdVCD7pmXkAoe5FDCcUIEltiJ73kbGUAZ+pxgiCgk9Xf7B4tZ2QM7mEMGGDDCIKg8kog0+pt+yZmLIk6e9vfWQn59zzP699YJcAbfv+gP1akZQtQvwgW6JKIDiIMOH5LL0hyoJrEFNCckidmbzOmr/C1pvJeNGIH+otS72+3LhjwtewSPJMVAaE2H+9/J6tFwTEG+9/agmgoku9WO60bsv3dflLm9y9JUbGxmz72zu7bcQP5JvUg7IQGUQmuV/wIkLm8PHTlmCh3vLM2pKtT23dWcaUFvHDkif0hKgTvt4FIRLVf35DKELQUQ9IrHOXrtWJHz49TtQMBApLtKgH74WMIF+PfDod+UvED2X5zDtkotxDvSEsN3yzxy6LEjvKQ/xQ14uXb1hyE2JJnk1uKvR+z8Fj9gtx0sZd+47Y85BX1Js9dZv98Uqb5ydK/EBgEckEicSSSogjMKBtccQP56/fvG3tjQTZ6K/gxDJLlnjRPsqxFSF+IA4hymp1Grd1cCISiMTh0t6svdTDZ98Mvi6rPdofTX1/pBiND47Frlzip5bjpxbdKNej+96+8a88StRgVK74aPw3OcyI8CPpO3888IcCkbb4rug9vr8bZUfUmfrX8rBNzhsn9aWtfGyBcvwJIdG4cj1uT1QncpFnR2Wc9ruIryOPIu9C7vKnUVy95BxYdd3rNfd6+7zKy32yD4lRI4gf8EA+bPLFVGmL7MGEj5DwlUzy5vGn4+DgkP0wBNHPnBPcimDEvfKuKvfSTv5Yk/rG7Rln0ibay3HW/AhfILKRpeRVzo8m2lAtAj6uHXKOPyjbO7rMrfY79TGdjOukjM8+FDYhI36k3i5GRHKDHxsrJZISQZNuQ/wX/oE/vvFNfNiGFQHu13NDtF3q6rP3sSOi9GlfrZ0PrE4n1ZM/jfnCLzbAcVI597z4aVYauOflOKSvw4akfxUbQk5JdoQvJ7UCvnpoeDS2flJP9qWJHyrjA0oUXLcSVR/nBYS6uoYTrXvc7yRAqmpbXB3SzjUDRgyM6GSYpEJykO+DjYkgg06XQIi2ha968VloyCG+8sUSMCbs/f01A5fyJ09fMItXbLTJnuWc7DGMn46ftjleiEiIYtN+p9tO8KkThIM7KCXqYu3Xu+p15otQECIHjpyynxoXkog2fr52m00u3NF51zofct8wmabO8tUoqRN78hfxDyuRS+Qtcq+R42fz9r32Ou3esHW3bTcdMOWkDZBqS1Z9bX48crJ+Tq4hc3KqIPNzv12zDuLHwyfrbREc3D3RGbLUiOcwUCe/DfWkHmwkdHadktSbul26etMu3Vu0YoMt+8X6bbbeYLZi3TeGhHRS3t1jR0SHrN70na1vFkHAAJsol+VrvzHHTp2vEz9EwFy90W4je4hUom18bvz8pWtmdHTccfNuIX4++GS1OXfxqk1GzCfPaePK9dvMkRM1EoWyYkcMbNZs+s6sXP+tJVG4hv4SqUTUGJhKuwQHonlYfkY0DfXhC1fk/YnrSH45fdF+dp1y6DxLwvga1o69h836rbsnkWFDwyM2iuvztd/YyDHyRPF+CCAmcT8d+3WSbkHogOnSL7+uY0pkFpMDqTt7lquhv6s27DBdd3smdT7YBjKGLOTT89Je9O7YyfM2Ibbo1sEjpyaUkbJpe7cuPseCkU9ZKZP2/tDXtD8atyORv88+NA5pz5uJGE0mfu6k/mFExOk3u34023YdqEcHRWXKRALSG79H34QPhPCBFMYv0Q8nEfvRZ0V/NwojPnqw64cjtg3yB0+0LvxmvHDm4lVb7udfzk1a0h53D/3R9/t/tveQP9DHDtwyeX0dfR1YML55ODhc99VxdeMcf4h9vPwr22fdvdebWT76nJAYVU38MHYjVyDyAW/+8Iu2h9/In1yAO/f9ZPWfSFmWvbN8mT8ofzz8i52ACk55MeK+uPeGPAcpOd7O8bGK1Nndk6cQO9+5txZNzLW0+RHL4Xf9cNjeQ6Q6k1j0IGT93WddunrL7P7xqG0PE3muufV3jyEHqB/jmcUrNtX/aJ5KjKogflyMIBD2/3Tc4sFKBVJmuDKR4/t9D+yHbNALVgTw5x0ftuHDJHxAJSkdhItFnmN5r+8+CyPGrdgeukqkPs9Nqk9H1z07J6Kt+PcsEpwxuugYX7GNe25IX0fqEuyNtjAnERkl2RFz2+/3H7W+2ubPHHscW0epdxDih0plgSIVl71UoBH7IoBQzzTnJu2QfRIgVbVP3ptnrxhV1/nE4ZwHGymrGJXDSJZ6Qfz09g2kOj8wQ+4u8UOOG8Eiaa8YlcMozlbSziXhkHZeMVKM0nQq69pMHDMkET/YUpytMSglGpEIRongjMoVkueTFZtsROHshSvN5ettlgh6d35t2S+Rp1nkvjyTKE1Z+sq5RmHEnyREfhIVeenarcQ+ha+Wrtq4w5YjKjPuzyVpC3v+LEI2EgFKXrs4OWedy+PriNClHUS28seVW5/oMUQIkx3KE73Lcv1omazfITFqBPFzr7ff5pkEE6Kt4/6UIcKHVANE1xK1i+5DcMxZuNLK6rPVW+q5AAW7NIyY2LHU2p2QZ8m17HUiucCVD3csX/NNqt7tP3TcliUCe9O3e+yXUGlX0vwIIliivTdv32ejhKqcH23e/oP52+u16HL8DbIRuUf3RPv8cvpCXaf56IWUScNIyrj7shjI/VURP9QVjHp679s/I8GbD6W4f2S67cH/i1/mAyDIkj/70HNWZfDhEalz2h4ShXv5QzDNx7jv9j1Ow4go9dkLajaILfLMpHpCbPGVXGTCH7CQXEllOX/u4jUrA8p//Nn62LIhfR0fOmKFC++jnxX5JNkRX8llzkN50qb09j2IraO0MRjxQ8XSQJGKy14q0Ih9UUCoa5Jzk3bIPgmQqton7827V4yS19qGxiovNlJeMSqOUSOIH3BSjIpjlNfOxC7y7hUjxSivrkn5mThmiCN+0nwdHxhg4gv5w1Jolr+I/NgTVQBRwtJZJpgr12+3ofVELhK1+OGna8zhE2e8I374OADLq/lAAM9vFEZFiB+Wsn+5YUdifjrqf/SXc3YixmCdrSjxk4ZR1GfmIX6oI5NScCL6lX/GOZdnC4lR1cQP7eJLk3zIAjxYQg5RGW0vy7mIwqUMeRjJa8jSoQ3f7LY58sjDKDn2XPnH9UfDwyN2+TlEHBHUUj76ztC/ixA/tJc8jWfOj6djiM6PIK9YYi/Lx5uN+EHekMd8DZjoLEggkTn7OIzc6+5xKEyqJH6oL0u7Dh09ZXM38sEYPrwiS3OlPfju7/b+ZP76+jybYqH21dXf7eqMj5astaskssgEkQdR+ES+46chkOR8dC/vzrtPwqgo8fPmnKV2JURS1A9LPlkBIDodmvih/VE7ykv8QFyRwoIUGawKAIOovN3fQYkfGpAEShRctxJVH5fpfOJAibaF37yj6na4z4+rg+85xSjf4MWVe55jXzziyilGxTBqFPEDZopRMYzy2BBl4+zD95xipBjl1TfKz8QxQxLxk+brmEAxISQa4PrN9gljIJY+7TlwzF4nl5gsQ2b5F1/LZJmrLJ0ijw4RMCzVYABOPgnC18nDQOQJmDCglcgbBrq99/st2UT9WHrL0lWW2/KvvusfWI4s1+QjEFyXwfbAQ/IN9Rq+5hi9Fz0oQvwgk//MW24T2sfpH1FOkDAQYpRlSyJ+qDsbkzO3XXHH/QMDtiy5LuKuR4kfkTPyjMtJhPxZ9s0GWQAWTIRYliZL4Z8+fWb4QAb4gaPb3pB21AjiB90jUgs8yKfI8i23PRxjJ2+8v8RGarHUmwkny9shQo/+csZ+GVO+Ckq0hcXuhU729fXb5f5yHb3jXURUbN990F5Dl3nPkydPbCQCuhKdyJGXhKXU4AYOcdjJdZbsiw1JW4oSP9STCAR3ObjYEfrG8jfyGIpOxxE/1IU626WNo48myVfqKHvqT95HlrNTbzkv+7iIn+57NZuRlAiuLWAbfKmVdAPkg+Ea5cCCZe2QQ4wbaCPYuW11nyPvL7uvmvihzu2dd8278z+3uHzwyZd2aaLblo7OLuuPwA1yXQhP/DNpJCB9ZUku/lvsHyzRRfRQdJRcOEQK2WctWGGvoYv4Ccri1ykf9VGQUWIv4BIlp6gvWJAuA5zAyG1DUeKHemLnkq4jiueFyzfqEWyUTSJ+Rh+RD6mn1o8MTuyD3HpyjL7R39j+6oVfd+0ojvjB/9HnuekUpK74XT7yAglN9A/n8QmktcB2JG2H9LPBiR8a5TPYlgo3Yl+286FNLihREPnNOxrRFnlHXB3ynFOMqp8Q5cEjrqxilB8jlneR0JjBuqz3FpuJ2yP3azdv2zwVe348GvtPXRw2ck4xyo9RHA5p50TWRfeKkWKUpl9x12bimCGN+MH24uyInAoMhiEwyEXnypKEwAuWrbPXiQKQpQLkV2B5DDnX+MIh95BAlFw39quE19tsjgkmjeRZYdJBXkCeIcuiuJeoIZbmMohmErd64w6bB9BdMkO9yZPHNZ7HF0HFj5D74syFK7Yu5N9bv2WX2XPgqF2mI5MO9KAo8cPyE/slyJjJLeQCy8GQnWwu8UObLl25YXb/+LOt++pNO+w/8pev3qzXX9oBicCkB9Jhy44fbH482kqEFHkG3WSuLvFz/NQFc/DnUzYXH/KknSzNEBKBSR1fOOUafSr/+DNxI3ceUQN8JfN2x137Hq7zTsg92kHkDLi6dsSkjiVR5DL8fv8RmxPu4uVrmYSWjL0bQfzQZpYU8lECdI1/0PkYhug1hAUEDfr+0tsLrL6AA3ljWP6Fnp04db6eT4+PjXCOPEBElyAjcgOSDHrPjz+b9VtrH9n47xdLy9BD8vLxPuxHZE+eLKkDe7Dgi6Zc5wuZdRLu2TPT2dVjMeFdXCf64vK1tgnJeYsSP+gqkTJ8OVT0jz0Y9fT22a/ySmQEZakDuizzI4gE9JKvlGK/7LFByAK3fRzTJpYLQR6zHOfrHT/YvCyWhHg8Pt9yiR9yWJJfa+3mnVbuYMUkWuqK3F1/IPZExBZfc6U8OsoHZSC4wI4PyJCzEbJBnsNe6stEm5xZ2AMbebv6HzysX5dySftGED9EoG36dq/1NSxxkhw40p4Tv16wETpgRs5VIeQPHTttdQjfDIFAG67d6jDInGWg+HKrh1trvhxCf+e+I+btucvsu4j2RAfxq5BFkkOLc6RYkPezhwTBJpA50W+uvLnGx24gaPCF+J9JZQou9aLNLEOmXdi/ixN2EiXoXeKH8ugpeaawM+qOTbM8Ep/gto9jiCvyn+IX6G+wd+5D58jvKr7OJX6wIWSF/qPXyIB+0SWAyMFKXjLkyjI22oBNkaMJ28FH4LeJ5Nq0fV+Y5M7RxvE7bpDglnOFW/Wx2/m4dch7LKDE3SeOreq2yPPj6pD3nGJU7YQoLx5x5RUjxUhs3mevvi7+CyVqR2pHPvYjZWaiHWURP/RPUTviH86/vf6hnSQT2i85Ufh3l8kqS8GI0ln51Xb7xRjky0SPiAkG3EwoOEdZ/mnmq5osLSJCiC9I8jVFJhh8RZPy7sZzyY/CgJllNlx78/0l5vK1ieQIkxyu8cVCktfTDkgfCAiicshhIc/la6EkyCd5L+QPelCU+OGZ7y9cOSkvENExDNBZdiHvZe8SP0yOiaZyv6LJhJpEq26yT0gfEguTe4X8He7zaC8fSWByK+SPED+vvLPQzFm4akIdWJ626PMN9p9jJjRsJD/lmURx3GjrsBhC7nCOL01S/uV/f1x/L7ldFq3YaCe/kERiRxB0TKxZKiRfdAU/8uiAQ/Tf/+hYiLE30UwkDebd5L9gQk453iF2G7fnwwIiFyEf48rJOXSYyS/38BXKE6cv1p8PqcLEj2tgK1iw56ubnN+4bY/9N5+6sQSSc1x7a85SA8HDb9oCecSxuxFRs2rDdvu+K9fb7DUIpl0v7ETqCBYsweHeDdv22Ek11yBkWF5DtJL7XLA+feFyndQrQ/xgiyxni36IBJ1leZz7Xpf4gUwgEuRvb45/7RVyjS+bQpi45A+TWgicuYu+rOdW4bl8mXX+snU2KkvILpf4wT6on3wRlXvAgBxK4AEJ5foD+fop19+eu9Tq+dxFqywpK36B/b8/XGb4Y5AoDdFNIl+YUPOxDiIepd34QeyOCAzBK23fCOKHaEEISeqJ/RGpJh9mIQrym50/Wjnjr5EPtkud+WAM7Zq14AtL2nCOD+SgX+DIssg/vzbX+n/8NESeyMHdYyuQRCz9FVIIOxFZsucra/OWrLH3L1+71ZLWnIfU3rRtj6l9VXj8C7S8HzILwlHKFcnxQz2xRQiY6J/FkIwQZa4+ucQP0Y/oLks+3fbin/iYDv2ItBHS5+jJs5Y4de2Td3P//sMnrB/E1/EHheT4IV+R69uxGewMeUuUFYQ9y0WpA0uqwQnykaTcnOMaJLbkwqok4kcaGh0kyHn2aYYQ+pp0Pu77ix4nkT9ZnU/oNhWtf/Q+xai6CVFU1kV/K0aKka//UF8XT/xge2pHakdqR8n24UP8xNkRX+dicMmkX5IfM3Hjy5ecZ5BKxI7IPo34oTwbpAj3kSiWCSA5FpgAywCcyR8DcKI1ixA//KMP6cO7iLwhZwuTczsx+uccO9FgyQ3+tAzxwwCf6CZZJoEMiHKCAJG2yl6IH0gSSDBIH/4xX7Jyk42cgihhEkoUleSQ4Z9wJkVMgphAMEFg8sTkExKBiXJtElpLHC3ED+/kWe8vXGUn0kxumFBwnn+hWfKURfxQlkkk8gMP3skzIaj4siUJXpEfSzOo40svlgC9PvtTw3KTl/+9wL7TEhv7Dk9aZhcdLw0MDppd+4/YOlZJ/LD8jWWIyPsv//rAkIAc3IiEIskrhBfXIGiQP/XMIn4EY8g4ZM0kkMgZ0UFkDxkKtkSd8L68xA+RSZA+6DDyIS8TpJcQIbxLPnhRhvihLXw5153UsjQHGxJST9rrEj9bdv5osUNH5Etx6AJtf2vuMksI024IFb5q+s4L+0RPmLTO/WS19QE8GyJBophc4odr2PG8T9dYvcRfsH20ZI0lfbKIH6k3GPOVVybkQjpTVyJ/hEQlmuLfHyyz9WdCjd1RXuwI0kQiZ2hX0tYI4gcdvdnWYaMmaSPkFr6T87faOuzXejkPQXjlxnheqzTiR2SF70F3iSYhQgjiXogN9vgGInSIUitC/BAFVCdBFq0yJE+XaEn82/5DJ+zYrsxSL9v2RatM+527E3DCF7qkHuWE+MEfEJFGP4VOQ2DSF85e8IX1xZaY2rbHkjn8iXDqzEWrm/jHv78137y3YIXF4aW351tfj34RFYiOQuBKm3kn/QD6BYmJjaHT+HoijdCrLOKHZ5C/iX4HPColflCqpMF2khFUcT7kZIg2xZE/vKOKuic9k3qE2hSjZKecJH+f86Hw4TmKkWLko3Pq69L9otqR2pHaUbyN+BI/0f6IZQIMLJkM8y8u8u253+9MMr409158bYdrWcQPA17C0Y+dOm+XeTFhIFKDibJMqvgnliStRIoUIX74sg2DdCbHLFfj32b+9WdCycCcicydru7CxA8RMv96rxaBw1dWZEJBrgVC9RmE8w4mB8iOTYifsxcv24kY7WX5EHUjf8ynLyJXIFCYgJKPiCVEECfInknBT8d+tUvEWBoAWQb5Qz1YJsHkwyV+iFRgKReyhFyTNtCTEAAAIABJREFUSTjPgxjIIn6Y7DAhZ9kazyAyRqJQIBkuXLr+Qn4n6l/QQd5EWbDE6+DPJy3BRRQM/+ZnfVGTpV4sfUNW6EhVET/oKMtSZBKPTqCDRAOwFJH3M9mT6DHswYf4gXw4cPgXiwXYseSIf+15HvgxOeYceFOHvMQPkz8iydC3b3cfspjc6bpnl1TJ5JVlIOBalPiBEIGIYc8yQSaptB8ilWg72vL2B8vqUTou8UO0D3WDnELXIQZ5BqQJkX5CsLHsc+mXW+yzsBGizphgX7l+29oOUVjo3je7Dth8MS7xA+kAOYcc8UvvfPiZfQ7tJym3D/EDtixdREdPn79ko5SE/IHERQ/b2u9Yf1Sb8C+1OLJUCFJ37de77MQcP7L34PHMeWGjiB/IOaLuRH9tlBVftT15zrwx+1N7nghLWdKFDmYRP0QO7jt0wi49QteIpCQnjsgd8g7fQEJ/ln8WIX7wlwuXrzefrNhol0SRjwiCBN9JfwCJxbgOErZIxA/+EX+NjkDyS9QqdYbMgWSpEfE1YlyIH2wIghKd/mz1VvvnBjqG76VOyBmCG9/Nklv0Hp2A/CVSieVd9Dl8th2dozykFu1wl3rxhwpRkSz9hRDCximL3ZDQGZyyiB/aRtQtyxDBo3LiJzpI4DcblW3UFnoyRP2j5E8rEz+KUTW6KLoeah83aW2UDfEetaP4CZOLr2IU3pZc+YY4VowUoyy/ORN9XR7iBzsUOyLUnokgg3A+B0wiTyYzDDaJ3CGXB1EUIvMs4odPnDPoZoIq97CHqJClMvwWjIoQP11379lwegggNibkew8cffFv7fv2H1tyNPCOIhE/RL/waXeZVJCnhKifm7c768sZyL0AucAgnk2IH/65vnqjzU5cyV3E0gtyZCx98SUpJjwsC2AixwSVe/n3FyKFHCZgQ1QCzyDXxN6DR+0x54T4YaLDJEBwYRLDxAACgueJ/NOWevEvNBE48gzaRzvBnUkJeU+YRK5Y942dqLOMjs9nQ1ox6WEjagZyindCwKX590bk+BF9Y9kR+ZmoFxE6RHdASKCbnOPfd+Qr9c0iflgOyT/+0eThEHc8D5kxuZPnUY+8xA/E1J2uHrts8vSFK5Y4JdIOIoLn8x7wLEP8QD6yvI9nyWfrsT9w5B1EYrBMTqIVXOIH8hYC5/DxM5b8PXjklCXSKIvvYIkg7YYwRLcggyAiSAYsuPT1P7STbUgLloey3Mslfo7/esEuUxI5kvOKuqLXEI4+xA/RTCyflGegr7KMhnaSQ+yHQ8ftMkCeTVQVSXUhNdggUbEvCAOIUal70r5RxI+NOjn7m8UGebAUibxbRFXyG0KP5XqS44v6ZhE/RMS40YzcA17kY0M27N12FyF+IFMgSMjpw3K1fQePW19NpAzvYA9Wlvh5sdwyz+fcIWQg2f/4yhyLF3ZOnfGtLH3D3+J/JZpNiB/siIgufDr4QzTil4nYkyWeJNSmX/317G/16D6W2fGngugXfg25k/cMgp4/M1ziZ9GKDYYPEFD+8ePH1g9RJ0jHRcs32LpmET8QcSToF2wbQvxQYRkkSGNdZaj6WAYI8u5Qe5f84R1Vt8N9fqg2uM9RjMJOiFzZhjpWjBQj1w9Ej9XXZZNz2KLakdpR1Hbc3zPRjvISP2JH7D9f901tEP7WfDsxk1wPEB9MxlzZZhE/JFWN+8JKSOKHf2DJU0IECoNzJveQV0xembAxoSDyAj0oQvwwUSTp6efrttlnEcFAIuTtew7ZiQTJgxmIM9nlXWxC/DDIZ2LJ0hmWA0jd/v4iOkiIHyY6TN64lxD+q9cnJtyVMYfr64T4gZiiPi4uew7WSBued+Hy9cyIH6IxSDLqPoOoHyIyeAbPg0CSBN+yLIy6ygZRwASG8uAudY7bR4mfb3cftOWzxt55c/zQHnJU/Xb1lp3ssdwL8kQICSbJJGh+MPCwXt8s4of8Me5kT9o3kfg5Xn8edchL/JCX5fT5K2b1xu/sxJNoBbAgQoxlg8i4LPHDkj0mtuggkQtENxDtQ5QPz4dowa5kWd/mHePJnUkuixwhQ4gEIcqL/FCCv0yo5atq2KN8CdDVseixS/yQg4kJuciX+lEvMCNazIf4waYgSeQZ12/etsQAz1n25RabtBcCU6KA8HEQuCQIlk2WOhE9F61v9HejiB/aw3Kvj158iZFoFMgwIgNpG8vjyB3l1i+L+IEQjRL0oYkfCFb0jvrV9ebFckvqTUQMbbNLvQoQP5CTRPLhZ/H/RJqSpBofjt0sW73Ffu5dyFPRU9rNnxwkVSZ6lPJE7tRIy1qOLSF+SLyPnlBfosZkuaDoWHTvEj8Q0PhwyuDrIHiFiCQSCbyyiB9yX91q76xj2zDih0q7HZCrXFUfVzWIo01C/mR1PqHbGFWUUL8Vo3ATolCYRJ+jGClGSf5EfZ0f8YNNqR2pHakdjdtLEeJH7IiJL4NaBseSL4dBM0svWCbjyjmL+IlLssn9PsQPg3eWZ0ifyeSc5VLUjYkqy3M4x+CbZQqQESzlYSLPMjUICSaJlG/rKB7xw8Ccf4GJuGAiwISACB8mDTybBJw9vf02OSq/7fvaa1EG/OvL0otaBNXn9is21I2lDpSLI35qS6tqCWyl7e6eiSyfqRbih/oxWXBxOXj0V/sPN+/wIX4gFmij+4xfz122S8Z4BsTP3Xu99TYzGSZSBv2I2w4f/7WOm1t3OY4SPxAQ+PCssXcR4oc28aUclq5BBEJsQKjQLpbEHTp6akJds4gfiIHOrnsT7qFdUeKH9nCe9wvxQ/QUy11cObOchkkf9ZHkzkRTUF/0lwS6LK3iS0CS94eyZYkfWQLFUhaWrUCSgCWREeg4ciDqQYgf3k+UE4lmyR8DycNE/fO122xEBUQQdkjdZEKNDtEG8qCgQ2673WOILiIYXOKH5WOUEZ0hqoxn5yF+8AVyP3uWdbHUiOdA/PAFsK3f7bf14xw5hSB28U/Rjag/t85xx40kfogmwfdRb/CCECBaEFxYahgl3LOIH3JhFSV+1mzaOYE8ZWkd+XGomyR3Js8akWVEjv7p1bk22mzD1t3WV1N/yk4gfhbUEqwTaSR2FCdzljzSV3A/xM/1Wx32TwB8Lliu3bzL4ss7aSO2FSV++DQ6SzXRda5BTPHVLSLe6FN4thA/RCrhLzmHLUsEj6tnHENMkrDfJX4gxB89elT3dUQjQp7yLF/ih+VobmL7hhI/NEwG23FgVHWuyskQbYL8efLkSaaBh2xfVGFC/laMwkyIQmISfZZipBjF+RP1deMT2ajNxP1WO1I7Ujuq2UxR4ge7YlIOmQDZw0Cc5TsQFAxySRTsyjgE8UOuHPF1fJ0GEoCBMMtGOBZbJx/EF+trUTdC/BDJQ/g85QnJJ0SfpV9EZDDBI+Sfayz3YFxXNOKHyTm5fVgaw4SC6AaiBIh04F9lJg58FYd3sUnED//AUweWizCRZmkJCZK37qwtPRLihwTBLEHgXiYf5O9g4kDbmWwT7cCkiY3lKpxvNPEzPDJSz23B5JucFNdutNloKnCAiGMiCmZxnz8WHNlHiR9y/PiMvYsSP3wxhxwtyBeCEDw4ZllItK5liR/sBYLS7Y/IxcHyGwgWyBX5rDxL60ikCzFCfYT4IZk6+oX9sZwKwpWlduTRIacUZUMQP+gdERiQPZCavA/9hjAh6oIlOUL8MKkeGh6xy114P0s1IWogaKgbE2qewTUhfogMIrIDMoJoi657taU3+BC+DEVuHwgWIuoeDg43lPhZuuprS/ygt0I8ELVHhAifKmej/hACbETEuL4v7riRxA+kAmQY5CX2CKGCnIlG+fmXs/WlQFLPssQPEVD4OXkeOs2fAYK3JJjGvlluK2SMED8s8YKYojy+i3w5RDrim195p/Y1wSTiB1uS90b3UeIH22KZKlFm+Fd0El2l/egpmEaJH5YZSu4f2km0FF+5JPKy7mdfLPUi5xTEEO3Af9AO8W30O9gTNk50D4n7o8QPZcXXtSTxQwMAhLVqUTCq+i0DBBF0FXtAiQ5wqmoPz62iDe4zFaPyEyJXnlUcK0aKUdTHqK/LR/xgl2pHakdqR7XJmUQRELrOP92+/RaEAwkrGdjKxoCdf0ujsi1K/Hy1dU+dlCEqiCUmfF6ZaJYz52u5UhisvzVniSWcmJyRX4bJM3US4ocEmXwqnXMsd2ByQZ4iJqzU2V3qxbiOfCJMkijPRDXaHvnd9+ChzetDOUgwiB8SmvLJevKVcJ6NyB351HMc8QMZxWQfMoCEnmBAW5kMc78QP0zirl5vs/8qM/Fm8kbODdpBZAbLuThPFBOTPZ5Tn5A0KOKH/ogcRbLMgaVd5LLgs8aQQERL8E84uWPIFZOmb3HED+Wzxt5FiR+iSYgEkCU9yB4c12/ZZfg8tlvXosTPtRu3LabgTRQNZB2TPuZHkCMsReS96DBfZ+OrSRA86AIkK9eE+CGijMkpukqeGcjRWiTDhrrdhCB+aLerj1Yn35hnTp6+YAnHKPGDb+Ac5WgnxA9f7rrX22/rzjmuCfHDRPvrF/mVkD2Tb/IBQcCSY4mJPkQc5BeJeBsZ8QPxA+nHUlF8CKQJJBcYkOiXaCW+WMZXysBIvrokPiJu30jiB+yov+QLQ+5skBHXbrZPmsMWIX4g+ug/eC7kGMmf+QLbyOiYjXIklxjXwJZ64F8hcel7xM8K8XPi1/N1gg0CGwIc4geiGNnznFjiZ+HK1HFdlPhB51iWSlQaz5SNpatElsURPxAwtI/+AqyJ6CPvGl8h+9cLskoifvBdRIlhnxCmJHrfvf+IjY6D6IeA450QpUQ5xRE/4utYXlZJxA/OuuqNRjx9+rTy91TdDnk+nQ8b/xDJuVbfK0bV20FZHVGMFKOyOpT3fvV1za9zipFilNeumbxCEjAAZTAKOeH7DCaqECoyYGZSyuCUAXX0GafO/FZfDgSBw3UIIsgS7icPDqHw0fsoI/+6kjuD5TdMnCnH12Tkq1eQHUT+MCh3CRd+s0TnwcCgDcdn4sCAm2VScz/50pITEu1DPTq6uu2Ybu/BY/UJCSRRtF7y+15vn02QzL1MBCC4uMbkTwbqLHciSodIGK7JBIl7rt9qt+fIXSP15jlMyt6as7Se2Bri5+DRU7YskwCWk0lybSI7+Ne8ljD3PfvlMIgXIoB4H8t+eNe79ms7tRxGUn8m0kxKuA5RBKZuJBVLj3jfvkO1KBgIGwgAuZ89k1/5hx6Ch3MsrSOBrER2EPFEfiAmzGDFniTWkAHus6LHtEEinGgfkUKUyfJ1skSOdt241ZH6jug7mWQK+cL9tJlJY7TcxSs36pNG8toQFUMZlrZxHwQX5GL0PibJkggXMgOyjn/9GdeNjIzahNcsN0FOYPPPdxfWseW5bCRPR/9Jpi0EG/Ws5UT5zNqMkJngCa6jjx7Ze9H35Wu+mVQvt55C2vAucOQaScRZDiOJuSFEiHbgGnljJOJny07ykzyyERrYLvVAVz9cvMbKxCXVyAXF/egBRIHIjnegM7I0EzmxnIb30RaWQbIcjvphs27dsVfOQyiQFHhkdNTKiXP4A8ES34XsOQ956j6DiAyJEOTrTUzwqSPJuvFBNsrx9XlW79FrsOI5EHUDMf7PfTbH+F3w4h6IWXQuWib6e/XGHXVfiA1iA9EySb/JLyNfk+Od6ACEA5jyHHcOK/6JpP3SH+BPJIfRqXOXLAbuu9BbPrFee/b7FjfpT5A/+gGeXEcnwIFoOiEAOb9i/TYrh+6e+y++rveejXCDHGUTX0JZiB/ef7/vgXn/BXFDGc4lzY+oA+/lfkg7iBlsgghV0UmeARmEjl26WvtYAeVFT7HdL9Z/a5+BjrKcEz/Pc0UHILPO/VbrM4h2kmhO+h7sgLJiQ0T8QMqhW/hafBzvE5ulPeCDP5276Et7jT6T87du36knj8bHcw5/w3JPW+fP1k/wfbFLveJYydDnao6txtbLcVV7hBC6/tHn8Q7qDzD8g1xVW+S50fdX8VveRZvkuKq9YlTsX3fBQzHKH+mB7Kqwm+gzFaNi2IjcovKs4re8S+2oGFZVYBJ9pmJUDBuRW1Se0d/888wElYEieQ4YdEfLpP0eGh6tT9YgJ1h6JO9290Q1CDnAoJZrLEWCgOHd3Mc/p+49HD8YGKjl5nkxaWAyx1eCqBPR1uSsWb72m/qSHCaILCsgEgIChUE2X08hJwWJLhkgywSGyTUDespKzhEiLhiXkBRW/omWyJlo3fjNkiwhVviKiiyvot7kOmGCRZTA5as3622TLyTRbs7TFsgyPm3NUh6ZsDPBZLLGEg0mJodPnLFlacvo6JhNFE1kC5MgnsWEiokzS8r4Z1pwI7cQ16kfRJPbDibGfHmL66fOXrTXyC/BbyYh/AvtLi974/1PLWHjPoNIHiEfWLok4zoSvhK1weRIZMlzqTMTI5ZVSR2T9kR3ED3AfUwUd/5wxN6TNfZ2iRsm+G59s45pL3LhnWyQcHzqPVrHKzdu1ydjTB4lVwrluY8JKTmDoveBn0TlUA7cIFSkXvd67pvv9v5k3pyztF4H5EueE/KzcA95RYiEwGawJ67LxBOdZ4kgtsU5SaBNxBL3CvETrZf7m0kyZdkgZeXaqbOXbGQLtk5CZr4MxzXIFIhZypPknYgJ+lUIJLF79JqvMRGRJ1Fo2Ia0G+KXaDfaKct/eB7ECiQFE11JwExuGrFjlg/yDKkjEXrch84RMcSyI6KhOIdsiOigLJ9il0+Q8zy5nz1+QAgQchNB8HKeOpLjCpsHN57JRhuRM8SUtCdtzxJb2sW9y1ZvsdFE0fJiR1IviC95J3XIs9oEnbty/bb9AiPv/PcHy2ykUpwdCWkKwSCyJfG8RKiwlC1aV35Djq37mjw5NfKCJPWyrIsoTZ7x/sKVdV8AFuDKsjmIkJUbttsvZhF1h3+AmJcIH5Kt4+flq3von8VjcMjMeUGIQMBwTuoWHdehi7yT9q/f+r0lmSiLDxYCkFxVkovn/G9X6wSN6CkRlyzvghT88wv8wWT+snWWTILYwd+RJJ66YB/kPMOG3KT2kGD4e/ov+UIiz8XHUT+J0uMZYEREkJDF2DX1JgG26C/2VMOg2/AFMZ6BH3J935QTP1QwCgrnQm5Ro0GAoTcxGmlP1eRP6PrHPc/FQDHKr5NxMg19TjHKj4srs9B4xD3PfZ/aUX684mQa+pxilB8XV2ah8Yh7nvs+taP8eMXJ1D1XlvhhkM4SCAaYDPIZoLqYyXFfX7+5cavdluPfbc7zjytfnOFe8oTIpE7ukb17L+VdwoDJD0lk+aQ1iSzJr9Nzv99Owpm83em6Z/ON0GYG4eR14F9sW7az2+ZEYcLOl4E4xySRcR0TFfI2MLjuH0hejsRkWtpP3UikKvWmnTyD3BSSh4drtzs6bZtpNwSR4EGkQEfnPVsP6kKeE3JK8Klh6sy/zVLWtufJU9PXP2BzoEh7aDv/HrvlyPvCu6gfuZFcOyK3BG3kutQdLPgNnpAgTHaQB+fAMIoxv11s3bH3o7ExO4kGF+rIRp2FMHDrGXecRfwgT9oTHXuXIX54Jm2ivWzgxcQ5Wj/0kPwutAm9kok4esc58EtqJ2XBhXLIBpmI3iBvItSYdEsdmBSClegahCPRUNzT29tnJ6PkELEYtXVYQohIApsf5V7N3ijLdXRSPl8dbZP8JsqLurG5pBd4WH3sumeXXEl5vjokukvdkRd6gL6hd+gYGzoFYQVBQl2oo7SbPT6AdtJeaTv3E8ng+oeuuz11vRXbkrpQR5Ertk1dsB3O4Q+ITqEsdkJbOM8n4+V+9vgBErFzDZwgsjhPHZE79YdEdesYtQu3XdHjRhM/tr0vlhLSJutbXkQMSd3EjsQ/8Ul1kS3yj/oJuU/2RBXh867frMmF+4VEoQz+HgJNfAGRNegZn0eHALFyfkEkivylLP4PGxO9lCT1kCZig+wFI6mT6+usnbzAjPxuYj+0kbqCpYshvg9bieop7SQiDHkQTSh1l35EZEtd2NA/7IPz0h76K8h+8RkWn7HHdV9OXyD3Y0foPv6Ad1JX2ie2Rf3Ia8c5+iPqJnWmfxFZNAXxQ2VcUKRyofZu5yMCDL3nHW59xXDccyGPQ9c/7nnR+ipG+QbbcTINfU4xyodJVF6h8Yh7XvSdakf5MIuTaehzilE+TKLyCo1H3POi71Q7yodZnEzdc2WJH56lGOXDJCovF4+qjqPvbBU78iF+aBvtccmfssRPVF5V4eI+N/rOVsHIbYN7rPOjZL8wFcSPi40cK0bJGEXtMe53K/EMTUP84Kircm5TAQiKEe2A4pSl6Dkx1ir30bopRvkcQ5XYyLMVo3yYROUlcqxyH32n2lE+zKrERp6tGOXDJCovkWOV++g71Y7yYZaFTRXEj2IUFqMsDH2ut6od+RI/tM8de08H4kftaPraUbMSP1E7ivqNsr99fFXZMtE6qh3V7KhpiB8AqgqUqSJ+aJPbAUWVsMzvsgbhc39c/RQj/w7IR8ZlyyhG/njEyaqs/H3uj3uv2pE/bj4yLltGMfLHI05WZeXvc3/ce9WO/HHLknEVxA+YKUbhMMrC0Od6q9pRHuKHNsrYezoQP2pH/jaErHzsoGyZUHbUzMSPa0dx7S1zrqz8fe6Pq5/2RyOmqYgfQKoClKkkfmiTdEBxSlj0nI/Sly2TVDfFyK8TKit/n/sVIz8skuTkI+OyZZLerXbkh11Z+fvcrxj5YZEkJx8Zly2T9G61Iz/ssuRfFfEDbopRGIyyMPS53qp2lJf4oZ2MvSck0M6Z3DlOVj4yLlsm7r2cUzuafnbU7MSP2BG6l6SXRc6XtRGf+5PqNdPtqOmIH4AKDcpUEz+0KTT546P0ZcskGY1i1Pydj2KkGJW1/6T78adpvkF9XbruaX9U7OMKaTqnY4Z0nUN2SfYs56skfrQ/ysbHByPBqsy+Ve2oCPFDW6cT8aN2NP3sqBWIH/ROx3XputdK47qmJH5CO7dmACS04ZTp+H3vpc5pW8jBtmIUfjKkdpSuv8jH1xbKlEuzIcVIMSqjW0n34k+z9C7kQC6pHiHPZ7VH+6N0W8rComriR31dOj7IJwujENdb1Y6KEj/TZamXi5v6unRbCmEnWc9w8Yg79sWoVYgf2qhjhmS9a6U5bNMSPyiZr+HEGZ17rlkACWk4WU4pxHVXhknHilGyIwiBQdYzknBxzytGilGWHuW57kMqoH+hBgl56la0rGsvScdqR2pHRfUr7r5ms6NGED/YltqR2lGcPWSdC0H8XL3elkmIJ/l/OZ9VzxDX5V1pe7Wj6WFHrUT8oI86rovXu1biGZqa+EHJQji3ZgIklOGE6FyynpHW6bjXFKN4R5Al3xDXXRzSjhUjxSiEvvEM3wkr+hhikBCq3mnPSbMd95rakdpRmh7ludZsdtQo4gd7UjtSO8pjK5QNQvzcaLO65/r0vMd5612kvG+d1I5a345ajfhBN3VcN1nvWolnaHriByUr69yaDZAQhlOkM8l7j2/noxhNdgLIJK+8i5RXjMZKDeSKyDzvPYqRYuTqgPZH1SxrdWWsY4bJfVKW32ok8QNWilF+jLIw9Lnu2knWcTNhFIL4uXztVulJq4+My5bJwsW93kwYJbU7D8lN28oSC0n1CHnexSDrOA2jViR+ZhpGWfhyvZXGdS1B/CDUNMPJAqUZAaHOZZxbSAeW9KwsuUavK0YTB3JJcg15PopB1m/FSDEqq395B3HopPq6cb3T/qh64gedU183rnPII8vuG038KEYT8fHBKAtDn+u8J8/WLHYUivih7dofjeuA9kdT2x+1KvGjdjRuQ8iileyoZYgfBFu0A2pWQMoYjk8HX7YM9cu7KUbjMisrf5/78+JDecVIMfLRraQy+NMield0sJ1Uj5Dni7RH7UjtqIwONpsdTQXxo/3RuA0hizL65Htvq/q6kMQPMtD+qKZ7Oj9qDPGT5OtamfhROxr3361kRy1F/CQZDufTtmYGpKjh+HbyZcqlyTTtWpEJkWLUuM4H7BSjms8oYx++96bZSto1xUgx8tWxaDn8aZpupV0rMiGKvr+K32l1TrumduRnR1NF/ICdYuSHUQi7SrOVtGtTjVFo4oe2qq9r3kgF0cXpjlGrEz9qRzXf3Upz2JYjflCyvB1QswNSxHBCDACyniGOt8heMWref+8ET8VIMcryAXHXy5AK6uuaf6CtGM1MjKaS+EHntD/S/iiuv5FzVRA/6utmpq8TnSqzR3eKbq6vmw7Ej9pRa9lRSxI/KJlrOFnG1wrET17DKeOwfO/NkmvWdcWoWBSPLz6Uy8Ig67pipBjl0TfKliV+0Mk8/+LlrV+R8ll2knVd7UjtKK/eNZsdTTXxg42pHakdJdlRVcSP9ke/V77EsNl8XZKO5TmfNSbIui6+broQP2pHrWNHLUv8oGRiOFkG1irETx7DyeOgipbNkqvPdcWo2oGcDwZZZRQjxSiPjwgxiEMnfcmfPHUrWjbLRnyuqx2pHeXRv2azo2YgfrAztSO1ozg7qpL40f6oWp1rNl8Xp195z/mMCbLK4OvOXrhi3nh/ifnDS7PMstVbTEfn3Ul/6EbnsGs27zR/eW2uvef0+cvm2bNnpck7xSg+gms69keFiZ/nz//PPHn23Dx5xj7/NjTyyATZRsfMyNjj1GeNPn5SqI552sU7grRn5FFme3hPnroVLRuqPUOKUWV4KUbJfiTLL6gd5ffb+BL1dck6p76umE7F9VFPnz03z/9vfEKSNYj2ve4zkIsOtPNOCnzKhxpo024fEjWrTs1C/NAexWhc77Nwy3vd106yyjUao6qJn1B2lBePuPJZsve93miM4trCuWbzdUn1zHPeF4OscmfOX55WxA/tDdEf5cEiqWyW7H2vTzc7Kkz8/P7suXkw9szcHy223Rt6bEJtPUO/m57hJ4nqRtftAAAgAElEQVTP41rRevrel/b+Iu3Mep5vvcqUK1LvpHsUo2J2koVfkryLnFeMFKMsfeN6lm/Kq3tZz/OpU9kyeeucVl7tKIwdDT5+Zp49f17/J9N3kOZTLmsg12rED23OGmwnDY7lfDMRP7RHMaqG/PGxD98yjcSoEcRPCDsSeyqz95W/T7lGYpTU5pDEz3TDaDot9XL1sWx/lKRLec679Sl7PJ3sqDDx8/jpc9M98sx0DD7VTWWgOqA6oDqgOqA6oDoQTAf6Rp+Zp8/HJ79lB27R+9MGcq1I/NC+tMF21oC52Ygf2qMYjet/Fn6+16N2UPZ3ozBqFPFT1o58cUgrVxaT6P2NwiipTaGJn+mEkUv8fLZma8sv9XJ1r0x/lKRLec67dQlxPF3sSIkfHagHG6grCagkqOqA6oDqgOpACB2omvhhIJg0kGtV4oc2JQ22swbMzUj8KEbNT/w0CqNGEj9l7CjLznyu8/7Qm/q6sLYUCp8JxM/qLaaru2cS9tH+qJlz/ETlUrQ/8rGTrDLRuoT4PR3sSIkfJX6U+FEdUB1QHVAdUB1oKh1oBPHDQDBuIBcdaGcNMItcr+JfcBnYMtiWY9ln1bFZiR/FqDknrKJXsq/ajhpN/NCuInaUZWc+10WmofdVY5TUtmbzdUn1zHM+FDYu8UNy586u7kl6F+2PWon4UTsK579D2ZESPzrYb6rBfoh/ivUZGnGgOqA6oDrQ2jrQKOKHgWl0QhQdaOeZEPiWDTWIS5qARCetWfVqZuJHMQo3eUjSlxDnq7SjqSB+kEleO8qyM5/rIbBIekaVGCW1rdl8XVI985xPkm/e81Hih696ZWHUasQPMlE7Ku/DQ9mREj9K/CjxozqgOqA6oDqgOtBUOtBI4oeBqTvYng7ET3SwnTWpaXbiRzEqP3FAB5BjlVtVdjRVxE9eO8qyM5/rVeLDs6vCKKltoSasaXJxiYWkeoQ8n1aXPNfiiJ8sjFqR+KFNrYpREp6takexxA9GmrWNjD0xd4fj/1HsGnpi7g0/sV9/4YstU7ndoy5DU1uHoO0feWq6X3zFLOhzpxAnxaj59VMxUowa7m/U101p3+mFd0mMuoeemM6h+HFE78gTM/b4SeZYJGuskuf6kydP7OCUAWqe+5q57NOnT+1EP6uO5y5eNbMWrDB/eGmWWbJys+no7G5KGcxkjLIwbJbrVWA0ODRk9hw4avXz7299ZHbsOeSln5+s2GjvQa9v3OrwuidOjr52FHdvM56rAqOpbmcrYoTffXPOEqujy9dsNd09vXUdTcJo9cYd5i+vzbX3nDxz0fZZUy173/e3IkZpbUvCKO2eqb4WS/zAYiUxXHJ+cOSRgeCJC6fnc7YDI2NmcGQ0cXv87LlpxDb25JkZfvQ4sR5pdcxzbfTxk4a0B5nxrqHRdPnmqXtS2UbgwzsUo2Q7ScJGzitGxf2I2lExvVNfV1zn1NdN1LkHw+njiKGR8bFIyH9r05717NmzCf9Mypgn9J7BX1o9Ql7jXVnjOv55njW/Rvws/mKTaWu/kzkOjMokZJ3TnjVTMYrKu8jvNLmGvBYao77+B2bXD4frxM+27w/UCc20ei9eualO/LR1dJWyOR87KoJJ9J609oS8FhqjaDvkd7P5OqlXmX0oHIi0fHPOUqujK9ZtM/f7ByboaBxGq77abv78ao34OXbynBkaGsrtq6NtV4yKR1TGYRSVb4jfoTCKJX4ePXqUOUhII356hx6bYWfAFtfgUEbj8xxh5OLqEepcKEB82kMZH4zKts23LiHKKUbFwq9DyN73GYqRYoRPUV9XfICArakdjdvR0MgjczflD6SpIH5mKkatRPzMVIzKjum437e/D1EupK9rBuIHmejYe9x/++qjjhmSxwxZxE+cr2t14kftKL8NhRx7xxI/vCDLubUS8YPTcdfi+TqrPOUa7dh8MMpT/7iyITp+32coRsUcga98Q5RTjBQj/IT6uuRBnI+dqR2N21GzEj8zEaNWI35mIkZx47S853x8VKgyITFqFuIHeWfNj/JiEi0fSv4+zwmJUbQd8pt3+NQlVBne2yoY+RA/UYymA/HTShj56GUUI9H9kPtQdpRI/GSB0mrED+2pkvwJBYiPglFGlKlK5+ZblxDlkJ9iND4hEnyz9iFk7/sMxSg/PuDnK98Q5RQjxQida5X+qJmJH+Q4k8YMrUj8zDSMaG/ZLUQ/4/uMkP1RMxE/YKBjb39dbJX+KI9t+dpAVjlf4oe6SX80XYgftSN/G0JWoewolfhJA6UViR/XcDgOuYUCJMtJyHW37lV1QPKuRuxlgKAY5dPLRmAj71CM8mEjNirya8ReMVKM0LtW6Y+anfiZSf1RqxI/Mwkj6VPK7BvRD8k7QvZHzUb8gIGOvf3621bpj/LYleh42X0e4of6Qf6s2tDaOX6QmStrtaPG2lEm8ZPk3FqV+BHDcT8r5ypg0eOpdGxJGBVti9xX1qHlud8dIPB+YbalLiH2ilH5JSouDoqRn7POYwdly6od+WHi6jHHZeWe537FaByjViB+0I+Z4OtamfiZKRhF/VaR33l8VdmyIX1dMxI/yL+KSWtZuee5PyRGSfrIO/LUqWzZaD2aGaO8xA9tI+JHvurVismdwbeVMPLRx1ayIy/iB4CihtPKxA/tCT2Qm2rHFodR1LDy/vZR9lBlokajGI1PjtJwCyV/n+coRn6YRPHykW2oMoqRYoT+tUp/1CrEz0zoj1qd+JkJGEX7liK/Q/U1Ps8J2R81K/EDBtH5URFc3Ht8ZBuqTEiM3Da4x63SH7l1zjoOJf+ixE8rf9UL2cXJV+0offwayo68iR9AckFpdeKH9oQkf0IB4utM4owmilFSGd/zvnUJUS6u86GeilG6Iwghe99nKEbpWCTZla98Q5RTjBQj9LBV+qNWIn6me380HYif6Y5RUh+T53yIfsb3GSH7o2YmfpC/Oz/Kg0dcWV/5higXEqO4tnCuVfqjpPrHnQ8he55Rlvg58euFlvucO+2Okynn1I6Sx7Ch7CgX8eOCMh2IH9oTilgIBYivM0kyGhejtDI+13zrEqJcUudDPRWjZEcQQva+z1CMknFIsydf+YYopxgpRuhiq/RHrUb8TOf+6Mz5y2bW/BXmDy/NMou/2GTa2u8kDs6T/F0IH+b7DPV1M8vXNTvxg02EmrT62kCIcmpHU2tHZYmf46fOm5GR0dy+OurDW2XMEK132u8Q9uH7jFayo9zEjzi3wZEx0zX0xHQMPp209Q49NsMZiugrzBDl0gChPSGIhWYyGsGIdqUZRda1ELL3fYZiNLWdjw9OipFihM9QXxc2V1bUD8+k/qgViR/wmo4YnbkwfYif6YpRCGLBp68PVSbkmKEViB/0biZjFO3L5LeOGZLHDGWJH3L8DA+PmLJ5axWjZIx8/GFIXyd2E92HwqgQ8UNlhkanD/FDe8oO5EIB4qNglIkqRNzvsh2Qb11ClMsyGsUonnQIIXvfZyhG8RjE2Z57zle+IcopRooRutcq/VGrEj/TsT+aLku9XN+r47rJ/jBEP+P7jJD9UasQP+ifjr0n6l2r9Eeu78g69rWBrHIhiJ+hoSGdw8Z8qTtL9iGvh/R1SboXyo4KEz/TZamXK+Ayg4RQgPgqolvvtOMyHZBvXUKU8zEa2qkYTexQQ8je9xmKUbEIOl/5hiinGClG+MlW6Y9amfiZbv3RdCR+phtGtIdtJo7rWon4makYiX5G963SH0XrnfY7xHiNZ4Qifqirzo90fuSjl0r8RFjCoobTrI4NZ1B0kOCjQKHK+E5Yyzg3xajaUEa3k1Q7Gu+AQtmIz3PUjh7ZwY+riz7HPrINVUYxGseo1Ymf6dQfucTPpytbO8dP1Oa1P2r9/qjViB90UMfeNb3TsXfy2Dsk8TOd+iPXh6sdhbWjwsTPw5HR1Bw/Qy2U48dVsKKG08yOjTYVMZxQEx2f5+SZDClGzT+IU4wUIx+79ymDLuXZ1Nc1b8SP4CgYMU64m5ArsGfod+OOI3x0JVSZmdgfucQPyZ1vd3TmJlFDyd/nOTMRI7Ef2YsdyW+fvY9sQ5UJiVErEj/gMZMwStI/9CCUTvk8J6keSeenEqPQxA9tLEJ0K0bJ5JyPzoX0dUl6GgqjwsQPA7L+oTHTN/zYbv0jtT2/B4YJt08PufcRZKgyeQEpYjihAPFtc5JipJ3P69x86xKinGJUm9wqRs09QMC+FCPFqIzPU1837usYJ/QPj48jZDzB/sHwIzPskH5lZJ733pmIUZT44ate6uvU1+W1Hbd8SDtqVeJHxwzN/0fEVGJUBfFDe/KSP9iqa7tVH1PHvJv2R2EwKkz8xAGWB5Sqlcp9fpHOJ6/htILR0CbFqByr6+pV1nGcjficU4wUoyzdSrquvm58MKF2pHaUZCdZ52eiHcURPzpmCDPQztI3ue4zPogrMxN8XSsTP2pHakdi49F9VcQPOpeH/NE5bLnxUiuNGYISP3mcW1T5q/xdFJA8htMqRqMYlTPuPHqKrItuvgO5PPUpW1btaCKeilFjbKmoDamvaww++BXFaNw3+A62m23MkET8qB2pHRUdO4QcM7Q68aN2pHYUZ0dVEj/oXKv2R2ljCh17l7Ol4MSPr3OLM4CqzpXpfHwNp9kGcWlGoxiVMxpfPc3CIOu6j3PzrUuIcmpH45M7wU4xqt6WRNZF94qRYpTX/81EX5dG/GB7akdqR1NpR9OB+FE7qt6G0NGiYwW5r5G+rmrihzb5kD86hy2nm600ZqiE+PFxbnk7kDLlywLiYzitZjSKUTkj99FHZFx2y+qAfOoRqozaUTyeilG1tlTWhtTXVYsP/kUxmuwbsgbbzTZmyCJ+1I7UjvKOJUKOGaYL8aN2pHbk2lEjiB90rtX6I58xhY69i9lSZcRPlnNzFb/q4xCdT5bhNNsgzsdoFKNiRuOrr74YZJVLc26+dQlRTu1o8uROsFOMqrMlkXHZvWKkGPn6wZno63yIH2xQ7UjtaCrsaGBw0Oz64bD5w0uzzN/f+shs+/6AJZyzxt6LV26y93BfW0dX6QS2ZfshuV/tSO0IO2oU8YPepZE/WXbka/O+5cQOyu7VjvLbUaXED4AmgeKrHCHKhRrEpRlOqxqNYpTfaHx1sqxDc+9XO6oGJ1fGZY8VI8XIxzdof5RMoGKDakdTY0e+xI9iVA0++I6yfZB7/3Szo/4HA+b7/UemDfGjdqR2hM03kvhB55LIH53DltPHVhrXVU78iHNzOySOfQbIocqEBCTJcFrZaBSjcgafpKdRnS/7m4Fc9BlJ767ivNpR+oRV7UjtyMfu1I7UjvAVzTZmcImfD5euNz+fv2kudw4kble6Hk66duv+qGnUdq17aNL70+rrcy3aJt7RqPbwHp865ikTbQ/3NrI9oTC60jlgrnb0mh17fipF/By90Fa6/Xnk71N2umDktjXaJrWjyX6xre+RufvwsTl14Zp5c85Sq9cr1m0z9/sHJs2Po2OGVV9tN39+da69Z8fBk+bSnf7cvkMxmoxJGd8Yytc1wo4qIX6GhkZM38Nhc7dv0HT2Ddmtq3+4fsy5vpEnDdvuDYxOeLfUqez+bv9I/bm8o3ibfjcDo0/M2JNnkww+aSKBjHsHhkzn/XEZl23PdMeo5+GoGX38zDx7/txLzr8/fW76hn837f1j5kbvqLnWM5Jru9DRb0JvF+8MTHhm3jqVKX+5a3DCu+PadrHjgbnaNWDu3B80D4eyJ3hMgPoHR01776C50f3QtPUOm47+sYZt1+8OmNDbje7BCc8M3Z47D8ZM98PHZmjs6SRdjg4QhCgcwCcPDBXbHg6bB0Oj9XsHR8asHWFLjdgK1zulvf2DE+UR1448/vj58+dWFveHfzddA+n6i46H17mH5ua9cb1rBTu60T1g2noemp4HQ2ZoeLKviBLdSX1hFeeT7Ejsqcg++k9rsxE/J8/8Zv4zb7mdTPxjzgoze+sZ8+G+27qpDKZcB+bvbzcrf7plVm39oRTxM2vL6Slvi9qU+hR0YN6+drPyaJfZdOCceeP9JbmIn8/XbTN/enWOveedL/ebD/fcUr1WP+2tA8GJH8iIC+395uDlXrPjbLfZenp8+8Y53n6u1zRq23bm3oR6uHUqeyxt4h1l2rP74n1z/NZDSzI8fppOTDDhQ8b7fusx286My7dsW7hf2sNxmfbkvbcRGG0/22MOXx8w13pqBFDahOHR78/M5e4Rs+1sr1l+uNMw8NAOO7vDnrfvtll6qMNsOXXXnLrVZ8nJpEnS4NCInQDvv9RjNpy8a1b+3Gm+ONJpVv7c1bBtxeE7ppLtSGf9ucHbc7TLfHWy2+y/3G9u9Y6ax0/HCePohPXB4LBhgn302n1z4HJvqe3glT57/6Gr/ebIjYGGbWXrnXS/tIfrce050TZo/TGkUJqvePLsuekcGDM/3xgwW8/0mNXH0/UXHa9E59DlF89uCTs6csesO95p9lzsMb/deRDrK1zyJw2D0NeidpTkw4qcHxsb88pNErpNWXU9cvK8eXPuZ0r86ASiKcc683ZfM++u+K5O/GzffdDLjtwcP0r8ZI/hdJzbWBnN2XzcvDprcS7iZ/GqLeaP/1TiR3W1mK4GJX745+7QlV478VNA8gPy0Q/tZtXRLnOxa8QwmYgb+EH6HLs1oDIuODiDZf/scKc5dXvQPE6IsIJ4u9g1bNl41eP8eiwyW3KwwxIOgzH/5hOxRkjj+hNdBr2Xe3TvL29INv4xgqCUKDZ3wgrpc7qt33x5tFNlXMBfoJfIF1/xKMFXEOlDRODmX+8pOVxAxtg7erz88B1z/EafgQyOEhRC/sT1h1Wdc+0oWp8QvyF/eEdV9Y97bla9Dx4/a16bXVtyoBE//n5Y+6zGyGrurqvmjWXb68QPyZ197EiJn8bgo3ZQTM6zNx0zL/9nUS7iZ+EXm80fX1HiR3WumM4FI36YyJ281WeWHerQSVzBAbAMglcfv2va+x9NGhQ+e/bcnOscssSFKnwxhRe58c84y7fiBsgso/n6dI/qcQk9FjmvPtZpl3NEJx0sUdx2ulsJiZIyZtK84WS36Rl6bHXZnbBCrCF/wUL3xXwGEX+X7sbnpRsee2r2XeozCzQisJSeocdrj3eaW90PJxE/+A7InzhfXdU5146ivivU76dPnza0TVn1VuKnmH9Qv9oYucURP+h0lh0p8dMYfNQOism5CPHz8YrNGvFTcuw8k/U1GPHT3T9kdpy7V2rwN5OBcNv+8Y/tdjIRHdQ+fPTE7Lp4X2UcwOCZqO35rS924E0EBcSQi4keF+vUlhzqMMeu3580mWOp4oojd1TGAXR56aE75tf2wQnEDzl9WEI3X6OpSusYMmTp6uMnk6MwSdC47kR36Xeof7ltPj3YYY5cnewrhLAgR060T6zqdyOIH9rVyKgfkWPSXomfYn2c2m5j5JZE/GTZkRI/jcFH7aCYnJX4KSY31bficoslfooMpkhoSbi7glEcDFd2m052TZos37o3YDac7FIZB5gsI+vNp+5OkjGDCJbHkKfGxUOPi+n14oMdNvdJ1Kdc6Bwyy35S4ieEXn1yoN3mVHMHwIOPnppdF/tUhwP5inUnukxX3+Akf4Gv+Ez1OIieQcYTPRX1FfIb/ZZlXxxXuTWCkOEdkFmNapPIMWn/86+XzL/mLLNLDnSpV7H+LoQ/12fEy94lfv73rflm5w9H6n92pNnRwuVfWZ3+w0uzjOb4iZet6tzUyWX2xqPm5XdqS72Wrd5iOjonz0ui/dEizfETZMwxU/U+GPFDcstNp/Sfz1CKFEf8kKSVnCih3jHTn6PET/WdnRI/1ctYiZ/qZcwyJL5UFyUbSGCuJHE4+X93oTeV+GkU+RMdaCeRJWXO8w7akzZpjepbmd9ZdVXiJ5wez/SxVRXtTyN+0uxIiR/V6yr0MdQzlfhR/QylS77PUeIn0D/CvgL3LafET/XOYPOp7kkTOQYQGvETTvZK/ISTZZLvUOKnehkr8VO9jNFvH+IHH111lEwjiZ+0SSvXQm1K/DRGh5P8tJ4vJ/8s4ifJjpT4KSd31dtq5afET7XyVf2dLF8lfpT4mbERRBA/cRMIJX4mO4qizlOJn3CyTMJAiZ/qZazET/UyRr99iR+Z5IUiRaLPaTTxI+2J64+idSv6W4mfxuhwkp/W8+Xk70P8xNmREj/l5K56W638lPipVr6qv5Plq8SPEj8zmPi5Gxtmr8TPZEdR1Hkq8RNOlkkYKPFTvYyV+Klexuh3HuJHJnkslSpKhiTdNxXEj7SnKvJHiZ/G6HCSn9bz5eTvS/xE7UiJn3JyV72tVn5K/FQrX9XfyfJV4keJnxlN/EQHCfxW4meyoyjqPJX4CSfLJAyU+Klexkr8VC9j9Dsv8SP+OzT5M1XEj7SnCvJHiZ/G6HCSn9bz5eSfh/hx7UiJn3JyV72tVn5K/FQrX9XfyfJV4keJnxlP/LiDBI6V+JnsKIo6TyV+wskyCQMlfqqX8brjXZrcuQF9ZRHiR/x3SPJnKokfaU9o8keJn+r9RJKP1vPlZZ+X+BE7WvT5Bv2qVwN8t+p4MR1X4qeY3FTfistNiZ8mdYia3Lm4Uvs6hOhXveTrKkr8hJO9Ej/hZJmk10r8VC9jJX6qlzH6XZT4YZIHURKK/Jlq4kcmrSHJHyV+GqPDSX5az5eTfxHiBztS4qec3FVvq5WfEj/Vylf1d7J8lfhR4kcjfpwvpzBxOHP7gX6iOZBdKPEz2emG7oiU+Klexiz16uwbmkQs6Ofcw8q+DPETkvxpBuInNPmjxE9YXQ3tx/V56fgUJX50qVe6XFXvplY+SvxMrfxnov4r8RNoghtaeTTip3pnEI34YaDNphE/4WSvxE84WSb5GCV+qpex5PiJRpUo8RNW9mWJn1DkT7MQPyHJHyV+wupqkj/W89XIWYmfauSq+jq1clXiZ2rlPxP1X4kfJX404seJ+FHiJ6wTVuInrDzjOiklfqqXsRA/UWJBiZ+wsg9B/EQx4nferZmIH+ouy5DztsMtr8RPWF2N88V6rjoZK/FTnWxVb6dOtkr8TJ3sZ6reK/GjxI8SP5GJgUb8hHPESvyEk2VSJ6XET/UydokfJtMS+aPET1jZhyJ+XIxc8sP3uNmIH+pdlvxR4iesrib5Yz1fjZyV+KlGrqqvUytXJX6mVv7/P3tn+tdEtu39V+e599x7zj3n9OnB7rZP223b2ioKDgwiiM2gCA6IQyPILJMggkwikJAQEhJCAiEYoP/X9Xx+GzcWRYUMVCW7kvWiPlWpqtSwau1Ve31rrbXzUf8Z/DD4YfDD4McyHWDwY/1LjcGP9TLWgx/piL+eD3A9MBPfoWaCH/mM0in4rCL4kfeTbsFnBj/W24l8dCIydc8Mflh/M6VrmTwPgx/W60zqG87F4MfETquZD49r/FhvDLjGj/UyZvBjvYwZ/FgvYyPwA0ecwY+5sjcb/EhYkir8URX8yPtJB/4w+DFXV83s7/GxEj8bBj+JZcR6ZD8ZMfix3zOzeztj8MPgx7JoD9UbB4Mf6w0ugx/rZczgx3oZxwM/nOplruytAD8SlqQCf1QGP/J+UoU/DH7M1VXV+ze5dn0Mflh/c02ncT8MflivM63XDH4Y/DD44VQvy3SAwY/1LzUGP9bLmMGP9TJG58cq8CNhSbLwR3XwI+8nFfjD4CczOpzpTny+nI/BD+tvLuo6gx/W60zrNYMfBj+WOf2ZVuZUz8cRP9YbXAY/1suYwY/1MmbwY72MYb+tBD8SliQDf+wAfuT9JAt/GPxkRodT7Yfw/sk9FwY/ycmJ9clecmLwY6/nlQvti8EPgx8GPxzxY5kOMPix/qXG4Md6GTP4sV7G6FBZDX4kLEkEf+wCfuT9JAN/GPxkRodzwTFQ8R4Y/LD+qqiXx70mBj+s18fVoVT/z+BHUfBjFI0y6wlSTb/bMic9VeWx+/5GMkZHmodzN88QM/gxT5bx2huDH+tlzODHehlDvzMBfiQsOQr+2An8yPtJBH8Y/GRGh+PZaV5/PPkz+Dme/Fj/1JQfgx81n0sutxcGPwqDH31HjsGPuQaCwY+58jQylAx+rJcxgx/rZczgx3oZw35kCvxIWBIP/tgN/Mj70fcZsF5ODH4yo8NG70Fed3zZM/g5vgxZD9WToRb8lFY1kNO1tG+zpe3Wv4+KKhvor1+fpb98cZpO3Wql88/nOCBAUV9exTbH4EdRZcFw7uiUajtyDH7MNdoMfsyVp5GBY/BjvYwZ/FgvYwY/1ssY9iOT4EfCEiP4o+9oJ4Im6WzHOWTH3qy5vs+gPW6ia+x5PUHfni0RzsS/z5bTmcYRdiYU7R8avWtzfR2Dn8zY4FzXI9XuTw9+XG7PofeC/n3E4IfbwnH0mMGPoi92gB/ZaZPwh8GPuY2dwY+58jQyRAx+rJcxgx/rZczgx3oZw35kGvzgHQtYooc/+o52ImiSznYrwI++zyB/Y57oGhn8ZEbHjd6TvC6x7Bn8JJYR65H9ZKQFPyVVDQTwk+h9xODHfs9ZpbbJ4McG4AedNsAfBj/mNnYGP+bK08iwMfixXsYMfqyXMYMf62UM+5EN8IP3qx7+2B38yD4D5nJi8JMZHTZ6D/K648uewc/xZch6qJ4M9eAHqV6J3kcMftR7jnZqWwx+bAJ+0Hmb84a4uLOJz4vBj/XGk8GP9TIG+OmYWhEOnnRYQ5vb9GTcz6kaJtkLBj/W6zE6TtkCP3i/ajvbsh0lgiXH2W5lxI+EPTJaGL8TXWs+R/xcbnVQ1Ss3/d6/RJfbHMrZzQstC1TasUg1Ax4q7XQpd32ZcHoY/KRug2/1uql20ENFiui01GNck36q7vfQjS4XFbaq1/6s1G8j8JPofZSv4Ad6DBt4u29JORsI3cZ7pLzbJa4R+g2dvtntoqI2p1LXy+DHJMfAbMOgTfWSnWwYkfUAACAASURBVDhE/NTyqF6mNSAGP6l3JFLVcwY/1stYgh84rtJhZfBjrtwZ/Jgrz3h2JJvgR9vZlu0oESw5zvZMgB/ck4Q/ia41n8FPXd8Sede2KLK1Q/WDy3SxRS3nE9fzZj5EsZ1dGpkPKXd98dqzmesZ/KRmg6+1O8kT3KLd3T/p0bCXLr7Ivk7jGnomA+KaNqLbFNyI7U+r6zH64InQs9EVuqKYo2ymHuuPFQ/8HPU+ylfw83DISx+3dym8uU3X29WBKQUvHALwtIz7ac4boXBkT7eh0w5fhFrf+QWwBxzSP/9s/DYEPxI0pDL/4FljKGHiQ20Y9h76QucKRunOoEcJxcmGspp9zsaRwzJG53jcvU6lXfn5Vc1sGV956aT2Sd9+uoG0KUNzfiruUMdwm33fmTyehGtbW1v7cl4OhKnpzTLbCpNsMr4yrax/PGSTx1xhKsnTL/BW6PiDkcOFLaXNSAQuzNqubUfy3FbMMwGXpEwAhRPdQ3vfGzpxpjjvijsDqnROBQiOKOQ1NLtGV1+q9W4q7XDRenRbOMyB9Y9UkYf9Ey34+ecPF+nB05cHolylruvnVyvuCp3GCEinG4bz5p3YMuanjeiO0OlJ1wYVKhD1I8FPbHuX3i6EqXnEJ6Ynb3zUM71Ky2tbAsA+GvHlzXM6c/cVfflTkdDR8uoHtBIIHuhnGL2PLpfX592oXoArY44w7ezsCvm0jakR0Q6dvt3rpin3Bm1u7ZBjZZP6ZoNCr7unV8m1GiUAoOH5kIhos6LflOoxDcGP/EKUqKOg3c7gx1ySx+DHXHkaNQwGP9bLmMGP9TKW4Acd3u3tbdEZZvBjrtwZ/JgrTyN7jHUqgB9tO9L2ccxeziT4wT0l6tflK/gp63TRB2+E1je3aSu2Q55AlCq6XaTK11m0i453e1ES4UhMXGPXZCBvHGNpKxj8JG+DkS4144lQdGtHAE3odmWPO+s6LcEP2ln7+EEdhmN//7WXfGtbNOIIi7QZ+exzeZ4I/Bi9j/IR/FR2u2ktEqNQJEbbO7vk8EYIOpNN3cA7orhjkSYW10U7G5xbOwTl8S554whRIByj7pmgEtFshuAHHZxEnQR9J4jBT/JGORlFZfBjrjyNZM7gx3oZM/ixXsZa8ANnMhqNEoMfc+XO4MdceRrZY6xTBfzIdqTv55j5O9PgJ1G/Ll/Bz5NRn0g3mXJt0Lw3QpHoDjW/8dElXa0R1Nh5Mr5C5V0uujPgEcv43TTqE0611glBrYfqviWqH1qmql433R/27u9/b2iZitudSTvhOK7Tt0nRjzvUNRUQzvy8b1O5uhHx2rRZ6xn8JG+D6/o8FNiIkdsfFVESH2O71D25eshRRu2Rx299Qkd/71va11Ho9O1XSwfq7VxocYjaKtDfWz1ugo8C/cfUOOwVqSyJUiSPAj9wouv6PeQNbtH75Q3RRszSHZWPkwz40b+P8hH8ICIMaV6IyFwKRAUA/73XfQD8wFYCcD4Y8RFAEXRV6uj9ES+VdbkOpMkipRA2uqbfQ7+/WqJHo779/esG9mpjHfUBAOdrGvGJFOFxZ5iuxImqwzWNOsI04QxT9avs1yeKC34SdRL0HSAGP8kb5WSMEIMfc+VpJHMGP9bLmMGP9TLWgx/YZl9wg1O9TErzgu1g8GO9HkPOKoEftCNAVH1fx6zf2QA/uPZ4H/XyEfwgMgLRBYA9qM/wdMQnviq/X9o4VEPi0ZBXpFpNuNbJsxqltY2YiE7AF+hp9wY9GvHuRykAEqEmTyD8UdQt8Ye2yB/+KAATHNuBD2uEwruJHGVhe14tCScHtSLwdXkBNSQ2t6lhML9SeRn8JG+Du6eDIu0EkWF3+z1C76Cz2roocGgRjYC0K9TWAfREapgvtCX2n/dF6PmYf/8/AKH9c2tCp9E+VkJbFFiPiTQW6DYcW4AbPTDV9r0l+IEDP/g+KJxtONxwhhuHvKItoj7K6/nQAeikPUauLScLfrTvo3wDPwA0Tn9UQO87/R5qHfOLdC/YWK0+oPhz50SANrZ2aMaNfvDWvn7CFgsdHfDsA9CqHjc5fJvkCkRFLR7sA/2HTXcHotQxHTgS0iMleNYTEfsfZY8FkOp204MhrxLpXkeCHyhaMrnh2I/BT/JGWauo8ZYZ/JgrTyM5M/ixXsYMfqyXsRH4QcTP41HvgZeiURvgdck9HwY/ycnpuPqkGviRne1k+0HYP9kpW+AH12d0P/kIfmr6lkSnH53826/cdO2lkxBNAwcYTqwWzAD8IO1iZ3eXZjwb9GxshR689lLPTJCWg1vCYWh8vWdzJfjB/ihgOzQXEl+Gn75dofHFsHAU4ITgC3SiNjOOuha7u/R8dIUKWh30bNQnnHoUeU7031zazuAnORuMelALK5vC4a3u20vvQjQCaqM8GPoMCyX4gY6iaDhAT9tkgB4Oe6lzelU42gA6gD9oBxL8YH84xqPOMDUjQmLUR8MLIbHuw3JEjGoUL0pCgh/oM1K6AJswAWrC4d7d3aXFQJRq+vKnlmkq4Ee+j/IN/Nwf8gqYM7ccEbWqStoXRWouIGGJpsizBD/QURTqH3OGhX4iKgcwEWBn1hsRwBG2UYIf7I9C6N0zq0L/8RFgdnmvZk/X9GpcmAkQj2tYDm0pM3JeMjY/IfiJ10nQd24Y/CRnlJN5KNiHwY+58jSSO4Mf62XM4Md6GccDP1zc2TzZM/gxT5ZGtliuUxH8yM62ESzR94NS+Z1N8IPr1N9PPoKf9smAcFh7Zlb3CzqjICeKdPZOrx6IOhARP3/+SS5/9EAdB6R1PR31iYieqaUNAY8k+EEkUd/74H7UBPQcqWJvnWEBhOA4HxUhgePAgUF0kUwPw5DXcJpRCBfHkm0n1+cMfpKzwc/HVvbAzEKIMLIX9OLRay9txXZp0rW+n2IowQ9G/QJ0QWqi1CHoJOrtIEoIkBN6JsEPIoSG5kNU0rG4v//VNicNflgTzjjOjzYhj6WdS/AjarT4NkUEEaKIMI04wyLNy+HfJKSdaf+Xy8upgh/Y7sKb+VXcGQAH9aoej/j2R6cTQHxnl56/+VwIXIIfpDYCsAOCSt1BtFvvzCqthmMC1mNfCX5gX5+9XTlg71GwGUAS25CuawQzAX5gn52B6P555PlUnicNfvSdBH0Hh8FPckY5WWVg8GOuPI3kzuDHehkz+LFexgx+rJcxgx/rZQwbrSr4QX8HaV+J+kH6ftFRv1UAP9r7yTfwA6gCUIOvwKgFITv2qBuxEt4Sof6lnZ+LPMtUL6PRZEo7F2nKtS4c6Dt9HpLgB5AIqQn6/gccGJx36MPakbVMWt6uiCijUU10D+qyDM+FhMPRPnGwQK7+PLn0m8FPYhuM1MV3LhSa3RFDuCPFBDpw/aVT6CacVNQ+wToJfgByMOKQXlfg1GI9oBAi2yT4QYqXjGzT/gd1hRAhhDom2pQy7T4S/BgVd4ZeP3vrE2AVjv6NPBktMx3wk08RPxjBcCX8UUBBLWys7/cQAA/SFCU8l+AHsKZp+HDEO6I4F/2bIjW3stu1D34ARI0gesdEQKTZto6t7KeHafVZRPxsbpNnbYuK4sBO7f6qLCcFftB5QQdB20nQd2gY/CQ2yqk8dAY/5srTSPYMfqyXMYMf62XM4Md6GTP4sV7GsNEqgx/0ecyEP9kGP/p+Xb6Bn8dv9qJ0MFLWuGud+ufXxDS0EBI1dOAQo8izdJ73wM8uPRw67FAgGgf1JuD4oo6DBD9z3gjd+uRoa/sgDYMeMWw1vlqXaSIntPvAmVnwRQT4wZdneX2DCyExZDBSd3B81Yae196DmcsMfhLb4Nq+JfKGtkR0z5grvK8z0B2kHCK6p3dq9QD4QdHwtvHDQ2MDxCD1ZXX9o0iXkeAHNVGQIql/tuWdLnHuOc9eLSr9dvw+CvxgO9oRIocARdH2jI6Ra+sY/Byt111Tq6Kw/SpAuSO0r9OvHSFRnwowU8J1CX5ghwEi9bqCKB6kiyG9sLrXvQ9+ANKL2z9HsMn/IZoI7QNtRr4H5DbM0ffGsZD6WD9w+HxyX6RK3uxy0b3BZVEEXa7P1jxp8CM7CfEKAzL4OVp5U33ADH7MlaeR/Bn8WC9jBj/Wy5jBj/UyZvBjvYxho1UHP2bCHxXAj7Zfl0/gB04taj4gMgLpLLLWiJxjFC2AHxQILWz7lC7zqbizfhhq6C0ig1Dg2bu2RXV9S/vgB7WDUFxX3/9o/hTxMzh7MA1Mux8ciWhsh1AYWl6XnMP5hiO/uhHLmyLPDH4S22CkKcIRNtJp6A4ibVCPCqlY2oifNwvhQzqK6ArUkYJOA2ZK8AMog1HqtLqKZeh5YP0jAWamE/GDY6DGFlIjAWNfvDsMo/TnzIXfDH7i6zX0Aal/sNOwydL+yTkiKgHAAW6gCxL8YNj3x8OHwSEifvAf2GpEEslUL4zoCDCj1ycUR0ebQeSlEfhBzTXUuEJKL2q24fz6Y+A3ookANDHse60BkDL6j5XrUgI/2k4ClrUTg5/4ypvOA2TwY648jZ4Bgx/rZczgx3oZM/ixXsYMfqyXMWy0HcAP+j1mRP6oAn5kv669b5ROnCmmv3xxmv59tpzONI4YdmKN3qV2W4dRhBwrm2JYYHTcf+9dOjChuCwcXjgciG6Akyxr/KAIaJUmiqewzUF/jK2IYroT7g1CvRMZ8YNaQejwa78mYySld64wBddj1IRh4z+l4+hlOLqwV9QZw3Drrw/OA+oSwSlB4Wj9f3PxN4Ofo21wWYeLPnyKPngyunJIZ6BDs0sbopBz4+BeaiN0EVFAiJCQURPQHUCeR8Ne0QaQDlnWqanxs7NLIwuhA5ELcNCRFrYe3Rb1rvB/Ix1MFPGDWioLvk0xYhjOb3SMXFvH4Ce+XmOkN0AcRJHVD3oO6fTdAY+w0dBfRJxJ8ANoP+XeOJAuCJDZPxsUdhcFm5EWKcEPQGPLmJ/wQUDqV82rJQGJANiRHilTgeV2zLEOxwVICm/GqPd98FDKGLa/mgmK9wM+NuC39hjZWE4Z/MhOgj7yh8FPfOVN58Ey+DFXnkbPgMGP9TJm8GO9jBn8WC9jBj/Wyxg22i7gxwz4oxL4wf2IiJ9f8wP8PB/3i/D8obn4NXZ6Z4IiZebVdFB87QX4wegvCP0XIyBNBAiRO4NzIeGootgynBPosQQ/+BqNqBwUc37+doVax/00vbTnJMBRxn5GfROsh8MB8KQtUCr3hcOBUcgQfeFeje7XbZHbc3HO4OdoGyzqRq1/JEQvxBst7smIT4AeDMcOHZLgB4ASQ1p3zwTpyRufcJABOFHPB2BUO6oXCjMjtWXSvUEY/QgTUiUBfeAAo/i4kZMMnZTgB4456lYB7sgJx5lfiQi9ByyNFzWUa7rN4Ce+XgNqA24DrBvBREThIMJMRuVI8IPR4cKb2wL+QK8wMh3qRsGmTns26FbvXp0rCX4wqh1qWQ18WBP63zEZEB8G0C5eTgQMzy31ENeADwXvPRsi2m52OUIAS9Drl5MBAWNxbNTe+v2VMUCSx8rUPC3wYwR/GPzEV950HiaDH3PlafQMGPxYL2MGP9bLmMGP9TJm8GO9jGGj7QR+jgt/lAQ/eRDxgxD/Sfe6iHJ4NOI9MGS7tp+A4p+ANhhBC06oLO48ubguRkcCdMGEr8UI4UeBaOmcSPCD7Sh2ixo9WIbDjFQb1E652e2Ke+72dwERmaEt6qy9NizjmpCKsxHdJoxOpt+ea78Z/MS3wYi4GVsMi6Glm44YKQ77IToC8LK6d0mAH8DJpUCU3n0aVWt1PSZGMpr1bIiINFlDCrqN0begb9iG+lJwaKHTSEeEk/77qyXDlBipixL8SMcc1yKnwPpeW0O6WjxwJY+TS3MGP8Z6jYgbwMfl1ajQUyOYiHWIVMOIX4h2g03snAgIAAObDD2F3QXwgZ4JHe37rKMS/CAlF3Ya7QD7QccXVzap5Z1fjIxndG6tDgL+ACa1TwUIabiiTXzS7UV/lDqmAsLeG6WLaY+TqeW0wY8e/jD4MVbedB8kgx9z5Wn0HBj8WC9jBj/Wy5jBj/UyZvBjvYxho+0Gfo4Dfxj8ZEan9O/+K21Oqun3UO2A58jCyAUtDqob9NC9TyMaSfDTM7kqwvmxHn0IzBHlgKgIeS4JflBrpWnYJ4anRp8O++PccKaPciYqe9zUOOw9lDYgj485nAjUjsBxK3r2vmBrt+faMoOf+O0FUKa6f4nqh5YJfa6jnj30D7qFQsqI+EEEj4zUgb5DR+tfL1NFt3sfZOJ4EvzAqUUUBdKy6j+1gboBj0hn1LYBo2uAzkNncQ79BD2u7vfkTaSPlA+DH2O9hn7eHVqm6r6lA3oo5Sbn0EvYYOgu0mwBfqCjL8b8AsZIu3tn0EMYhUtrdyX4QQQcalThnYC2Ad1ERCXSweR5Es1xXKT9ol3Ic6Id4beEp4mOkantxwI/Ev5gtC8GP8bKm+6DhOIgrFg7uYJRgvKme0z+38FnhMatla9cHnevU6lBoS+W30H5JSMPBj+pyywZuWr3YfBjvYwZ/FgvY+i0HcFPuvCHwU9mdEprK4+zLMEPau4kOo4W/DQMLifcP9HxePsCMfgxt73AUZXgZ9K1kVBHteAHtalYJ815Hgx+zJEj9FGmegH8PBtNrKNa8APQmS86fWzwI+HP3HKIavvzR3BWKwiDH/OMQbxnxeDHehkD/HRMrRwoBA+bMTTnp+KOo79MxXtuvP7gc2Pwc1AeVugHgx/rZYznZlfwkw78YfCTGZ0yyx4w+Mnu82LwY678GfyYK8907QyDH/OeA4Of5GRpCvhBp4cjfpITeLLGgcGPufI0kjuDH+tlDPDTOe0nRAXCTsiJwY95smfwY54sjewE1jH4sV7GkLOdwU+q8IfBT2Z0Kl6bTnU9g5/sPi8GP+bKn8GPufJM1Z7I/Rn8mPccGPwkJ0sGPy3JCUo20kzNGfxY/1wY/FgvY5nqpR/+mMGPebJn8GOeLOPZdwY/1ssYsrc7+EkF/jD4yYxOxWvTqa5H/YYK1GtoTxypivo7qCeBIrWp1IlI9ZryaX8GP+a3l4LWPZ2GribSJYCiax1OKu/GsNmJ20Ci4/H2vefJ4Mc8vYaOwj4nq6NIX0RZj5LORUJbyBedZPDD4CdvlF3fqBn8mGdw9bKVvyX40TtEDH7Mkz2DH/NkKfVWP2fwY72MIfNcAD96W4ffRhODn8zolL4t8297yp3Bjz2fG7e3o58bg5+j5cP6Y758GPww+GHwoyuizcWdzTM0WvCjdYgY/JgnYwY/5skyXieDwY/1MobscwX8aG2dEfTBOgY/mdGpeG2a19tL/gx+7PW8uH0l97wY/CQnJ9Yn8+TE4IfBD4MfBj+W6YAe/EiH6PV8gIs7m2R7GPyY90KM17lg8GO9jCH7hyMew+gY2A056mIm5oAy8YBNKuv1Ka7a/zL4yYxOxWvTvN5e8mfwY6/nxe0ruefF4Cc5ObE+mScnBj8mOV9mKyXX+DFPyeM9G071sl7GRuAHzs/wwiqDH5NsD4Mf6/WYwY/1MoadBvjRF4KXsCQTwEeewyzwg2uPB38Y/GRGp+K9/3m9veTP4Mdez4vbV3LPi8FPcnJifTJPTgx+THK+zFZKBj/mKXm8Z8Pgx3oZxwM/nOplnuwZ/Jgny3i2gsGP9TKG7JHqBfBjBH8klMnE3EzwEw/+MPjJjE7Fa9O83l7yZ/Bjr+fF7Su558XgJzk5sT6ZJycGPwx+LEvzUb2hMvgxz5DEe9YMfqyXMYMf62XM4Md6GcOGyBo/RvAnE8BHnsNs8GMEfxj8ZEan4r2beL295M/gx17Pi9tXcs+LwU9ycmJ9Mk9ODH4Y/DD44Ro/lukAgx/zjHW8Fx+DH+tlzODHehlDvyX4ASjRwx8JZTIxtwL86OEPg5/M6FQ8u8nr7SV/Pfh5+Kxd1OFK1I6uVtylv3xxWkynG4Yt6+uwPtlLn1R5Xgx+WG8yrYsMfhj85O2LkCN+rDe4DH6slzGDH+tlzODHehmj86MFP3r4kwngI89hFfjRwp9EDqu8FrPmOPdRU3vfGzpxplg4yP8+W05nGkfytm+Q6Y44ny+xfdGDn0fP2gUcTtSOGPwkli3rX/ZkxOAne7LPV71n8MPgJ287dwx+rDe4DH6slzGDH+tlzODHehmjE6YHP1r4YxYASeY4VoIfCX9isVhGRyo7CvpgG4OfzOh4vjobx71vPfh58PSlKJyeqB0x+GG9Pq7uWfl/Bj+sn1bql9GxGfww+GHww6lelukAgx/rX2oMfqyXMYMf62WMDooR+JHwZ2trK2OgxGrwI+HPzs5Oxu6JwU9mdNioo83rji97I/CTTDti8HN82bP+WidDBj/WyZb11li2huAHnZ5UJ8fKBtUNLlnmQObbA7z32nPoGSysrFPdAMvYLF1oGF4+JGPo/ahzjUo6F1mXTYCiAD9dM4FDch5xBHk4dxPki7Zw5aXjkIz94Sg1v/WxDpsk4+p+N3mCkTh6zLbCLJv8aNR7SMayLwInb3t7O+52uZ9d5hjmHRMiFlS45s6BMTrxK6d6maXLfBxjpyNduejBT9PzDtFuErWjK+V3uMaPSe/BdJ8d/y9+WxDg51SR0NGy243k8foSvg8KK+7RX78+K/5z6lYrnX8+x3091vGkdcAQ/CQTCq3fxxWM0t0hT9InZkMQ3xBANncH3Yfy8Wc9Qarpd7OMTWrg9UNLh2QM52J4PsBQwiQZa6NRtDZjzBVmuGaSjAF+2id9Bwpdhja36cm4n22FSTL+vc9FiyuhQ/ZiaM7PtsIkGeO993jMFzcCRkaswNGTy1bNAWK09sqKZZwD14/7MRq+3ux7S3QPPa8n6NuzJVzjx0R95n7u0f3cVOSjBT//+qGAml90izaaqB0VltUy+GGdVrYvdOZOL335CfyUVDWQ03XYL9G/j4oqGxj8sE6nrdMMfhRVHgY/5nUY4nUu6oc8hg4Egx/zZM/gxzxZxtNjBj/Wy5jBj/Uyhn4nA34kLDEbjGiPp+9oJ4Im6WyXDqu8H6vhT6JrZPCTGR2PZ8d5/dHyTwR+4rUjBj9Hy5X1LrvyYfCTXfnno/4z+GHwkzY1tHuDAfgx6mwz+DHPEDP4MU+W8dobgx/rZczgx3oZQ7+TBT/SydPCGjOXMw1+5P0YvY/Mui8GP5nR4Xh2mtcfT/7JgB+jdsTg53hyZ721Vn4MfqyVL+vvYfky+GHwk8fgZ8kwzJ7Bz2FDka7xZPBjnizjPQMGP9bLmMGP9TKGfqcCfgBJrEr7ygb4MXJazYI+OA6Dn8zocDw7zeuPJ/9kwY++HTH4OZ7cWW+tlR+DH2vly/p7WL4MfloW6ELLAhW3O6m4XZ0inZzqdVhZzW7AssaPvsaCiuCnsM1Bt3rcdKnVcQjU3Rn0UGmHOrqrfU4MfqzXYwY/1suYwY/1MobdSAX8wMGzCv5kC/zonVb8Nmti8JMZHda+/3jZPJmnAn607YjBj3nPgPXZfFky+DFfpqynR8s0r8HP1TancKYfj/pocDZIT0bUGQXHLuCnqM0hoMP1diddbPkMJap63dQ47KX7w166N7RMZR2uQ8Ai241Tgh9tJwHLqoGf8i4XtU0EaNazQRXdbgEqpewKXjjIG9yiN/Mhqh9cJvyW21SY2w38FLU5qaLbJWQJ3cVU2++hm13q6a98vqqDn4IWxwGdldcdbw4QX9LuVApmqg5+yrpcVNXjJgDieHK1w/pUwQ/stRXwJ5vgR/8+wm8zJgY/R3eG7dA+8vkaUwU/sh0V3ajj4s6KZjbksz7Le2fww3ZZ6kKm5nkJfuDENb72Uv+HNXq/tEGR6A6tR7fpxZg6o+CoDn4QeVLTv0Sd06s06gjT0FyI7r/2EhxnAJ+ZpQ0KrscouBGjldAWjS6E6Fa3WiOSacGP7CTAiVAJ/AD0jMyHaCO6TYHwRwJQg2MsDcTlVgc5/ZsU/bgjAFDTG59S8Mcu4AfADLLtml6lSde6kCV0F5PLHxXrmt+uUFmnegBIZfBzo8tFz8ZWqK7fcyhaDVFqmLT6DL0uaHVQz/QqDX5YU0aXq/vcyo7qBd3tnl6lcWdYgGFpG4QsXzgEdL9iEyCUDviB7TYb/mQb/GjfR1g2Y2Lw8/m9qW0jvGwPuaQDftBuGPzY4/nmaztk8MP6mWndzxvwg+geOB8tE36acK2TP7RFu7t/CsfugzdCbZMB8cU00w8g3vlUBj9wNB4Me2neG6FQZA/sAJwtB7eoe2aVfKEtIdfZ5QiNu9bJubJJW7EdGnOEqcggVSmeDKxerwc/srOtCviBUwzos7oeown3Oj0Z9QmwppdLXZ+HOqZXBaxYCX0Ueq7fJ1u/7QB+oM8AwYCV0FPAnkX/Js16IvTesyHAz+bWDm1Ed2jMGRaAKFvyNDqvyuDn4WuvAL8Ds2uEqEB5/ZD54Nwa9c0EDwGhy20O8qxuUWgzRogolP/J5hzgxx047ICrMJx7YauDZpY3BBiu7ls6IK+KLhe9WQhR07CXLmgiMrMpy6POnS74ge02E/6oAH7k+wj3heXjTgx+2ME4qu2pvi1d8MOpXqz3Kus2gx/Wz0zrZ06DHzgXld1uevzGR4NzIQEgEBkR3twW0Ccc2abmUZ9SwEcqgMrgB87EjGeD/KGP1Ps+SA+HvdQ6ESDv2hZFtnYITvLLiYCI8EHdpLq+Jfrg2RBRK42DywccE3m/2ZgbgR90rkcWVqm447OTmo1rwzn/GPfTWiRG71zrIiVRm0qnvyZETTx54xNwAl/+9duz9dsO4AdAeMG3KSDm1NIGPXu7F6EC24Hpbr+HWicD5PBFaGd3l6bdG0qlIdkR/ADoBCMxAXgQJajVTxXBj0z10hcTVh38NAwsC3s8+F6d6Cnts9YvHwf8wHabBX9UAT+4J30NunQBEIMfdjD07c1Ovxn8sP7aSV+TvVYGP6zXyeqKWfvlyT8YGwAAIABJREFUJPgp6VikhqFl6pgOCECBiAl8yUctlHeLYWp956fYzi65A9EDDodZQjXjOCqDHzjGiIoYmlsTRbFxv4BsnZMBkXI0txw58HUf2xsGl2l7Z5eG50LKyDwe+EHET0lndoslwxkG8FnbiInoKsg3kV5daXOKKCw41KgLlGj/TGxXHfwgqgqgDPrcNxsUqTLxAFtN35KQ78fYLr18p05aKIMf6zsOEvzowQKDH3Nlf1zwYxb8UQn8mAV/GPyYq6uZeH/yOT4/MwY/n2XBepE7smDwkzvP0i7tMufAT8Owl8YWw+QJRsWXTjh0SEkCBAIMutHpIqR9AQQx+EmvwaGuDyJ7no+v0CUNkEA0D1K+hj+ECOkH2kYABxvREu89kQPrtftkevko8JPtiJ/KLjc5VjaF7lb2JFcbCXBo6H1QPJsHQ14l5Kw6+Gl+46PAeowmXRt0s9t1qN6MVicRVVXb5yF/+CO5V6NUpshIagx+0rNj2mebaFmCHz1YYPBjruzNAD/6Z4TfqU6qgR9c/3Ejfxj8mKuriWwGbzdX3gx+zJUn66ca8mTwo8ZzyKf2kFPgB47vsCNEOzu7hE4OCuJOOMNUP3iwsCgiIxj8pN/YJPh5OrZyoPhqfb9HpNEx+ElfttL4/N7rpkV/VKQVJRu9A/3vnQoI8HN/kMGPlOVR84G5NQpHYiLlEwXLj9oX27DP6HxIyPihInCNwc/x21ui564FP1qwwODHXNmbBX60zyhV6IP9VQQ/uK7jwB8GP+bqaiKbwdvNlTeDH3PlyfqphjwZ/KjxHPKpPeQU+EGKBgrgfvBEhDOHWjMoNDzuClPLmJ9u97gFqGDwc7yGxuDnePJLxsCgNtKsNyKi0m6/Si7iB1ACoBPRWHf6PAkhRjLXcdx9VI74AShD0Wykgtb0Jycv/Kdt3C9SGlUZBZDBj/XtUQ9+JFgYVqAemLa4c92AR0RbYh2mRk2NH6SPyvVyjlEBj9vGzfy/meBHPiN9XSasTzSpCn5w3enCHwY/1tsJM9sCH+vg82Lwc1AerB+5IQ8GP7nxHO3UHnMK/EDwgDq3et30YMQratBgdBhE94QwLHMgSgMf1sQIJ7FtrvGTrqJqwQ+KtEonokET8YMRfOR6zDnVKzXjBojZ/2FNFBxunwwYjualfX5IQ6rudYuIK0QKIZ1Ruz1byyqDH+jltOfTaEhJgp+LLxz0fHSForEdAYCyJVftee0Cfso6XPs2AXZaFncu7ljcX49nAtuh2qheRuAHTvjr+QDh+rXPI9PLkBlG9cJ7zuHfFMv4jcnpj4oIWKQnznj31sltmL9zr4v6a5m+5njnMxv84Bnp6zIlgj7YrjL4wfWlA38Y/KT2Do6no7w+O3Jk8JMdubO+Wyt3Bj/Wypf197B8cw78yIcMxxkdcgxvi9GRJl3rIvUrurUjanTs7u4Shr6uH0juS788bqbmKhd3luBnObRFc77I/oS6JyiaLeoqrXxej33mV/ZGROIaP4cbYTydwmhSGCltJbQlRuyCgxdvX6SDLfgi9HF7l1SJRMG12gX83B08GCkBWRtNABYMfpLXYTmc++pGjBb8m/u2AjYBtgKjLM7r1sNWYL1Kw7nHAz8qpXolcuyNtkPOiGCLZ1cyvd4K8JMO/FEd/KQDf4yev3Zdz+sJ+vZsCf3li9P077PldKZxRBm9yLQe8vmSt/GZkhWDH/WeSaaefS6fh8EP63Wm9TtnwY9WkAhnv9HlorpBD/W9D5LLHyWAH0T9IBVs1Bmm5hEfXX+pRpQErt0O4EfbaUxmmYs7p2bgAB7a3vnFyF5wnAdn1wi1fwAfEOEDPUGxcgzjPg9HenuXJhbX6apCemwH8INRujxrWyJaAhETiSaAOI74SU6XJfhJxj7o92Hwk5yML7Q4RKriozc+SnW6P+wV0Zja92U2l60CP6nCHzuAn1Thj7596X8z+EmuvWWzfeTzuRn8sH7mov6nA36u3mqkv351VkD6U7da6fzzOYb0n3yiXNQRs+8pL8CPVmjX2p1U0eMmDEk+MheicGRbOMyB8Ed69sanTONRGfyUdroIERKNw96UpobXXiF77fPI5rLKo3pJuQDitE8ECPqJ2j2+8Ba5g1F66wzTe29EAItQJEbbO7v0+sMalXWqMYz7/vW3O6lnNiiKrWsdjTFXmEo6s58ig1Qv7XUlu8zgJ7lOKPS3tj91WwHbAhuDyE2pS9mcqxzxA7kABENW6UzZlKv+3FaCn1Tgj13ATyrwJ5FtGx6bplMXyjjihx0IJWyu3jYUPJ+h36qeCv381w8F1PyiW7y70VbRDuJNhWW14j+IZDvdMKzkvenvlX8n17+wu5xQOuBCQz99c/qq0NGSqgZyupYO6bL+fVRW/ZD+55tz4j8MfvJDV8zU9bwDP1J4iAJCLQnUA+qeXKXZpQ1qHVMn5N0ISsx6glTTn1yhX3mfVs3TdTSsup50jmskY3QehkXdDnWivxDhg5TFgdmgSE9E5BRSujAXqTLLEVHUHPqcjhys/I/KET/QYbT/+qHllCdED6oib5Vr/EC30rUVqkAf3IPq4MfKNpzJY1sNfmDfk6n5o+9oJ4Im6WxP5LDGc2SN1idT8yfRNY5PztIvl24KZ+L7i5XU2DNDQ84NeuOO8MQyyLoODMwFqLKhRehnuuDndusE9c6FaISfZ9afJ9uVCI0uRai5Z5y+PlWYEviputtMfzuxB36u1ndQ+1SAdZrbdNJtOm/Bj7Yzi9FOSjoW6YpCKTL1Qx7RQdV28lQCP1r52XXZLuAH8oXzjOiJG90uqulfomejProz4KGKXrfQ3WSGIs/Gc1IZ/Ei5IlUm9Umdrwyqg59s6J3Z52Twkxl9zwT4SQb+2A384J4SwZ9E4Ofd1Ac6c7lCOCDnr96mwclFcoRi5Axt88QyyLoOTHtCVH2/dQ/8nLxIzX90pRzx0zPupIUg6zS3aXVs2svBSfrqx8spgZ/b9Z/Bz6MX/fTBH816+2SdUkenEj0LBj+KhvUi1UvfkWPwY67zYSfwo3VkAYEAegArtOtVXFYd/Kgos1SvicGPuXbBSP4MfqyXMeSeKfCTCP7YEfwkgj+pgJ9zRVX0etrFzgQDH2V0QAt+/nnyAjU9a08Z/PRPLSpzP4mcM95uH0f6OM9KC35KbzcmleqlBT9Nrf20sLrFes22OmkdYPCjMPjRd+QY/JjrfNgV/Bg5pqquY/Bjrs4aPWcGP9bLmMGP9TLONPg5Cv7YFfzo+wz4LadUwc8Qg5+kO9LHcfz4v8k5+AfAz/cMflhvktMb1eV0APxUNZDb49232dJ2699HWvCDiJ+FIIMf1Z+zStfH4Edx8CM7cpgz+DHX+WDwY648jaAEgx/rZczgx3oZM/ixXsbZAD94rxrV/NF3tBNBk3S24xyyY2/2HNHC+mMmukZtqhcifhj85IZjqZLDcZxrYfDD+ngc/VH1v1rwg+LOLrdHZHto7bf+fcTgh9vCcfSZwY8NwA8MADpyDH7MdT4Y/JgrTwY/1svTSMYMfqyXO4Mf62WcLfCD96se/ug72omgSTrbrQQ/ss+gdR4SXSODH3YmjuNMWP1fBj+sn1brWDaOrwc/GNUr0fuIwQ+3hePoal6CHxRzvtqm3ghIWqfOaDj3eV9YmVG9tNdqtIyRqFSXMYMf6505jvixXsYAPx3TfvGFXzqsoc1tejKuziiFRjZCrrODrcgF8GMHOWeyxo8Wiujhj2xHiWDJcbZbDX708CfRtTL4YWfiOM6E1f9l8MP6abWOZeP4RuAn0fuIwQ+3hePoqiH4QYck1cmxskF1g0tKFptFMdyyjkUanlvbHw57988/aSkQpb7pIF1TaDQv6Qzde+059AwWVtYJw0jLfVSbw7HomAiQ0xelnZ1d2t39k1bXYzThDNPNTpcYmUqla24YXj4kY+j9qHONSjoXlZUz9BmFnS++cIghxTGsOJaxXiX54lowUl7XTOCQnEccQSruUBu+Qp72kLFDyBhRgZigw/5wlJrf+pTTB6mfkG3L6Ao5fZu0s7tnKyJbO/TBE6FHQ17ldLm6302eYCSOHqtpKyDjGx2LNDofIn/oo7DHeO+5/FHqnVwVowTK56HK/NGo95CMU+2LHGf/WCwm2pBsR8c5lir/3d7e3ofCR13T6Pg0nb5ULkaX4VQvdiyO41hY8V89+HnQ3JaUrbhSfkfo9F++OE1c3Jn12grdPM4xteCn7HYjeby+fb2O9z6qutO0P5w71/hhnU5V/wzBD8LM9F/DEv3+4Fmj2n63co4GOr8Ng8vkW9ui2M4ufdzeJedKlJaDW7QV2xWAYtEfpYoul1LX3jDsFSMWaL/SuYJRuqMo+LnRuUjT7g3aiu1QbHuXfKEtcvg2xe/tnV1a39ymptdqOXSNI4dlDHmPu9epVDF9kI5ZwQsHPRzy0ox7gzai2/tOszsQFdBNtWHdAX7aJ32H7MnQnF9Z8HOxxSHswdhCiPzhjwdkDFBc3O5UCkzIqKqdnZ393PDlQJia3iwrZdO0Ojw4u0bRjzvCJocisQO2Anb65bhfQDf5n2zPawY8tLL+8ZBNHnOFqaRTrXcHZIX33v1BLwXCH/ffe7DHeO/hHQgZz3sjdFMxO/dgxHPIVsi+h/ZdaOWyth3Jc1sxB4Sx8j60x8a5EvXrhkcn6HQBg59UO9G8f2YcLy34+cd356mx6cU+0NTqun75asVdBj884pGyhdq14Ke8+gGtBIIH3gtG76PK2kf0v9+cE3rN4Ccz9ieX7Lwh+Nnc3EzYSdB3hFQFP4j0AdgBkICzUdn1OfLkVreb3syHBKhAp1glp9lO4AcwYnxxXThyE4vrVNu3RHCe4YCUdTipazIg5B/ciCkF2OwGfiDnF2N+QmQEnDfM4bwBTkQ/AbdxR5gut6ozzLvdwA8c5gdDew7zx9gubX7coTlvhADWsAyoCVtR2a2Osy/BDzq88guRquAH8u2eWhW6CwDfPOwj6DVsBSIGW8f8tLYRE/bi6Rt1IpbsBn7KOxfJIz5u7FDfTPBAxOXtHjeNLYTFh49ZT2Rf/tmGazi/CuBH2470/Rwzf2cS/OCeEvXrGPywA6Gyc8Pgh/VTZf1M99oSgR+j9xGDH24L6eob/mcIftC5SdRJ0HeAVAU/7RMBERmBzi9q++g7t3BE4CzDkX4yoo6jYSfwc3/IS4A6iEJB2pGRjNvG/eIrc/9M8NB2/f6Z+m038NM07KPw5raQdfs7v5A19Bfywtf9D8sRAqwYml3bB2+ZkmW889gN/CACAg4zolF6pw86zFXdbhqZDwkoARikCmDTgh/5Zd8X3FAy4gcg3hfeEpEolT3uQ5FT0OeGfo/Q49nlyKHt8fTM6vV2Az+A7ZtbO9Q9FTDUU3zkQAou4DHsitXyS/b4qoAf2Y6Q8qXv65j1O9PgJ1G/jsEPOxPHcSas/i+DH9ZPq3UsG8dPBvzo30cMfrgtHEdX44KfRJ0EfedHVfAzPB8Sndu6AU9cJwIpSAh975wIKNMBthP4eT66IoAE4E5hnGiT4o5F8YX5vSeijIztBH7gEL9z7UVVNQ17Db/SIwXJu7ZF69Ftwhf/ZJ0tK/ezG/jZd5gnA4a6DIf5nSMsnOrHijjMevAD2+wNbtDjUa8SOqDVr7v9HlrdiNHIXEjUf9Juk8uX2xyiDk1oMyaigOT6bM7tBn7GnGGKbu1QVe9huAY5Isrq6YhPAE6k1WVTttpzqwR+0I70o6vo+z3H+Z0N8IPrjfdRj8EPOxPHcSas/i+DH9ZPq3UsG8dPFvxo30cMfrgtHEdXjwQ/R3US9B0eVcHP0HxI1DWI1wFGp7O2zy3AT8/UqjIdYDuBH6QfoYZP8xtf3HS5qy+d5A1uiaggbUc/m8t2Aj9FbQ7yrG2JguTxCk/DmUNEFb7iNw6qUd/FbuDn7acoiKpXxg4zUhgRGYjUuvZxNUCxEfgRqV4Kgp+GgWURsTYwaxyBCXsAuDbl2qC1SEzUU8qmjZDnthv4GXWEhb0t7/6c2izvBXOA5HuDHqHHKn3wUA38aDvb+j7PcX9nC/zguo3gD4MfdiaO40xY/V8GP6yfVutYNo6fCviR76PKOq7xk41nlSvnTAh+4nUS9J0eVcFPxyRSvXao7Z1xNAqc5defCo0+eq3OF3I7gZ97Ax6RuoGUOUSdaB0M6WQ8Gt6Lqhr6sHZou37/TP22E/i51uYkTzAqRj263mEczQNdlvVTUKcmU3I86jx2Az/SYa7oNgY/IhVp0CPSvVRxmOOCHwWLO6OIvns1Sosrm3QzDpQo73IRCj7P+9SJDrQb+OmZDoponudjfkMYX9jmEFFXiA5UxVbAjqgIfmRn2+y0r2yCH6N+HYMfdqxVdmwY/LB+qqyf6V5bquAHthsRP387wcWd05V5vv8vKfBj1EnAOu2kKvip7nWL9Be3P0qNw14q63TRtXanGMIdDkbDay+FI9tiFCoUe8Z2TKUdi4Y1gY5ycs3cZifwg1onM54N4aw9G1shOM2o9XPtpZNKOhaput9DDl9EpIOhmKuUsXwWZsotlWPZCfzgviZc66LwbU0/0hYPF3AGdMPw2Cj2jCLmqcjCqn3tBn66p1dFGteL8TgOc6tDFITHiGr3h9SIqrIT+IGevZrZgxL9s0GRioQ0UGkrEJk55ggJaAGwprUVRvXDrNJb/XHtBn5qepcEjHf5N6l+aFm8zyBjTHjvPRzxUiiyLYqWVyr03lMV/KCvY3baV7bBj75fx+CHHWuVHSIGP6yfKutnuteWLvjhUb24PaSrc0mDH30nQQt9sKwq+Knr95ArEBXDtiPyZ2IxTP3vg2Kkk9mlveHHd3f/FB3gycV1ktPofCir6TJ2Aj9w3AAlMOIRigtjpCmkcqCg9tuFkAA+kLFvbWtfvpAzIoRaxrJXX8Ju4AfQDMWdp93rdGfQQze6XAKwAa7BYe6dXqXtnV0ac4SFcwcHDxMgJqKB9M5sJn7bDfxU9y7RSvgjSVAsZQzoAAf58ahPgGKM8gWZSxkDUGBUqkzIVH8OO4EfyAh6isLDGK0CckYdNmkrPKtR2v3zT4pEdw7YCtgLQDk5WqBeBlb/thv4uTvgEUXKd3Z3xeAG486wSAOFnD94IiJibWdnV8hfvvMwR+2l+n5PVvQYz1Bl8IN+jpnwRwXwo+3XMfhhRyJdRyIT/2Pww/qZCT3L9DkY/LBeZ1rnUgI/2k4ClrWTquCnZyYoah0Ewh/FF9Bk5y5/lLJZvNVO4Aejwiz6oynJF88BNX96szjKl53ADxze52MrwomDw+wLbYlReQZn18RIU0idwXo4c3Dspl0b+xP2Ke/MTgSQ3cBP/aDWYQZ8CBPkh2lu+ZPDvLsrai1pZQxQfG8gOxFAdgI/v/e6BRhO1g5r90Nxc9T/sRryGB3fbuCnf3ZNRLpq5ZfMssO3SQ+zmPKsOvhBn8cs+KMK+JH9upG3k3S6oJz+8sVpOldURUPTLsp0h5TPx05QPB1g8MO6EU837LyewQ/rdab1N2XwIzsJ6PzYAfxUv1oi1JcBnEhlQt0D1KMwcgIysc5O4AdygrxSkS/2xXOpebWUNRnbCfzA4Z10b9BKaCvlCWl4GIo8E3qrP4fdwE/f+6CIlEhVzgu+SNYcZjuBnyttDmoYXE7ZVsBe3MliJIrdwE9t3+H3HoqSYzrKTt8f8oooNn07ztRvO4Afs+CPSuAH9zQyxuAn0x1wPl/yTh+Dn+RlxXplH1kx+LHPs8qVdpUW+DGCP6pG/Bh1WJH2kq3UF6PrMVpnJ/BjdP12kLGdwA9kDMcXX+NTnTCENkYFM3pOVq+zG/gBiATETFXGgBlI+7JankbHtxP4Mbp+O9gKu4EfKefCVgfV9C3RwxEftU74qXUyIGrdIU1RxXegXcCPGfBHNfDDqV7sgKjs2DD4Yf1UWT/TvTYGP6zX6epOuv9LG/zo4Y/q4Acd4Np+DzWN+qh9KkAd0wF6NOIjRARdylL9E9k5N5rbEfzAkYBD8WDYuy/j5rcrhPSZoiylaBjJVq6zG/iR162dQ3dV1F95jXYDP/K6tXPVZWxX8FPR7TpgK56N+6nxtZfKOrID0LTPXL9sR/CD2l6t7/xiBDUUI8cU/bhDwfUYzXo2qGnER3gv6u81m7/tBH6OC38Y/HCHP92Oez7+j8EPt5dc1HsGP6zXmdbrY4EfLfxRGfyIDvCEn5wrm4Tha9c3t0Vx0dBGTNSbePp2JWsREfE62XYDP3AgANJmljZodT0m5As5o0grCrZ2TQfoRpbqzMSTsV3BDxxjOMgtE37qmlml7vdBUXT4dm920rniyRfr7Qp+oM8Alk/HVg7IGNETqoE2O4IfQHgU2oetQFF42AoUhveHtuitI0xVPWrpst3AD/QX9dMAezzBLRp3haltIkCd06s04V4XI/+thD7S01Efg58//xT10VAjTU6AMujfJDOlW/OHwQ93+DPd4bfz+Rj8cHuxs/7Gu3YGP6zX8XTDqvXHBj8S/qgKftABxmgw4c2Y6AC/dYbpxYSf2iYDhGXU8ghuxKhlPHujSxk5znYDP4/f+IR84bhhhK/26YCQ6YgjRCiUvRXboeG5kFKAzY7g51a3m0YWQqK4M2QajmwLxzkU2fuK36DIEONSp+0IfgDWOqYCYqQ/jAQIGWMUKgmKn42pBYrtBn6q+5ZozhshobPLEQEuW975aXA+RA7fXgHtafcGVWSpLpXUXe3cbuCnYdBDgfWPwvY+HPaKYdzl/WAUwCejPgHZAIWyWctOXpOc2y3iR4KhdOAPgx/u8FvVsc/F4zL44faSi3rN4If1OtN6bQr4Qednzhui2n61vtKiM1k/4BFOMuADigljWOYLLQviKyeWkZaEYcb94Y90S6GvzHYCP6ht4ljZFBANI0+Vdrj2ZYxirqgxgyHe4UQ/yuKIMdK5kHO7gR84aO8WwxTZ2hEOcv/cGj0b89PLqYAo/AxHGsOMI1JF3mO25wA/HdP+Q1/Oh+b8VNyRneHPj5IJUhL7ZxEpsSNkObwQEjJGdNUbR1jYisC6WqDYTuAH8gUYRoRP90xQRPZcaNlLN0IBc0RUIeIHUUAYevyoZ5XJbXYDPwOzawK2A/AY1fKBrPtnggJoPhtdUUbOdgU/6AOlCn8Y/HCHP9Mdfjufj8EPtxc762+8a2fww3odTzesWm8a+EHET92AeuAH4e74Wg8gcdmgngEgUM/UqnA0Wt6qE/VjJ/CDUWIAHRDRc/WlsTOP4rfbO7vCqcukw3bUuewGfjonVwX0GXeGRaFnRLPJ+7vZ5aIX7/wCWACyZauYs7weORfgZ2qFotHoAfijKvhpHFqm1Y2YAGuInrra9lmfAYoRPeENbomhslUBxXYCPxhdDpAdOlrW+RkQS32BPUbtH0RXLQW3sjZ8u7weObcb+Blz7qXRlXcfljHu6WKLg+4PLVM0tkMdE4F9OyLvN1tzO4OfVOEPgx/u8FvVsc/F4zL44faSi3rN4If1OtN6bSr4UTHiZ3g+RIFwjKpeufejUPSd2rt9Hort7FLP5KoyHWA7gZ+WMb/4go96EfiSrJcvfgMAoKjoe0/EcLvRf6xeZyfwA7nO+SK0thETURFw3PTyKWpz0ox7gza2tqlakXo/MtVL/zVcVfAz+ClS4vGIcaQEoideTQdFkdznikRK2An83BtYFqm1kDP0Va/D+A1dn13aoNBmjK7HAclG/7Nynd3AD9JB92yFh2RElVY+0OPnoz6hx61j6nzwsDv4SQX+MPjhDn+mO/x2Ph+DH24vdtbfeNfO4If1Op5uWLU+58HP4Ic10QG+N7RsGPKOzvCTEZ+I+GlXqM6PncDP0zc+Ckdi4stxYZxhw5GmFN7cpknXhqGzp3VKMrVsJ/Bz7aWTlkNbNL8coeKORUMZwpnr/hQVhCHJMyXHo84jwY/eIVIV/KDuVyD8keJFSiAiBfVTUF+pU5FICTuBn7q+JQpsxGjcESZct5HuIDITqbmIDNJGtRntm6l1dgM/SN9CYWcANiObfK3dKaKuEN2mUiHtXAA/eluH30YTgx/u8FvVsc/F4zL44faSi3rN4If1OtN6nfPgB1/ukYY0Mh8ydDTgWCDtAFBCpQ6wncAP0ozcwSgtrkQNHWY4y4iS+Li9Sy8U+rpsJ/CDKAhnIEqewBaVxBkdraDVQW/mQyIdrL5fjTo/WvCjdYhUBT+IEIS9qOv3iHQYPVgAXGt5u6JUpISdwM+VNqeoR4Xov3uDHirQRa7BVjQNe4UO41no5Z+t33YDPwDt7tWoSJkbcYTpwWsvVfcuiQlQCCN7Rbd2xLuvecRHSNfFdH/IS6jZli05PxzxGEIS2A454lYm5oAyRrAmlXX6KEf9fxn8cIc/0x1+O5+PwQ+3Fzvrb7xrZ/DDeh1PN6xan/Pgp7xzr/AwIlLGXev0eMRLta+WqObVEj1/uyKcEHy9d/o2CZEr6ARjQhHiyiyOKmMn8IO0I0RKoOjwrDdCreN+quvzCBkj8gSOB5xp1EZpHw/syxiORm3fUtacDDuBHzhiqFcFQInUOn1KHRxmpHehNgpGTNLWpsmWE4fz6sEPnB84RMMLq0oWd0bbX49ufxqB7nBECiIlHL5NUQcItWiyKVt5bjuBH1wz7ANsBUaU6poKEOp/wR7DVmAERoy0iGgVpN5Ke4w5isTLe8703G7gp30yIGzu7u6fArhjtMWl1aiYMIrlzs4uYRvsCSKr5ATdfpjFAvwAP7APekiC35kAPvIcZoAfaev09c3kvTH44Q6/VR37XDwugx9uL7mo1wx+WK8zrdc5D37aJgK0FomJTi5Gilld/ygKs3rXtoSTLDrAf/4piuKiQywnjI4EZyPTDoY8n53Az73BZeHE7ezuEiZANm9orwAuHApE+qBDjSLbUr6Y+0Jb9CqLI/fYDfwgige6DNkNzq2JyAgANjjOHZMrgyj+AAAgAElEQVQBWg5uiVpVI3MhevLGtz/hK362QJAR+IHj83o+oCT4QfSaKxAVDvGEe0PYAMgYE4AFwGb0416kBGr8SDkjSiVboNhO4OdWt1uASRR6h00A4AHogT2GrQAQwnrUXNPaCiwjSkUPPKW9tHpuN/DTNu6nd84wTS6upzTBdmQzWhCpXpubm4bwR0KZTMzNAj9HwR8GP+p0+Nv631F5zWO6UHqHzhXXUkHZXbrT9JLGHX5yhmKU6Y45n++wbjD4OSyTo/Skd3SW6h610cWyu0Knodc365rpWedr1udQarI8Ss7H3cbgJ/lnMb6wQg+e99L5kjqh078V19KNmiZ61jHMOp2CTuc8+EFUz5gjTBPO1CZ0gOFQW+1QxDu+ncBPw8AyQV6pyhjPpWUse0MJ2wn8oO4JHF84xHB8AB/gDK+E9xxmONBYL77iR2KirhWKu2Ka90Xo957sjLgXD/yomurVNb0qoA/kKOEDZAw4AaAJsIltABRSvpijJg3gT7z2bOV6O4EfRGAOzgZTthWwLV1Tq4aFiq2UrTy23cAPRqDDqGmpTqUdi3GLbktZWDmXNX4Af2RkjJxnAvjIc5gJfuLBHwY/yXf4j+tcxfv/4KSTbt55Qt+duU7//P4Cnb5YTuev3KZvThXSFz8U0JnCW9Q98p4ca+rAn/fedaq+/4KuVzfRe+9G3jg8DH6Sby8Nz7rpx/Nl9M+TF+jEz0V0rugWnfqtlP7+7W/01U9FVFX/TCm9wbNtfN5L128/ov53C0pdWzzbYdZ6Bj/J6fWzjtd0uvAW/fs/l+irHy8JO/1bURX97Ztz9M3PV6jy7lOCbTTruZhxnN6xObp+q5Ge94wqdV05D34wvHhJx2LKEwroGhXFtLLTqz22ncAP5AR5pSPneMO/a2Vh1bKdwA9SuZAGA1iW6oT6SmVxCkJbJVt5XLuBH9SgGp0PpSzjodm1rEVK2An8oEYSoERatiJOMWipa1bO7QZ+kpEFngXSQ1H7J5n9M7GPBD+AJXr4I6FMJuZmgx8j+MPgJ7kOvxkdcKNjjLxfoisVjcI5Pn/1NrX0jdObD8s0Nu+joRk31Txopb9/d55+OFdCQ1MuZSJ/4CRfKq6hk+dKaXoppJRDYSRns9ZpwQ8gXWPTCwGHE7WjqxV36S9fnBZT/9RizssL0Ofrn4sE8Gl6OUSD0y56O++lkVkP9U046OSZa/R/352n2getyshiwrVKN6qb6OTZEuoYnFTmuszS3aOOw+An8XvgacdrAee/PnWZ7j7uoMHpRWGnodfdbz/QuaIq+sd3F6jizhOldOdF3zidPH2F6p90KnVdOQ9+kumswqmu6XWLdI5k9s/EPnYCP8nIAzJGKkw2o6j012kn8INrBySD03zUVNrpIqQg3e5x7++H/+mL6OplYdVvu4EfFB8+Sr7YhqiIR0NeMWn3RVSWVXI86rh2Aj9H3YfcBltRDhlnsdaMvBY5zyXwU9nlFkO5f/BGRIpdy1t1h3PXwp9MAB95DivAj4xckjV/Ejms8lrMmsvzx5sPj07Q6YJy4SCjIz00DdiRuFNu133qn3bRP09epKLyehFlMB+IHrjfmeUwldc00f9+c46ulN9VJupn0hWkU7+V5DX4+cd35+lBcyuDH137bO0bo5NniwX0eTk0SXP+zUPAcnTOS1+cvEBf/OcSDbxzHND5bLXlsQUfFZbdZfBT/YBWAkERva+1+/r3UWXtI2GXADQfveinheCWEs/RCv0BdEf0GnS2tf8dzeijetZi4l3149li+vJUIQESWXEdqR4T7xOA1xM/FTL4kR1pFeYY+eT5qI/mfZtiiGHURVDhunANuQJ+itocQsaIUsHQwe8W15WRsd3Az1G6Wdvrpt7pIC0F94bBvtuXvUK42uu0G/jRXrt+GeASI3ot+DZFPRoU2dbvk43fuQR+kC73+sMaBT/VCePh3BdM07GHQ14aXQiLOmFIVUQqI2orPR7OXi07fXvRRvxIQCHhj7YjbPWyvqMtr8WsOeAPg5/sQaXukRk6XVAhHOTW/vG4jhOiTK5XNNA1DfhBh77yzhM6VXCT2vrGDzgZo3PLdL2ykS7dqKe+8fn9bYjMgYP2a1EVnfi1mH66WE4Vtc0EJ1zvUNQ9aKUffisT+2Hfu49ein3mcN66J/TNL9for1/9Sn/9+qxYPlNURS2KpRLo78mM39qIH4AfRPwk047yKeKnvLZZpL7cbnxBkFc8udc0vqCi0jp62j4k9pn1btC9J13086UKam4bOPA/6Gh53RO6WFxLXcPTB7a97H9HReV36YffSoW+Xi67Q62vxj4Bp8/t+3nnMF249rvY57uzJVR8q1FAJ6Tm1Dd30tenr9LfTvxGf/3qrHDeT1+upKed+VG3hSN+PuuJkb7evvec/v7teSosrYur07DJLd2jVFR2hxqedO3rKCLczhRWUvndZzTrO5gW29w+RKcultPjjmHSQv+u19NUdvsh/XB+zwZfKqmhxqddNL/6Ga4h9XdgwkGXSmqFTn9/roQuldYRwCvuAbb/l0sV9K//XKK/fnWG/vlDgdivqrGFJpyB/eszut9MrMvLiB+MHvPWEaZwdFvUSkGBZ3/oIz3JYjFnfQfY7uAHKQSo5YEiz6hHg8La65vb1D25apojo5dZqr/tDn5K250Cqk0vbYgiuRidDro8742IiIlU5WHF/rkAfhB5MuYMi9G+oMsoTKySw2x38AMA/3LcTw5/VBSAh62AHk+61gnRP1boZarHtGvED4qVd00GBBCWsAc1qmAj8KHjesciZStSzegZGIEfwBbAH6thj/b4VoMf3NP29l5dNu15rVxOBK3yKeLn4Ys++vcPBXS1otEQvmg734j80TrRcBKulN2h//vuAj1rP/h1+fWMi84WVtKP52/sO8nvnH6qrH9O//qhQNSm+K3oFn1/5hr9/cRvdLbwFr2ece87AuW1j+kf31+gk2eu0uWSGvryhwLhEN991CacE0CgguvVoh4R0nXgDN2saaK+sc+QSXvtubRsBH6SaUf5An7giP78CWa+Gp8/MkINTvCMJ0wfViJC96DjVXefiQi4e80d+/oI/RmecdMlEY1TvO/YYn3zy0GRfoO6Qb9eqqDTF8oIQO6rU4X0rGtk35lu738nHF84wIWltfTz+TIRrXL+6u/0zhkQoOjitd/pm58KRbrOucJKKqlsPHCuXNJj/b0w+Dka/Jy9epv+fuLcpwjUeLXWYkLfoNNawNP9Zpa+/E8BXSq/d6ge2r2nXUJf65/17IPK510jIrX3f745S79cLKcLRVXCTgM8VTf8sd+mUPT/h7PF9LcT5+jXSzcJtYYA4wGS+sbmaGhqkYorG+iU0PWzor4WbHVz2yABsup1INO/8wb8oKho10RAjD4lnTd0shY+dYDhPGVrxBijDrAdwU9xu5OejvhERITWyfAEtqh7MkDlXS6lnAy7gh9E86CmDIZilrAH8p5aXKcHQ8uiOKsqDrNdwQ8cZkBKAS5je7BHOMzLEUIdoCvtTirIUmqX3l7YFfxg1EREAqIw+ccYimZj1MUYDb4PiqHbC9ucSkAfyNtO4AdRUo+HvTTp2hAfNzCqImSLUf/wzkMh8qI2td53UqfjgR84eBjm3Uowoj12JsAP7imTUT8Mfj47GHWPO0Sn/e6Trn3nN9nOd6rgp7njNf3r5EU6d/W2KBSNKIfp5TBV3H0iIM/VigYxetjbOS99e+Y6fXPqMr2ZWxYOzPDMknB6Tv5yVTgLSN0Z+eAR+yByYmxhRVy/I4dTPeRziQd+ErWjfAE/iLRBkXKAR9TzkXJLZp4q+GkfnKBTF26IIugtfWMi/WbGGxZRF1+d2qsv9G5xL7Kh9FYj/deXZ0TkGpzyicXAHrw8eZGa2/ppPrBFKLIO4PP9r8XU2jsmdF8bhZHMPdh1HwY/n+2y/hmi3tr3Z0uEvRtPI1ImFfAzPO2mXwpv0b9OXqCHL/oJdadQPH/4vUfUxULKb+cQIt5iVPewlf7n67N04/dHQvdxnWXVTfSvkwVU39ROjuBHmnKvUV1zF/3j2/NU9+ilRqfjwav4ctDL5bi/DcGPtgOU7LIrGKW7Q2qkl8hOJDrASB2YciEi4rPz5g1uiY4wgARgD4pcyv+oMr876D40qsmsJ0g1/dkZnekoudwbWBYpBIigQvoAnAyMdAQYAf1BIVfIWBUYIe+lfmjpkIzRiRhWcKhxgMvWMT85VjYp+imyB7L1rG7R7p9/Uv9MUOjyxRa1dFkLJbS2ZMwVppLORaXaHexF87CXZtwbQncR2QPYAxnj2uEwq2gvrrx0UPuk70C9g9DmNj1RKHVVtrmqbrfQVV9oiwAkMEra5tYOBddjQsbNwz4B1FSzFb/3uWhxJXTIXqg0Oh2KNMMO4P0mgPDuroi2nHCERT0q1KaCrXD6okq1O6kbmD8e88WFO7DNMu0rEcQ47vZMABmcAzArU/ektb9Gy++mPtCZyxV5UeOn7nG7SInRfu1FZxpfjE8XVtHfvj1/aJJFZ1MBP0iTuVrZSN+evkrPu9/sfzHGuUY/LNPpy7fo+1+uiq/Zb2Y99M3pq6ImBKIsnGIksRjN+iI0+ykyA/+D43ziVGFe1/hBceemZ+3CViRqR4VltXlR3PlF7yh9e+aaiD548+Eg+Pn93nP658mCAzr9f99foOuVDQIQpQp+Gp910xcnL9LvD1oPRMPB4a2oaxZREhh2G23lenm9AD+36po/wagYzfmjQqdl+gxSJBE1ke/FnUuqGsjpOuyX6N9Ht+ubBbjO9Ro/o7PL9N2vxcLe6cHPo5a+A/oMm/337y7Q+eKafeiZCvh50j5E3/xcRFdv1tO4Y0VTGytGd5teijTESqHDMUJ7QgTb1fL6fZ2GrsNWA2TCTkPH7z3v3YsqskNxZ6NOQaJ1KoGf33s/ORdrW59AxN7w1xgSGEVZS9oXRcfYHVC3A6w6+CnrcFH7eICcK1EhSzjI0JEPng2RQoCv9Q7fpnCcryr05V7rZNgB/NwfWqbxT1ERAGqQc2gjRn3Tq6IYedNrrwBtvVNBJZ05O4Cfmt4lEWXiDx20F5D7g8FlQiQbZL+4oqa9UB38XH/pFEBt2r0hII/Q4z//pMWVTeqZDIhi2b1TqwJKwD5r26gqy6qDn8G5kIA8UrZuf5ReTa/StXYnAQYDpKFwud3BT6bgj76jnaj/k852nAP3kyn4k+ga8wn83P+jV0ThlNx+ROML6OR//tqKGjvXb9bvTz+cuUb/9e9fqL1/QuyXCvjpfTsnaj38v3//IpxfUZsH9Xm++pX++6tfCev/9s1ZejWOIaxjIioCI4n991dn6OfzpSLlRQIneY0Mfk6LVDct+DmqHeUL+Hk1+kEUwf3u9BUa1I1e1tw6IHRJ6vWla9VCH4vK6oROpwp+UKsEji8ieaDHWr3GOgAJpGuJCB9ngP7z63Wx7/98c47Kqu4T2pjUZ8wZ/FzekxmDnwN6AZt4pvCWiHocc/gPbBuccOzbaOg10giREob9pW6lAn5qH7YJu/JfX/4SV6cRlYZjI0XyTEG50GnY64Jrv4tR8qY94f1zM/jJYJ2GV7NBASJkJwdwR3aApROBDjC+iDL4Sa9+xvOxFRHRI2UcimzTwExQjCSljZ5CEVyACnXBj+fQF3x0IFSI+EHdk/eeDVHrRMp5fjlCz9+skLbgLQq2wtlj8JOeLg/Oh0SakZQxonp6JwPCSdbaCwY/6cm3YdAjIlCkfJFmO+Fcp/p+z4FIy55JBj9S31Kdwx5ML28IWws5r4Q+isgfQB8AHxk9lSvgJxPwJ5Pg5yinFdvMmmQbjDfPJ/CDorQ/nCul7365Sl0jM/uddekwfJ7H6D/nigWgOQh+7ooaP7I4rtxf1Pi5/LnGT+/bDwL8oM5EwfXfqaSy4dBUUd0khiaWx0CKQGVtMxWV1gqHGk7052gJjviBPPQRP7KNGEHUfAE/0J+S2w/pf746S3ebOwkphVKn9PPqhueHwU998jV+AH7gZO/V4zms09DzFz2jn+r87KW21D14QcUVDfT96Sv031+eoZ8v3BDpMLg2Bj8MfvQ6Kn+XVzeJ6EzoTrz6OAurW2LEL0Cb+ODnYHvQ1/i53fCc/u/b8wLoFN+8d8hOQ6ehw3vXFSNxzt4xulZeTz+cvS7eEUi17P5UAJ3BT4bAD4pUvl0MC2cZwCEQjolaKDe6XCJ9QKbBMPhJz4mTDkn7ZEDUl4EzDID2Zj5EdX1LhBG87AZ+jMLsVQA/GI4daV1IhcFXes9qVBTAvd5+MG2OwU/6ugx7Mbm0sSfj3T9FgXfUlyntXPyUbrSXNiccZo74SSsSB4X0ZWotHM7ZpQ3COshUm/7J4Cd9PYZdRjF9meYl6yXtQbYwNQ15qbDNQYi8yoWIH62TJ5fNnmca/OD6jZxWM+8rHvCR6/MJ/KDzXvOwTaRLlN5+RG/nMbrWwdoLGCK5/nE7IUoBsEELfm7cfiRGmml8hhFk5P/2Rnr56XzZfnFnkepV0UhfnyqkJx2vD6R6oS4PavYggghpXSPvlwiRFxi96/Mxt0VB6H+evLC/TkT8/LSX6gVIJB2kXJ9ra/zEAz9G7SifwI9MV5FRPxh9SKsX+A39+u7nogPgB5E5d5s6RHHl6saWA3qKotG/Xb0thomXoxY1POsWEXM37zwVqYefz7FXZBd6Lc+NIeORqog0MOyHbaW37ov2g3ooWId2spfqVUyoH/T5eJ8j8XJ1nbbGD6d6HX7e/ePzIgUWqYX97xwCuBzUhRhNuoICQurBT+/YHH37c5FI/0IdHvk/6GLNo5ci2lKm+8q2c6m4ht5q9sV/YKOht3gnwDZDp8XvTyN9of00PusR75Obn1IateAHIFZr0+V1ZGueczV+UEMCRVldgb0RYjA6DDrA064NUXj4ertTpG5wxE/6jgYieJ6PrtAHT0SMdCRroTi8ETGCDGr6wKlWP+JnybCzrQL4gTNXP+ChkbkQBTZi+/VQEF01NBukxsFluvrSKZw6jvhJX5cB2HqnV0X0H+yEtBcolP1k2EdIVeNUr/TlCzsAXUXaXCgS268BhmhLgIpbPW5RaJhTvdKXsQTymMu6drKwM0ZIw0cQwDdEvsLJR8qiKoXJtdeO5UQ1fvQgBLAEk379cX9nA/wYOa3HvQ/t/yXgiTfPN/AzNOmk89drRORCYdkd6p9wiNSUD76IADAYxQWjuSA6QQt+4DS86B2j//3mLJ29XCmcVtR2QKHl6vt7RT+1o3o9bh8igJufLtyglwMT4hwoGophhzEC0qXiWgGe8KX4q5+KRIoXHA8cc8a7Lkb2+t8T5/ajIybdQTpTcJP+/eNlgrMy5//sVGfLkcjEeZMFP/p2lE/gB8/hdsMfQt8Af9qHpkQNHugSdK57ZJZOnSsWkWRIyZKpXvjf8KyHvv7xEp26UC6KkMOZha41POsRBW9Pnv08qlf7wIQYsQijzjW1DdKUOyT0Go756YJyMWLewKRTwJ/zV6tEquQf3aNCp3HMazfv0d9PnN9P+UJNlaLyevryx8uiXYhaKZrhszOhX9k6B4Ofw7BH/yweoKbUD5dE/TPYPKRUwU6/920QUsAwopxIO/zyzIGIHxQ5v1xaR1/8UEB3H7cLHYVet/SMitG7YNcl+BmedtHpy5UiuuhOU4cYcQ56iEL8KJiOkb5QVwgAB7V+UNz5dv3eMPEoBF3X1CH+iyLP8vqf9YyKGj+lNU0CkArIv/+hIPF9y+OYPc858CM7knA4UB8Fo8YEN2IiMgXRE761LVHPA7ACxZ2xn/yPSnPVa/xIWdX1e2joQ4j86x8FYIPjDAdvdD5ESwEU0f5T1PCQ6QbyfyrMZY0f/ZdWVcCPlBHqKQG0vfdERKTV3hf9vWLDw3MhIWM40dpoK/nfbM/tUOMHMoLDjPoy484wBSN79gJADQ4zZAs9RhqYivZC9Ro/UgcrMVLa1B6UF6P+be9BeUQBoaA2olFEcWcFi+2rXuNHylg7xyiKnRMHh3KH04+R08RQ7u1OEQmkkm1OFfxIJ89s+JMt8CPvxygSVQtx0lmOB3zk+nwDP+hMv3o7R5fK7ohhrPdSV25RUWmdiHzAKC5wYmUtBxnxg//BeUBhTwzn++WPlwhfif8jhvf9TQy/rgU/7xwYzn0vjearHy/T+aIq+vFcsXAIkO4yOL247yhcr2wkDNN+8sw1KiypFZEZuI5rFff294HDc7epXQyJ/c+TF/NyOPejIn5k25D9unwDP9BPpK18+WOhcE5PnrlKl4tr6NS5EuG8/uNkgai/g7o8WvCD6LGKO0+E/sJRRt2S0xfKxe+/nfhNDF8tI35wDgCf7365JiASQCTSvv7x3QWRAonoITjN2O/hH71i9DoAVLQt7IdzYwS7flHbaltEcbQNTAgH/YuTBaJeS1vf+L7O4zi5OjH4Se7Z3n/WTV/9fEXYvRM/FQpdOn3hhtAl2MHfrlQJcKlN9YLOdI/O0slfr4v0UOz/W9Et+urUZWG7UZ9Kgh/s+6xzWES2Aer8eK5EtJu/n9iz6Tdrmj5FscVE5BGgPez/2UsVdAFDzn/7mxhV71nH8L6u9r9boN+u3N6z9efLqPnloHh3ZFuXcxb8aDvAcJzR0XX4N0WEChxndHYw8lQXiot2ukTqgUwF0/43W8t2AT9SPkgjwAhqM54NWtM4zpAzHOeqXrcoNIpRkeR/sj2X4Eff2VYN/GjlVPtqiV5NB8kf/ihGnsIoapAxCmljeOzijkWRcqeKM2cX8KOVMUZQa38XoMVA9IC9AEDumNizFxgOWxV7YRfwo5Xxw9deGp4P0epGTBR8BjCGHiMyqHHIS9c7Fg/UstL+NxvL1X1u5Uf1OkouSK8bXQhTaHNvtEV8+AiE92oBoZ7YUf/N5LZ0wI+032bCn2yCH3k/ZsMftK+jpnwEP7ID/rTjNV0srqHvzhbTN79co58vltPte89FJ/1xa79Y3z3yfr9Dj/8B/uCL78lzpXv/KagQQ/nWNbVTQekd6hub299/eilEzW2DdLaoSuz7/dliKvv9kahtIq8Bc4wqVt3QQhiqHdeBCefQ7iP2Ww5Tzf0XdPJcifhK/Uf3m0P76P9j99+pRPxo4U/RjToRsYWv+/26osd2l8lR14+onPLqR/T9uc+6hBGLekZmRdrVmUsVdLP28QG9gZ7WN3eIulSiHRTcpDuP2qn2UTtdKq2jrk/1S+R52/rHxShIqJeF/ZEShmgKpMHIfTAH/Dl/9bbY58SZ6+I/GLZduw/SHJvaBuj0pQr6uaCCnnQMHdiu3TeXlhn8JAd+8MxHZz1U09hC0CHoG+ZFN+5Sc9uAiGwrrmykosrGQ3qDdLGC4hrxH+hq8a1GuvOwjS4U11JT++tPtaj2rqNzaIpKqx4I24pznC26RfeaO0iOQIfrQBpjx9AUXSyuFsf89tfrdOF6NT3reH3o3H3j86Lt4FiV9/6giTSGpTdb3/MC/Gg7rg2DyzQ0txehsh7dJnSA4dAhcqKqW50OsN3Aj1bGt7v30mek44y0Onzhx1d91KTR7pvNZS340Xa2VQY/Ul5IP8LQ4+POdaG/GBIbzjOi2JC6hO1y32zO7Qh+tPJqHNwDFEi324hui1QlWTusUhF7YUfwI2UMyNby1k/vlxHNFtsfmcrhi1DbO/9+YWK5f7bmdgc/Um6APM9HfTTnjYjITERnto75lbAVuMZ0wQ/sN0CJWfAn2+BH+z6STuxx50dBH2zLZ/Bjdseaj5e8M5esrNIBP2gz+Qp+kpUr72e+rqYiUwY/2ZV/Ks8qV/bNO/AjO8AIg0eExLRnQzjOcDowPLncnu25ncGPlF1Rq0PI+DVAW/gjrW9u05R7QxkZ68GP7GyPLKxScYca4ETK8qh5dY9bRKIgoi0ciQl9bhhYVkLOdgc/Uu5wmJ+M+GjGExHyRbSgKg6zncGPlC/miErpmwmSL7wlIBDSR1EwXrtPtpaR6uXyhw+BhaE5v61shZQfotXwEQSpd0iJluuzPT8O+IH9Ngv+qAB+5PvIrMgfBj/sYNjZcUkX/ORjqpedn3O+XTuDH7bLmdb5vAU/2g4uhhZGyhccD+36bC7nAvjRyg+O88t3AfEVX7s+m8tG4AedbTtE/BjJ7eILh4ATvTNBqu5dUkKXcwX8SHnDYb73yV6gaLFcn815roAfKcPSDic9eeOjvtmgMulessaPHizYFfxIWas2Py74MQv+qAJ+zIQ/DH7Ywci0g2Hm+Rj8sP6aqU+qHIvBD+t1pnWRwU+GhppPtYOda+An1fvPxP65Bn4yIbNUz5Fr4CfV+8/E/rkGfjIhs1TPIcGPHiww+DFnNDL5PMwAP/pnhN+pTiqBH1y7LFSb6n1o92fwww5Gph0MM8/H4If110x9UuVYDH5YrzOtiwx+GPwoEbUgO/6ZnDP4MddpM3p2DH6slzGDH+tlrAU/cKZl5A+DH3Nlbxb40T4jLfxIdlk18IPrPi78YfDDDkamHQwzz8fgh/XXTH1S5VgMflivM62LDH4Y/DD40X0RtmuqlxF4yfY6Bj/mOsZGz5PBj/Uy1oMf6Yi/ng/YssaPkR6psM5M8COfUToFn1UEP/J+0q35w+CHHYxMOxhmno/BD+uvmfqkyrEY/LBeZ1oXGfww+GHww+DHMh1g8GM9lGDwY72MjcAPHHEGP+bK3mzwI2FJqvBHVfAj7ycd+MPghx2MTDsYZp6PwQ/rr5n6pMqxGPywXmdaFxn8MPixzOlX4QvyUdfAqV7mOm1GsmbwY72MGfxYL+N44IdTvcyVvRXgR8KSVOCPyuBH3k+q8IfBDzsYmXYwzDwfgx/WXzP1SZVjMfhhvc60LjL4YfDD4IcjfizTAQY/5jrGRnCNwY/1MmbwY72ModtWgR8JS5KFP6qDH3k/qcAfBj/sYGTawTDzfAx+WH/N1CdVjn1ZpJUAACAASURBVMXgh/U607rI4IfBj2VOv5GTqtI6jvix3plj8GO9jBn8WC9jBj/Wy9hq8CNhSTLwxw7gR95PsvCHwQ87GJl2MMw8H4Mf1l8z9UmVYzH4Yb3OtC4y+GHww+CHI34s0wEGP9Y7zAx+rJcxgx/rZZwJ8CNhSSL4YxfwI+8nGfjD4IcdjEw7GGaej8EP66+Z+qTKsRj8sF5nWhcZ/CgKfoyiUWY9Qarpd1vmpKsUjZOJazGSMTrSPKqXeU4egx/zZBmvTTD4sV7GDH6sl3GmwI+EJUfBHzuBH3k/ieAPgx92MDLtYJh5PgY/rL9m6pMqx2Lww3qdaV1k8KMw+NF35Bj8mOt8MPgxV55GYILBj/UyZvBjvYwZ/Fgv40yCHwlL4sEfu4EfeT/6PgPWy4nBDzsYmXYwzDwfgx/WXzP1SZVjacFPaVUDOV1L+zZb2m79++h2fTP97cQ5+ssXp+nRi35aCG6RKvfD16F+O2Xwoyj4uTvoJnRKtR05Bj/mOh8MfsyVJ4Mf6+VpJGMGP9bLncGP9TLONPiRsMQI/ug72omgSTrbcQ7ZsTdrru8zaI+b6BrfTX2gM5crhDNxrqiKhqZdajsTazEamlyk+897qLj6sZjK6p5Q4/Me6hufV/vaQ6k5B8+7Rqi0tpmetA/l1H2l4iTmC/h5710Xz7mqoUXodGlNM1U/bKPukRma80dz5vnPLIep8t5zqmvuoEl3MGfuKxWdxr568ONyew69F/TvI7uBn1lfhHrezFJdU/u+rcazb2oboNE5b848+yn3Gj1o6aPKhj+oa3ha2fti8KMw+JGdNgl/GPyY63ww+DFXnkZQgiN+rJcxgx/rZczgx3oZZwP84B0LWKKHP/qOdiJoks52K8CPvs8gf2Oe6BrtBX5i1PC0i84UVtFXP16mb09fodMXy8X83/+5RGev3Kbn3W+U7XjHcw5bekepuLqJxhx+coZi+9ff9KKfzl6upPqm9v118Y6Rq+tzHfwgaqN39AMV335A3/xcRF/+5xKduVRBP54rEcs/F9wUjvPoh2Vb6QCA1dXbj6jz9UFHGLDn0vVqKr39kGZ9G7a6JzPbmBb8lFQ1EMBPoveRncDPO2eAbje20KkL5fT1qUL64dfr9NP5MrH89U9FVHTzHvW9W7DV858PbFFVw3O6+7jjwHVPuoJU96CNLhXXUkv36IFtZurMcY/F4McG4AedNsAfBj/mOh8MfsyVJ4Mf6+VpJGMGP9bLncGP9TLOFvjB+1UPf+wOfmSfAXM55RL4udfcIZzhEz8XUcPzXuoenaX+CQd1DE+L6IivT12m//xWSs+6R5TtfBt13qsb/qC/nfiNBicXybn2GfzAoRicdNLYwoqt7sfoHtNdl8vgx7EWE8/3l0uV9M+TF+j6rfvUNjRJAxMO6h2bE1EEpwvK6csfL1N5bTPZCf40tfTRf395hh486z6gu/OrWzQ0tUgjs0sH1qerH3b9nx78INUr0fvILuBnwrVKN2ub9yBmYSU1tQ8JfUZEZmv/O7pe9YD+/UMBXbheI+y3XZ7hnH+TTp6+QmcLKw/oLnR63LEiomVVjmJj8GMT8IPO25w3xMWdTXxeDH6sd+Y44sd6GQP8dEytCAdPOqyhzW16Mu7nQvAm2QsGP9brcTbBD96v2s62bEeJYMlxtlsZ8SNhj4wWxu9E12qXiJ/2gQn64ocCAvSBU3wwWiBGAASP2gboq1OX6UxhJfWMzh7onKvsXJRU3af/+ebsIfCj8jVn6tpyGfwgFeZSSS3933fnqaLuCY3N+w7oLHT85eAEnbt6W8CfBy2vbJP2Vfeglf7LAPxkSm9UP48R+En0PrID+IHONj7rEWDnYnGNgCEAJvJ5OIIfacyxQhV3n4p9iqse2CbtC1FM35y6fAj8yHtTfc7gxyTHwOhL/HHWocaP7LzJOSJ+anlUL9OcWQY/1jtzDH6sl7EEP3BcpcPK4MdcuTP4MVee8d6Nj8d8cQGFfA9aOZfwR7ajRLDkONszAX4gKwl/El2rXcDPhWu/izpEiI6J18EGJKh51C6iJ5BmgP3m/VHxxbm0uonuP+smzH+9Wi2ma7caqbVvXAeR9urwtP9/9t70LYoke/9+3vy+Mz3TPd3Tra1tuyOCbLLIJoIgiCCIIAoiyCaCIIggCCJIsRdgsQoCzv96nus+RRRJkrVnFlXFeZFXVmVlZkRG3BEV55MnTnQPUX5pLcXdKubtTmktNWimkcGA6fwwSTfzHlLl0zYqrW6i5NwyKq1to8+Lm5w23nBnF1e70sstqeE4RHhDjLzVt/dRyu1y+u+FZPrHH9focnI+n1tV38G/v+h4T/GZJVTd8Jq/8/NVNVJe2TNqfzdGOfv3TsoppfuPm6jXID4T4k/UNHZRSl453zvldhmVP2mh6uevOb99Y/OHvIzcle1xHY9W8AP9PGt5y8F64dUzZFvmOtaXM4zmurY+Oh+bSQm3iqnrwySf96ytj2A0P3zaSvkPntKNrBKu34z8CtbLYTDq1DQ8jMpqml16TMp5QLUvu2ls4WDKVf/4PN0tr+NpOvjt1t1H3Ga69qflwFvnQfVL1g7aUXp+BUGvo3NrnK/Wno+UmPOATl9Jo//74xqdvXaL209JVSP//nF2lTIKKim7pJbT/fJ1m5p7R+lWYRXrtBT3znnAecwqekydA+OG5dLUOUg596q5fSAfAGeYMnczr5zKaw9PxdGXaTh8dwd+0He7+z+KBPDzfsLOU7pOX05lbbkr63fjC5SaV06nLqWwFxDOQ3+ZWfSYyp+2UUnVC0rILnVptbiywTAmFHRe8bSVbt4u43PRB1fWtdN7TQyh9xMLdK+qkYoqX9CTxi5OA2lrY8I9b3/n6iOhp6KKegLoUVNvswof0dWUAvrX6ev067lETiv9bhX1fZrllw6V9R2Ull9JL98MsV57Ptq4XVY2dBJitaXlV/A1SLfq+Wsanv56RNeDXxbp/uNGl6YxHQ79NP63UvIe0uj8+pFr3JWv0XFD8BPIwOrz3IpACRMhUkXvwpEB8LRjix50z5kGPtwNvk/K8cq+o2WMwfHgzDrltE1LOZug5/SXNmoeth+BmD3jS5TVYpMyNqGMFVzb3t52lfP88hrVvJuX8jWhfNEflryZo8X170f65IHpNcpulb7CrP+Mqr6jgS3VeMQbuDDrd207UmlbsQ8FXFJlAgPC2zP09g8RDE+sFBOuwZ0xiP/lXAL9fj6RMP3JaFDrPLZDrb2j7PUTf6uYB+WAMIWVL+jfZ+LZY+j388lsmFxJyGFA9OfVdIJROjK76rpvbVM3/R2XxUZ5bPIdwobVdP6KvUX4DWkhNktT9zD9dPo6g5szV1IpJjGXKuraCUY9DLuryc74FteS8+hqQq4zZktSHk9Ng8Fb19JLabkPOF4RvCMwhSAxo4jqWt5yGgBKuH/B/Sf8HVMokjOL6eezCXQ2NpPOXEmj+NQC9oL69e9ENqQwTUiVDwyJgvI6ghF25nIqxd3Mp79jMgjxkH6/mMIeGYBXAALqmnDba8HPr+cSqLLmBWvaWzvKyC9jTUPXXR+nwu75Jpa3KCO3jHVV+tgJRdyVfe/oNKXkPOD4KIBAOO9+9Uv67/lE+u1CMk8TvJqYy/GgMGUMdZtX8uQQ0IG+0/OckPHslVSKT7tLpy+lcFyhwof1rnOhH8QY+s+5RDp1KZWBUy4AzOAET9FKu1NBv51P4jYErcIDD8b7vYrnhMDNXYMTlJr7gM7H3mLwc/lGDiXdukcK2A7aluns5VQ6fyOX2xzK4UlLL/3rzzj649JNOhuTTmgviHH029+JhBhHmMqpLZvqxi66EJ/DbRp5RdvCuX/FZtJPp2MpK//hofO114bLZy34ySuuosVlx6FxhtH/UcH9an7mcF3VC0C7qWuIfj4TT4lZJawHd+WNPvJBbQvX292H9Qx1XnZ94DqEpgFX/rqaRjfSClljqN9rqQXUPzbnqltAn+zCKu7XoWX0n+iH/7iUwrBSwR/ASuQHmobGzsVkcD+qwA9A07nYW5xefOpduhCXyRqHp50T/uxSVn4FJaQVsqZPXUzmfjqnsIp/B7TNLa7hfrb6RSfnr61vlNsI2uLpy2l0MT6b/0cwxQ3H0OaGpg5g79uRaUrKLuX/pHMx6ZSQUUSnLzrP/f1CCrfz4ZkV17O7K1dPxw3Bj3pD5G2goP1dwI+5b0QF/JhbnkaGiYAf68tYwI/1ZazAD4y83d1dHgwL+DG33AX8mFueRv0xjoUD+NG2I+0Yx+zP3gxWBW3M2nsb10UC+HnV94kBSGxynteBL2LiIODz+bhsgleAAj8wlv6OzaSapm6eWoBVZerb++lSQi6DIsQLgjHSM2yjv69nMWR60txDeIONrbFriI/hN5yjwA/ui4F86eMmvi9ABeBUVf0rhjpID9f3TyzwymN/XcugzIJKGvhip9GFNfpgW6Ib6YVssDZ3D/PxT/seGO7AD946J9y6Rx0DE3x+a++Iy2iofO70FoIBgDhImB6HWBrNPR95KlHf2BzlldTQL38lMBgR8OPfSmueDCt/fhtf3qK4lHz69XwStfQMe9Q1Vvy6W9lA/z4Tx3WKdAB+/vPXDYYu1S+dmoam2vs/U0zyHTacqxs6CWAF5+cUVfH1qbmlBA0gbtSr/s+UmHGPp5EhaDrOU+AHoBMeRV1DNjZQ4XnU1DVImfkVHGz6zbCN45r0js1SQmYxG9z9E3aeigZNZxVUMFjElK/BySWXt4Y78IN2hODWFc/aua2gfRZXNbJ+U3PLqHd0hvOHPKDNAjjVdwy42tbzjgE+Bi+jaAA/Rv9H4Q5+xpc2CVAO2oGHpLf28LSlh+ssKbOE61eBH2ghI7+SYSN0Cr1m3a3k/wDARtwXugawBwy+kVFEbz/Ncl+IKb64FnASq4nhXAV+AAVv3i6ntt5R1i40/W5sjgrL6yj9dhkfRxt6B6+3smf0y9kbdP9RI4NxACDcG4AeYBIxfQBu8J/hDvxcTsjlNnrnwTPq/jjFWmXvvfhsbi+vNatQ3iqoZKgHgISVNXH/t6MzpDxdAcMsAT8Y4HgbJOgHQQJ+zB0YC/gxtzyNDA0BP9aXsYAf68tYC35gTG5tbZGAH3PLXcCPueVp1B+HE/hR7Ug/zjHze6jBj7dxXSSAnxev+umfp6/TDV1QTSPDAi7211Py6VxsJjW86neBH7yFLqttpc9LzmlYynh4WNvKHjC5RdVsnFY+a2coAkNZARicC4CEYwAmOEeBHxgTKbllBONc5Qe/YeoLABCmjN1/9IKKK+opt7CK3wrDcMAbXnV+clYJgx99cGd34AegCdO/Jh1OTx14DzV0vKdz1zLY6wdBgDEFITmnlD02GrsGSU0vQ5qAU4iDBCNGwM8xgZ+lLbp8I5t+O59MHe88x6MaX9yk4uqXbPiW171i3Sjwc/fhcxdUQd3CEMX0xf9eSCGAUjXlC54G8IrQeszhXADP388n8VQZXK/Az/m4LMJUQ603GO6F6998mOQ2AE1jQzqAUk1vhghaxH3y7lWzvvTBnd2Bn3+djuOpiyq/uAd0jLYFyNO8D8eKH71gqAVvEW2bAwiAVxE85KIF/Oj/j8Id/KDusOIV+kiAE9Shpw1ToP6KyaAb6UUMZxT4gZcYdKj6N9wDU1bRr6N+Ee8N8bHgYQmda+O5QdPwtrkYl0XxGfd4+qsCP9BRXWsv990qX9AN7g1dw5uzpLKBNZ15p5y90FKzSrhN4XzASOWZqa7H3hP4uZKYRy1vP7raEWDT/X2giWmNo3Or1NE/RmdiMuhaUt5+vKMDD0xAU3i6Wgp+vA0S9AMgAT/mDowF/JhbnkaGhoAf68tYwI/1ZawHP+ib7Y4Nmepl0jQv9B0CfqzXcbiBH7QjQFT9WMes78cBfpB3dy/1IgH8wND86XQcYYqKdsBt9BmBn+EqfzUln+ODKI+f89ezqOnNhyPXI4bI33HZFJN4m98YA+5g2gmmlp2+mkF/xjg3fMYx/IZzFPiBwYulqfV5aesd4aC8MEywYhfeggM+wXCAUQLPJHWNv+Dnz6tp1Njx3nU97tPe94nwhjk+vYgQjwXeQ/CMgGcQDB+Vltrnlzzh/Aj48WycqvIyew+DMzGtkDVVsz89xF0aCPqMWDu/X0iimpfOqYYAP+egg65Bl1Gprse9MRXqt3MJPN0GsW+gO6yypfSs9n9cTuXfLiXmUe/IjAv8YIoVPO3UPbHH1BnEEzob42wLrOmz8WyMw9MG3m0wbHGuv+Dnl7PxVKSL34XYQzkltRwE+EXnAN8XsYBgCMOzScVfUXnENLN/nYmPKvCj/T8Kd/AzvrRFTzFt7/R1jv2k6sXdHnFx4JEIzzJ42ijwk3uv+hCgVNejz4I3EGAjoDy8faDrU5dTD+n6j0up/H8BeNn4esDl8YPpVgDx6n5q//j5a7qUeJu971RfjanB0DSmxwIm4dxAwI/qj1Va2MMTD9MoMR0TXkOIkQUPpdx7j12gVp2PtBPS7loPfiA0X+aG4zwBP+YOjAX8mFueAn6sL0+jMhbwY325G4EfePw86V+QGD8mwR8BP9brOBzBjxps+zoOwvm+bscFfpA/o+eJBPAz6dimC7G3eJD/9GXPkYG7GiRPLG9TXXs//XruBmUV17D3gQI/l+JzDKfUdA9N0vn4HMJbZkzJQswdvFVG7Jy03FL+jmNqy8gr52DOh8DPvepDeQJ4SeApNCmUmlNKTd1DNDTjoLa+T3QlOZ8uBA1+0tmgUc+Nffu7T3QFcV4AfgYn2IiC8Y+VdbTeReqawgdPGUYJ+Dke8APPGLz5Z4+x7JJD+lF1pPYI5H01KY9BnpoWBvCDpaWVJ4w6V+0vJuQSYMrI/BoHJYcRC1CkdKzfw1sGng/K4+dqcv4RTyR4zCGW1NXE21Tf/o4GJpdY1wChgECY5hMU+NkPyK6eAR4kOfdr2SOpYR/8pBdU0h/nk0g7TUadD51HI/hR/0fhDn4A4jA9CZ5l565nEQJ9q7rR7+Gxc6esjjVa29rL8FKBHwTVhxb116DPAvjBfnRhg6+Ft5pey+p7UXk99XycdoEfxI0CENfe93l7H08B/ismjXIKH/E0K/TVLzoGGMpiOmZQ4CfjHrcpbZqIA4S4a5jWBfADz060qzslNYbgJ/nWvdCAH3eDBP3gRsCPuQNjAT/mlqcRlBCPH+vLWMCP9WXsDvxIcGfzyl7Aj3lladQXq2PhEuMHUEY7xoHnjxEs0Z7j7+fjBD/Iq/55IgH8YNCMwTEG/XDv1w6itZ8RdwSBOeGR8HQ/QLICP7/+lUDV+4GZtdfUNr3hN8apOQ94EI6YJHjrm3P3EXtLIG7F4e0bx5fwBH4aXg/Qn5dv8kpF8NZQhgPik+AtdCjAD4AW3jZfjs/hqQTaZ8bnxMxi+kmmernVkr68rPg+POPgQMdY1Q06NEoDnhBYvQrxRrBSnZreBPADj4eyp22uwMzq+q6BCYLXw4XrmXw+IBPiAcFj7rCWD7QNLyEY7u7AD1aMS8gsYe0CPkH/Kr2buWUMsEIBfrDi2H/+SqCalz0uyKTyUfkMwdDjos7jR/3HFJSGd3Bn1AOADTxZ4N2Yd999nB94h526dJNiUwoYVONaBX7ibhZwPDJVr2qfnOlc2RHB7wEF0ddj2iti9hjqenmLgZKa6mUEfooqn9N/EDS+voOnwCovsqr6doaZoQA/zV1D7AGUmF7oWh1PPTPaGUCa5VO9lMgwQNAPEtRvai/gx9yBsYAfc8tTGRbavYAf68tYwI/1ZSzgx/oyFvBjfRmjbw5X8INxjtnwJxzAj3ZcFyngB/AkJbOYvX4QC0EFe8UAGYYtvGnOX89kY7iwot41/UWBH0AjeCq09426DNae4SmKw3Sbs/G8Qhfug+ktiLsCQxnBoZUhAE8GrJwEQ6N+P04EVvXiqV46jx/E28FgHUv4AvwgjwgOiikNOF8PfrILH9G/zsTxMtlOA9zpheIuxg9WIsMUBmUcYK/3+EG+sYQxDLDMu49c+cC55TVY8j5Jgjt7iUGiLV8rPsOTjVdBOutcca5qP36PSgsaT8sr5zqMTb1LrzVLm6sYP3/FpBOmN6prsHqXc+rgdSp51MjBlvEbPNj+ceoae6Cpc7EKF6ZXwfAFXMJxd+AHAc3jM4o5jhSCiat7ALZgug7alxb8FJXXcVvNKah0nYtr3MX44alePnj8AJBhlSSsGobA0iofKCu0q2gK7qx/EQGPH3hWcVm/6DoE31Q5HP9+h+OLoY9GrB+suoU4NSpf6I8fPe/glQzRRz7nKavOmDYK/ECnRQ/rD60Khtg78MT8OyaNQTr64+wCZ8DnpMxi16qMAEKASn9eTqWse9U8JcwT+MF/BfIJbzYFVfs+zfG0WY7no/H4GVvc5P8KrAA2MnOwCqSnGD+IM4Q2pZ4fe73HD+Jo4X8Iz1dW3ewKyI5zc+5W0v/9ERM68INBjzf4I+DH3IGxgB9zy1MLfNRnAT/Wl7GAH+vLWMCP9WUs4Mf6Mg538GM2/Dlu8KMf10UK+HEOnHcY/sDwwRSZ2KTbdCuvjLA0O47BKwIeAdpBtgI/iDuBgTWAzo20uxwoGh4TuA6rbGHwrq4rfdTIIAa/xd/MZw8CfEZ8n7sPnvJ5njx++j/PEZa9xjWXbuRQSlYxr76E79j04AfLuisQk3G7jN98Iy/BgZ9dNsCwDDjKCoFNU7PvsxcIyuHnM3EMAmSq1/FM9VJaA+h72tzDcWugDY55kl9BSRlFDDFRd/DcQpwedQ32CvxAk4jdg2Wv03JK+RrcB3FBEGBcXTM09ZWNZoAReP6g3cAjiO+fVkj9nxf4XHfgB/epqGvn5aaxZDaC3l6Ky+J4LkrXWvCDYLlYWl7lpfyJc4WlYMEP8oGl4wGrcO/kzGJeZpvjcp1FXJaY6PX4CfPl3JXWsAeIQ9w01BGWYoceU3Pucz+EY6cupfB0Qe01Cvw4+6ZYunD9FmXkldHF65kMEQEHu4cOYqONzK1RTJIzDUyVQt95KT6L07x4I5fa3joBpSfwg8DKF244/z+wwh28bhDfB3nEpvX4QVtFGgBC52LSCHAToDVY8IMyeN3/mbDiI9onngEByrGcO/KA5w6Zxw8GCGqQ4C4woIAfcwfGAn7MLU8Fe7R7AT/Wl7GAH+vLWMCP9WUs4Mf6Mo4E8GMm/AkH8KMd10UW+Nl1xoLo/MAA6Kc/4wgbBv0wAOvbel2GrjIoFPiB8QEjAsYHjGtcdz42kxDYU2sgq+uwwgsCe8ITB9uVG9kMYtTvAD8ve0Z4hSFMbVDH1R7eRIgZcepiCqcF2IPVwNJul/EqSN0fDwwYXPP4eQcvZ420CvanSDyqw3SDBCosc8Km4emvdDOnlFcsc3ojHUALGDDXUvJ5Og6CYat8fJhcYkMZAVDxzDC48ktq6FrSbQZhAn4OylCV2XHsAUqw6htijaCe4NmBuFQIBIsgx/o8KfCD6TSZ+Q8J08VwHQKbQy/w5tFfA6+5rIIKBjI4F7ARIBOrvKlzEXQ8Pu0uwcNID5twzpOmNzyVkrV0MYWXd0fMFehLG9wZ58LwvhSXyXF3EHcFxz5MLdPf1zLoUtIdThfGdG1rH+cFy7erfGCPODC3Hzyj05dvchBr7W8oFwBfTMtEXjA9CEF/ATWjaVUvZYdjH/4xfg63JUCRmhddFJOUx3WEeoInTmZBBQfe19YnPivwgyXbC0qe8IpfiNmE6wAatZ5D6lr03beLHtO5mAw+D96a8KB8+/Fg1UTEfsLqcFexwpZB3CGsEoY0ARORFlYPw4qQmBqWkFbomqqLNPF/gjhvOO+v2EyepoY4PWiHmGL8pKmLNQwPzJjkO5SYVXIIVuEeNY1dfO6d+7U0NP3VpXmsxIhl5ZWmz15NJUw9RmwugB+juEeqHHzZ/3+//3GKfv8d2x/0X2z//f3Q3Hat2LSDBP1xAT/mDowF/Jhbnlrgoz4L+LG+jAX8WF/GAn6sL2MBP9aXcaSAH4x9zJj2FS7gR43r+gaGKSY5j98sxqcVcnBLXwaRkXKOFvzUNrsPDB0pz+NPPmFUY/UbTIvQLsuN4/EZRbzqEzww/LlnqM8FlCh+1Mj6hIdWZc0LtlW8taOM/DK+Bm/MuwxWNQv1c5idngI/VY1vDk0NMTudcLsfgCum82BTsbOcedyhsuomBj93S52gNNzyrs3Py+5hnu4EfeYVV9HisoP+97//Hdqgca3NHWngR/u8vnzWgp+BycWw7pd8eR5/zsH/1OjC+pG2DJ2fupBMmF7mz/2MzvUb/KhBgt7zR8CPuQNjAT/mlqeCPdq9gB/ry1jAj/VlLODH+jIW8GN9GUcS+DED/ngzWPWD/2C/aw0Ho8+R5vFjNKD1dOwkgx9MzYF3062CSgZ6iGEBT5DS6iaOYwTPjmDfInsqezN+E/Bz2ItClelJBT9tvSO8uhmm2mBJdxjL0DVWk8LKfJimo6b4qLIKx72An6O6PsngJyO/gj1LS6tf8lL20DT6PhXHKOvu4VhZgWg6IPBjBH8E/Jg7MBbwY255aoGP+izgx/oyFvBjfRkL+LG+jAX8WF/GkQZ+goU/An6ODvgDGcT6es1JBj+YPpRXWstTexAMN+nWPV4V7ddziRxnCEF6EdDa17I8jvME/Bi3l5MKfqDBqucdPFXmjwvJPEUH0zcR3+uXcwlUUFpLthVnsODj0KuvaQr4Oarrkwx+3o8vUGxaIU/xvJqQSzez79PFuEz+fj21gN6NzQXdTwcMfvTwR8CPuQNjAT/mlqeCPdq9gB/ry1jAj/VlLODH+jIW8GN9GUci+AkG/gj4OTrg99VYCuQ8THN6WN9BMSn59IJX6Qpt+oHk2cxrEBeo4mkbxdwsoHNxWbwhmDXiXhyeKhOe5SLgx7heHjd20eWkPKp79f7I9BAz9ROu90I8r5ScADwxQAAAIABJREFUUjofn8OaTsgoIqwwFu4gU5WngJ+jusaKiglZ9yn3XjUhbo4qq5OyB/zJL62l8zecmkZ/DZCJWElmlEFQ4EfBH6z4JeDH3IGxgB9zy1MLfNRnAT/Wl7GAH+vLWMCP9WUs4Mf6Mo5U8BMo/BHwc3TAb8agVu4RneUq4Cc66/Wkt1cBP6LrULeBoMGPgj/j86t0v2uGlFEt++AGygJ+gis/X/Qn4Mf6Mgb4afm4eCgwHfqMnvElymqxSX/REHwdCPgJvgy99RcCfqwvY9RBVd/ckb4C/QW2YGPc+HM9oIxK19e9vwGfBfzIgD/UA/5ITk/Aj7SXSNavu7wL+BFdu9OGVcdNAT8YGInHj7kDYwE/5pankWEn4Mf6Mgb4aR1ZIngFag0oAT/mlb2AH/PK0qifwDEBP9aXcaSDH/Rv/sAfAT8y4LdqYB+N9xXwI+0lGnUt4Ed0HWpdC/gx4Y27O2MhmOMCfqw3NAT8WF/GaqqX3iAS8GNe2Qv4Ma8s3fXZAn6sL+NoAD/+wB8BPzLgD/WAP5LTE/Aj7SWS9esu7wJ+RNfutGHVcQE/An5O7HQbAT/WG3MK/OgNIgE/5pW9gB/zylLAj/Vl6a6MowX86Ps6fDfaBPzIgN+qgX003lfAj7SXaNS1gB/Rdah1LeBHwI+An//971D8iMGZdcppmz6x5eLJMPP3Ny340RpEAn7MM7AF/JhXlu70LR4/1pdxNIEfbV9nBH1wTMCPDPhDPeCP5PQE/Eh7iWT9usu7gB/RtTttWHVcwI+AnxMLOMTjx3pjTg9+lEH0dmJZgjub1PcI+LFexwJ+rC9jgJ/HERzc2Qjw6Ke4as8R8CMDfqsG9tF4XwE/0l6iUdcCfkTXoda1gB+TjC93b4oDPS4xfqw3NAT8WF/GRuAHxk/vl68CfkzqewT8WK9jAT/Wl7ECP/pA8AqW+LMqV7DnAsqodIPdu4M/An5kwB/qAX8kpyfgR9pLJOvXXd4F/Iiu3WnDquMCfkwyvgIFPO6uE/BjvaEh4Mf6MnYHfmSql3llL+DHvLJ01x8L+LG+jFH2WM4d4McI/gQLc/y53kzwA3BkBH8E/MiA36qBfTTeV8CPtJdo1LWAH9F1qHUt4EfAj0z1khg/lmlAwI/1BrOAH+vLWMCP9WWswA9AiRH88QfcBHuu2eDHCP4I+DmeAf/A5CI1vB6g8rpXVFzTQmXP2qmh4z2NzK5SqAfgkp7vGhDw476sPs6sUHPPMJXXtbOmoev69nc0PO0g28qO6HrVfdkddxsU8OO+bro+fKHHjV1U8qSFdV3d1EXtfaM0KZoOqk0L+BHwY5nR7+7tebgcF48f6405AT/Wl7GAH+vLWMCP9WWsBT9G8CdYmOPP9VaAHz38EfDjfsBvlTH2bmyOCsrq6FzsLTp9OZXOX8+kPy+n0t+xmVRU2UBD01+DGlC7y/eQbZlqmnvoWVsfDc84LEnDXdrRclwLfn77O5EePWnk6Zje2lFGfhn9v99jeOv6OBV1ZT8wYaeS6pd0KSGXTl9KYU1jf+5aBuWVPqXBySWyrVoDf1p6R6iirp0GvtijrlxD1W4E/Bj/DzS9GaLEzBL67Xwia/p8bCaduphCV5PvUGPnoGV66+gfo/u1LdQ/bo9awCTgR8CPgB/x+LFMAwJ+rDeYBfxYX8YCfqwvYz340cMff8BNsOdaBX608MebwRrsM+ivR9qett7+IYpJzmMDOT6tkHpGpi0bXIfKqNKm83HGQSVVTXTqUgrFZ9yjqoZOau4eoqdtfRSXUUR/XEimstoWGp1fM/25uz5MUnx6ESXnlFJvlJWrtoyt/KwFP7+eS6Cq2kb2DPTWjqId/EDHf1y6SZcT8+hhXTtruv5VPyVllRAAWVHFcxqzb5quadQ17n0+Jp3a+8csub+VegqXewv4OQp+OgcnKDb1LoPMwkeNBAiEvrqospH+ez6JLsRnU9/YnCWaK69tod/OJ1FL7yhNOr5bksZxa0/Aj4Afy4z+cPHscZcP8fix3pgT8GN9GQv4sb6MBfxYX8ZG4EcLf/Qgw8rvVoIfBX92dnbIymfQ39sT9MFv0Q5+MG0A8AWeEM9ae2l8acs1qH/W0ktnrqZTTFIevRufdx03a4D+6t0YxaTkC/gJYsqNHvxU1rzg2Fne2lE0gx9486TmPaT/nk9kkDlm33Bpt3vYRudinR5tVniZjS99o7zSWjp3NU3ATxC6FvBzFPyUVr9k+JJx5yENTS27ND06t0bpt8voH6diqaK21XXcrH4a9yksr6Nf/koQ8ONtwIDfP8+t0P2umRMLEdzBhUCPS3Bn6w0NAT/Wl7GAH+vLWMCP9WUs4Mf6MnYHfjC+QMyf7e3tkIESq8EPngkBn/f29kL2TN7GcdEOfhi+JN+hywm51Pp25JDRAMO4sXuYGrsGaXRhnT0ncktraeDINJkdwlSAzHvVVP7UaXh8Wlin6sYuyi55QhlF1ZT34Bk1dg4QDOMPtiWqfP6a4jKK2ZA5dTmVknIeUFHli0NvrLuHJnnKTFZJDd+juKqRXnS8p0nHwRSdoWkHZZfUUn1bL9U0vuHzckpqqabpDSHGC6bbPHjS4sxD2TN60TlAyJuZRtFx3ssI/PjSjqIZ/PSOztCNzBL2jGju+Xikrl/2fKRn7f2sxarnHazbNp32UafQf879WnrwtI0+2zf5/Ff9Y3S3on5fZ09Yn8rLoql7iLLuVdPZa7fol7PxFJ9Zwue19Iy4gCqmN1bVI02npvPL6+h5+7tDeYR33aP6Diqpaaa23lEqrHjO9yl61EhvhiYJdV7f3k+3S5/y8bLaNsLUtuPUodlpC/g5Cn7gSfafcwl0t6zuSOw1AM3atj4CyMdn9MXw1NTXC+JbVdZ3UMHDeoKW8fu7z3NUVttKWcVOTRZWNlDn4Bf68nWb9ZdfXk9/xWbSP0/FUtytYsoofEy1L7tpYvngJUFday/llz1jPeI+VQ2vqX98wZU+NFvb3EP3n7Tw/wDSwP8C8gFPJrxwwFS12w+cmkZfj7hz+vxb+d3Q4weDHn+3ycUNKu2eFfBjkgfRw7dzR+rgy+I6lb6RMg4Upumvq+idP1LG0H2/bYWyW6dEyyZoGeCnbXT5SDn3TTpkOXcTyheaTn85eaSMl9a2qPa9XTRsUhkXd83QnGPTjY6lr9D3rYF+r+5fOFLGaiwCI293d9ft7+q8SNkD/GCDx0I45Ll/cIRiUqJ3qtcH2zLl3a/lKV0Z+RXU4yHey92yZ2x4lNU0uwxZDMQRVPR20WP615l4KnnUSPCwKK9tpTNX0+jMlVS6mpjLMYOuJOYRptvAI+P+4ya6FJ9NmJ70+4Vkupp4mzLyytlowT1hiCdmlfBvF+Oy6GpCLk9ngLfGk6Y3+wbBDoMivOk+G5NBf13LoPOxt+jPyzf5e25xNeUW19C5a7foQlwWT2dDzBfEFNIaLVYaE1bfWwt+MIWpqraJ2423dpSe9yBqY/xAfwXl9ezxk3q7jNrffWJoY1QX1S866afT1ynzzsNDRub40iZV1r9ifaJ9jC9uUsf7cbqeepd1dPlGDnvJ/X4hhcEMgM7Tlh5KzCii/15Ipp/PxNOl+By6npJPTV1DrDfE0sosrKJTl25yu4hNyaffziWwB1LF0zZX+vDmSM4spl//TqQrSXl04Xom6xdxXW7mllFBeR174SEPaGN/XEyh/AfPogr+aMFPblElzS3Yvf4fFD6ooZ/PxrOuq1900RfHtqtMjeo+0o4BEJ6JyaDzcVkEvbgD2Ohf0Q9CG32fZg+VQdfQJP+GabwApP2f5+l2yRNnbLfYTLoU7+wnk7NKuC9uaO+nmzmldPrSTQY/0Bw0DXipvEPxf4D+Fx520DT6fMSKg9Zxf5Qz8pRdWEW/nk+iv+OyuO2gX8dU4uTsUvYoikm5w/8J52IyuN/PvFsZUvhjCH70LsK+fJ92bFFZz5wYGiYZGmXdM0fm44/NOahEvKpM01h5z+yRMoZx0TuxLFDCJB1rvVG0/cjA9JrANZPKGOCnedh+KNDl6rddejq4ZFpbCdSQj5br7nVO09Ti6pH+omd8SfoKk3QMrTwZsLv1gFEeKzD01Ger9gAx2v7Kis9IA/nH8xgtX2/2s3l7hg8fP1PszfyojfGDeA2ItZOWV06nLibTleR8yi6uJgzmez5O81tfZSDhTfLZaxlsHMADSB3HPc5eSaWzMek8wB+0LdGFuEw2UGD0wksBcVZ+v5BEtwqreJoCDAEYD5hiFpdWSA0d/dT7aYahEbwXknMe0O/nk9iAR6wUGCyIO4QAvTBouodsHJwX3hYIUvzvs/F0u6SGXg+MU137O4pJvsNeF4BN8J7AW+WKulecp6Ss+y7ApJ4hUvd68FNT18xt1Fs7Ss29H7XgB3XZP7FAmYWP2IC8cCOX0vIrWNPwcFMGK87DqnV/XU3jYLlarxl4i8XdzKfTl9PoZdcHXgkMAdARC6ug7JlTjy29HENIecvBm6JzYJw92f64kEQ1Td3U89G2Hx9rh3JLauiXszcIgLWtb5Q12NTzkc5eTWNDub6tj9sUwE/SrWIGUjcyinjKGNoAglKjTeD8/AdPWdPwaEKMLLSJlz3DrjYZqXpW+daCn+zCCrJNH7VL9P9HReW1UQ1+0NbLnrRwXQOswKOssKKeal500sTyAeQC8CoofUr/PhNPD6qbXJoYW9jgPhCA5m55PfftLzoH6cyVNLqZV06tvaOsqayiKm4Pjxo6GSYCEKXk3Kd//RnHXpzozxHwH8D/WXMPt7FzMenU/HaENd3ydoShD7yT0GZQpwr8ANLH3CzgFwDokwEx0abw3wN9A9J2DIwTgC3iFiFWl3aqptKHFXsBPyYOWs00cgT8WD+1oLxnztCAEPBjXtkL+DGvLN31LwJ+rC9jAT/Wl7Gv4EfBErPBiPZ++oG2N2gSyO/KYFXPYzX88ZbHaAc/GEDDaIBbPtzzU3Mf8BtheBFcSsyjO6W1NLjvcg/Xf7z9xVv1Fx0DriCfj5930L9Ox1FmvtNr4v0XO526kMxGce/IDA/8MX2l/f04dY9Mu7xtmroG2ZNBH9y5Yf/NdmJmMfV+mnWtIoN85pfWciyL0qpGF/j5xx/X+D6YQobnQVqlNc1sqOCts3ozjmlfAE+ATZh2ZoXxEOp7egM/7tpRtIMf1APqu669nzILKuliXCZ7LZyPyyYYttC7Wv46524lQzAVHwWGMwLnwhstPqOIPi1s8L3S75SzkVvxzOmdg+DQ0HPH4ARPK0Sa0FpK3kM2ZLXBnd98+MJeEfCYeMuBzA+mK2LaDKbRZOSVsSYV+IE30aP6V3wMeW3uHiZ4Q1xOvE0t+1PYAF0r69rZeC6tsSYIe6g1jfQE/Byd6oVyAZDs/PCFcu9Vs+cNvCVPXUql6xn36Glz936ftsPePOyBc7PA1c9B81igAN45anohYPrv5xMpq6iaPvAUXrSbRWrrH+P95L7XVNbdSu5P9cGdU7JK6P/+uEZ1+9ASeYRW8ZIAHp0X4nOoZ9jmAj+AOYhVpDwuW3qGeeU9rE7W1PXB1SZrGrsIU4DRdrXxjKzUooAfAT8n1isA4MdosC3gxzwjT8CPeWUp4Mf6snRXxgJ+QlP2vnj8KEBjpedPqMGPO6NVPasZewE/BwYG3qzCWO7+OEW1LW8pYX9Vr6y7jwhTwjDorm3qpl/OJVJqTqlr8B6TmMvTvFr3jVF4AxVVNPBb48tJeZRVWEWVz9o4DpB24O4O/DyocQYxxZSZy8n5FJNa6Nr+vJrGhgamwmA5bnj84C1yXOqBgQOj4lnbO55uA88IlSae725FA3tNIN6EOh7Je1/Aj1E7OgngB/UKLcDbAKvxIbaPWtULUBGAEOdA84CZVxJy+DuATm5RFf3nXCKVP2nmY7gP4kMBvPx5NZ1ScsvoXsVzhjGIW6U05A78VDe85nhWgElXUwpceoa24ZEE4/livDN9BX6QDmJaqXt3vP/M0yaxshM8i9RxTDE7ezWdsooe0+CX0MZFUXkwey/g56BfNipbaAR9H6AjPB0B2uEFBIiI8zFV8Wb2ffrtQjIh/g4AITx6MLXq5u0yl/bhzcPenpduUmxqIYN1gPx+XTB/d+AHXp7wuLyYcPuQptFvw+Pnj0sp/J+hPH7+vJJGTxq7XNrtGpyguLQijjHX3jfqOt7UOchxhRJv3WMAZVQGZh8T8CPg5wSDn1lDN3sBP+YZeQJ+zCtLd1BCPH6sL2MBP9aXsT8ePzDwAO2tgj/HAX6MjFYzgI+6x0kHPzB+Md1FP4iGMYs3v/G3ink1l9Y+5zK+MGyxbDAMCAzmOwcm+E3w5YQcVxwVvPH9OLvKb+3TcssoPrWATl++yW92tcDFHfgpfFjPaeKNMWKmYNqLfrvLQMcJfuAtgTfZ6hkmvm5TfcfAEfDzeXGTsAwyYuHU7BtI6ppI3fsKfvTtKJrBD7witFMRVd3C+EVg8oRb9xj0VDdgiowzQO2N1Lv0rzNx1NgxwMGTz8WksbeCtm1AP6/6P1PRw3qKT71Lf1/LoNNX03k6opom5g78wJvo13OJPK3MSNMAmXdKnrCGFfjBinpNGs80TGO8mpjHS3prwQ8Me3hx3CqopPcTBwF11XNH4l7Az1HwgzhSiDWlr08EIa982kb/PB1L15Ju8+/wWqtve0c/nY6j9LxynqqIeGeYVgUPMXUP9JWDtmV6/KKL0nJKGSwiBlV8eiFP+1LnuQM/uN/PZ+KO9M+qv84qqKT23lGXxw+mJOLlgbrvmw+T7FWH6ZJa8NPcNcSxr/DyAWBWnW/lXsCPgJ8TDX70gwR8F/BjnpEn4Me8shTwY31ZuitjAT+hKXt/PH7QV1sFf44L/Bj9H+GYGdtJBz9YjSslp5S9BYwCO2cUVHKsEQREVrFRAF0QP6KksoEwTQZTrcprnJ4RgD5YXhgDdEwNQywIGNuYUgBvCQRsxltm/O4O/Dx+/poD4GIaAceTsC0TjB7tBuNeefwI+Gnkt+4MtHQxfvRtRMXOimbw0zX4hdLzK9mTAVNO9MbinZIa1m9h2TMXrKxv7WUdw/gtr23hWDwKxOB6GNyYCgN4BH0Dera/G6PknDL2tnne0c/puAM/ja8H6PeLKQTvOOhfq2X+PLXsmi4m4Eemeuk1i+8lVY10KfE2IS6PApbqPGgekOfPSyn7et9hL00Eaz4bm0l1rX0cGyo2rdDlQYN7wLsN9wDUhO76J+x0r7KBTl1MIQB4xK3C7+7AT0zSbfa4fN7Wd1TTtmW+Hi8RlMePgJ8whSvuBvnhcFxi/FhvaGiDO6tBAgYPAn7MK3sBP+aVpbt+STx+rC9jAT/WlzH07S/4QX9tBfw5TvCDZ9L+H+kN2kC/n3TwgyXTE24V80D/8YtOlyGMwX5z9xAHQ8bKQ50fJhm04Hj/5wWeVgCvCARsRmBObQDO9xN29u7JKa7ZN0J2OWAn4jhcTc53TflCfAe86b2alOc6hvvDiwixIbCKETyEMG0Bx7FlFlSwIfOUp2qJx48/Hj+qjaAdpd0ujdrgzvDSySx6TL/9ncDBcFFGSj/wzLmanMfGKuJUqZWfYJwiQDmmfF2Ky+IpMtCn9jqsShSXXkSYhoLjMGYzCx/zakbKgwzgE8tZ//rXDarveE/wqMC50HBMSj57oRWV12sM9x0CSD0Xl0Vl+4F4BfwI+FG60+4rnrZyjClMa1UeZur3/JIa1nRSepFLs5/tm1RYVseQU62gmF/61BVHB+C8/vUAx4yqdq2UuEtVzzt4pTjE11HpFDx4yjAU8Akxr1S6BfdrGZhipa+RGWc7Q5tC8PKY5DxKza/gaWUCfgT4BOxNI+DHekNDC360g20BP+aVvYAf88pSwI/1ZemujIs7Z2RVrxD8nwcCftB3mw1/jhv8aP+PlBEb7P6kgx8M0p+19NJfMen0y7kESswsoYLSWg40i7eziJ8DYwHTCdRgH8Ztxu0y9gRCbBIs5a5+wx6Ga2xyHhsKmIKFeClXEnN5lS2s3KLeVo/MrVHeg6dsDAP+3Kuop3ef59hTCMsVI7gt4gklZRYTDJsz127xW+3U7Pv7b6oF/AQCftBmohn8wKBt6HjP0PLnswkUl3aX8oqrKTO/gpfD/ufp6xzE3Ok1djCl5m7ZU4ZhWL0IU0yUTqFpePJU1LUzGDp37RZl360kLHmN6VuAlyrYMs593PCawShW38JUF3gdoZ01vxniFZkAl3B/tDNci++xKXdcQcgF/Aj40fan6jO8cjLyH3K/ev56JuUWPWYNYQVDaAgryR1evt3ZPyLIM/pxLAUPDar7Yd/cM0wA8gjmj7htCNCPuD2IRYXVEeHhhvOw4hxWuPv57A3KvvuI7wOPTgB/QB94XZ66nEYF959QSnYJL9sODzdM68L/hYCfEAwU3Q3UI/24gB/rjTw9+FGDbQE/5pW9gB/zytJdnyYeP9aXMcDPzPLRKTeynLu5ZR8o+EHfbSb8CQfwo/6P8Fz4HOx20sEPBvVYLQvLqSMWD6YLYcrAT6djCSsQPWnq3p+CcrAKERsCrb30059xbCjDQwfH1IaB/rvP82xI/HI2ngHRf88nU15JDb0bm3edBwMdKxzBOIahcTEui171j/HvMLrh1YM8wahBnuCRgVW9VFBemeq1y/Foih/5PtVLtZdonurFmv66zZ45DGdcmr7O0w3hcQO4Av0ozWIPTwZo7d9n4+lhbcuh33AupmSVPm6iM1dSWdP/+esGxabk04vXB55DnPbyFgFcIlbKT6evU2V9BxvIgD9oK2m5DzguFjSNe9wprqFP9gMvCgE/An60utR+HlvcpOLKBo6ZBkAJDaGPBbQZnlnRePM4+2OAYcRZQ3+elH2fobr2foA3WC0OOv75jLOvxksA6FcLRvEfUVX/irWPdAGd4FGEewH+5BZW0V9X0S7i6N9n4rjfxn0VPBXwI+BHPH7CWANG4AeDhb4vXymrxRZw3bkz0E/icQE/5hrGRhoS8GN9GaupXpg6oAwK7AX8mFv2wYAf1IdZ8CdcwA+eyaxpXwJ+nAYC3uxikI4pL5/3t/Hlrf03vocNZAz2axu7GPzEpdw5Ymw4DYudQ/fDfZ3TXnT3Wtnh4/gdMYQAjZRhos8Tfoehon7HHucjv8rAUL/h2oM0D6AUrsdx9SZbnR+p+0A9fqId/LA2HIc1CJ1A004NHehM1T2M0/+cjaeL8VmuKWDqN+d+h49Dh3yvfd0ZaQnLYENnOA/AR90HetW2MyONAjI5z1Htb7+Nruxw/vGbvp0gTzDO9TBLpRtpewnufNBn6esOelLa0upQfx6+Y9ojYqX9dj6ZV1Y0OueoJpXuDrcRp6ad2ndq7SCP6NuPtAtNX86a3j9HLRGPvLjSdv3X7Gud+29oGsHXD+fD6BnMOCbBncMUTIjHj7kGhZHB7A78wOMnu3VKwI8JbUPAj/U6FvBjfRkr8KMHCwJ+zC37YMGPWfAnnMCPWfBHwM/B4N2fwXNCRiFPH8BqMv5cJ+cGVt7uyk3Aj3nliemE8NDB3l15y3HzyttTWQr4Cb6cAVW6hmy81Dtiq2lXqPNU9if1NwE/Jhi3RlAh2GMCfsw1KIzqwxP4EY8fc8pfwI855WikX3VMwI/1ZazAjx4sCPgxt+zNAD/6OsJ3f7dwAz/If7CePwJ+/DMwsCJRQlohTx24EJsRNZ4zkWrsCPjxT7/G9bzDU1MQr+r05dRD8ayMzzcjTbmHp7IV8BOcPuApg2Dhv59P4jhUD/YDh3sq85P+m4AfAT8n1rNFwI+5RpsCEdq9gB/ry1jAj/VlrAU/WrAg4MfcsjcL/GjryF/og/PDEfwgX8HAHwE//hkYCPKJIJ4I3jzwZVE8IzSxjY7DcBLw459+jeoIS1YjiDgC5rb3jYqmj1nTqCMBP8HpGlPBsvIrOEB+UXmdaNoHTQv4EfAj4Ef3RliCO5tnzAn4Ma8stUBN+1nAj/VlrAc/Ciz0SjwwU/8/zAQ/qo70cZlw3NsWruAH+Q4U/gj4Cc7AMDKk5VjoylTAT+jKWnQdurIW8BO6shZdO8tawI+AH1MH7lqDNNw/i8eP9QazgB/ry1jAj/VlbAR+YIS/lXhgpv1/JDZMUu2AndwBCm+wxt3v+rhM7s7THg9n8IN8BgJ/3JWrOv7h42eKvZnPq1dhafKekWl5e+rD21MxJkJjuAn4CU05i55DW84CfkJb3qLvXTIN/Mw4tqj87bxpg8BwhwZW5i+x4QsZQYnx+RV60D0rZWwCrEMZV/TMGr75fTe5TDltsqqXGRrPbp2m3snVI8bch5l1ym2fFi2boOVbzTZqG7GzlpXBurq1S3WDS1K+JpQv2gEv5760eqS/eD+5THdEx6boLO2ljdo+OY70FQpMaMGMv5/9hT+qHam0rdgjDX+fQ3u+v/DH2zMI+BEDJJyNIgE/os9w1megeRPwI7oOVDuBXmca+Fn9tkP1H5YIb+3MMBhP8j1SmyapYXDhyKDQ7lijuoF5SnohZRysPlDG9QNHyxgD60n7ClW8nZVyDtJoBlwreTNHc6vbR4y52RUnKMY5wdblSb4e5Xe3Y5o+zTkOgZ/t3R/UOvpVNGyCvpJfTFJV3xytrh2dIjS9tEaVvXMkOg6uHaP88l5N09DsxpG+QgELLfQI5LM/8CcSwA/KwB/4o8rR3V7AjxgggRoSobhOwI/oMxQ6C3UaAn5E16HWnGngB4OJoZl1ut0+LYPgIIyNJLxd7pqh8YWVI+AHA73+yWXKa58SwBZEGcOQK3o9TQh0Z2RAwMBDnJ/8V9OU3CiQLRCwAjiJvuDNxFFvH/QVez9+UM+XVcpqFS0HUr64BpA946WNIfHquhNKaA3WMfsmFXXOSl8RRF+BMkZ/++7LsmFfsba+QV1jS5TTapNyDrCcAX3SoeOhJdra2bMM/KCv9xX+aNuRO1AS7PFtcS4+AAAgAElEQVRgPX7Uf5ev8MdbfgX8iAESagPEn/QE/Ig+/dFLpJwr4Ed0HWqtmgp+MGjrnlilgo4Zgts2IEagRs1Juw6AAfFQAH3e2xw8QFUDO+1+eWWNDY3irjnKbJnickZZW7I1TVJaKDernkPdt2mSMC2mpGuGAZq2XPWfYdABspV3z7Dhl9M2RdmtNtem/679TX3OaZsmqzeVlhl7b8+E3709D6Zvof1X9C7Q++k12tn74daQ2/y+x/AHXkGARM57Hy7nYJ7L2/Pg3t6ex4zfg3kG/bXqmbCHp0/jhwWCJ6DSr9Zg3d37wXVwr2uW0psFTPjznwIYAa/Ago5pnkanwJoqZ+1+aWWdXn9aonudM9w/oB/32m+qPsmqfSj7baQV4HMA/KK/APRZWv/utq8AtNCWeTCffYE/2nbkDZgE+rtZ4Adl4Qv88ZZPAT9igITaAPEnPQE/ok9/9BIp5wr4EV2HWqumgh8MLDDF4LN9k1pGv1J1v50NQBiB+q2se4ZM23pmqbxnzu39yt/OHUlfn59gvyONYJ6nqneOWkfsLk8fTwM5eKQgplLX+AqXM8raiq1xyE5mbk3Di27v1zS8ZMkzaMul+eMSG2g2+9FYHe4MiSXHOo3OOhgC9X1ZJu3Wb3Mc+q79DZ8xbcHqTZ9mMN/fTX4lT880MLXq9XmG5zZo6usWffvu/s291gCB58/C2jaNLDjLCmkE8wz6az09D861un5wf32egvmu6ghQEjG/9EBCb7AC/qCvaPv0lareue+P/en/gu3r9P0k9909s277T3/yFui5R/M0y1NB4RWoL2N3fcXUolO7LSOLdNx9HfrTUPXdSEfbz/r6GfF8em2rNLn8zSMgVv2Fu3IP5Lg3+KNvRyoPZu7NBD8oA09jBvzuLe8CfsQACbUB4k96An5En/7oJVLOFfAjug61Vk0HP94GF+r3QAZrnq7xNJCLxEGct4GcKkcr957KO5DfpI7+53Xw7W99BlIPnq6ROpI68qZBsw1W6NGT0eotP2b87qlNBPKbtCNpR950GW7tSMCPGCChNkD8SU/Aj+jTH71Eyrla8JNTVEm26aOLzuht2KLyWvr5bDz9v99jqPpFF31xbMsKjLICo88aiBrwg8G5u8G2vtF4G5AF8rsVgzhPBlEgefT3mkAMHm/XSB2ZaxB5K+9Afpc6kjry1FdIX3c0yLNRO5N2JO0oktqRgB8xrMPZWBbwI/oMZ30GmrdD4Kewgmbmji46o7dhBfxIWwhUb7guqsAPBt9Gg219o/E0GAv0N6uMITwT3obrDYtA8+nPdfo0zfoudWSeQWRWnejvI3UkdeSur5C+zjfwgzYl7UjaUaS0IwE/YkwEY0xYfa2AH9Gn1Ro7jvtrwU92YQVNz8wdsfn0NqyAH2kLwWg16sCP0WBb32jcDcSCOW6lMYRn0sOfYPLq67V6GGDmd71BJHUUmIFkZp3o7yV1FFid6NuXvlzN/C51JHWk1xu+y/+R73AO7VHa0f9IwI8YE8EYE1ZfK+BH9Gm1xo7j/nrwg6le3v6PBPxIWwhGq5aAHwRs3dzeo9Vvu263heU1snKzOzYIG9JYXttymw9PefTnN6Rh5fPg3osrm640/MlboOda/TxSR+7bh691JnXkfz8i7Sg43Ulf57/mpK/TaW5r1+cA8ApsmQlMje6lHWxHw4sIPKP2hZEqR3d7AT9iTARjTFh9rYAf0afVGjuO+xuBH/3LCP3/kYAfaQvBaNUQ/EBkgWwb37Zpwr5OXeMOahhapKcD9mPfat8vUG3/wrHnw8yyeNI/H1XPI3V0/O3Emz6ljqSOvGnEit+lrwt/3QVSR88G7PRiyE49Ew6yLW3Qt63tgMYcgYxTPF2zs7PDsATAxNN5kfTb7u4uTxX3luf+wRGKScnjgKHxaYXUMzLtc7DIYAahcq0YMb5oQA9+qmqbfGqj6XkPWNMIhNv1cUo0LUFww0oDWvCTW1RJcwt2l67d/R8VPqiR4M6i44B1bAh+8ObL6I2Yp2NfV9epb2KZSrpmKLVpkhIavsgmZSAaEA2IBkQDogHRwBENJDZ8obSmSSrvmaX3k8texxzuPFXMPr63t3fIU8bTuCeY3wBizM67u/shLW/jut7+IYpJFvDjC4SQc0IPq7Tg59dzCVRZ88IFNN3pHscz8ssE/IiRHLCRbHVb14KfvOIqWlx2HPpfMPo/KrhfTf8+I6t6WV030Xp/Q/Dz7ds3r4ME/YDn47SDCl9PHxncCQASACYaEA2IBkQDogHRgJEGkl9M0v2uGZq0r3qEP56MO7N/U29a9eMcM7+HEvygfLyN6wT8hB5mRKthYcVzCfgRfVqhq+O+pzfwg75b/38k4EfaQjC6NQQ/GNx4GyRoB0BLjjVqHLJTcqN4+hgNbOWYGDyiAdGAaEA0IBow1kBGs43aRhbDBvwoDxltjBztmMeMz6EGP97GdQJ+xJgIxpiw+loBP6JPqzV2HPf3Bfzo/48E/EhbCEarbsGPt0GCduBjs69SRc+sePuIO79oQDQgGhANiAZEA35pAF4/1X1zYQV+MMbRBnzWjnnM+Hwc4Af5dvdST8CPGBPBGBNWXyvgR/RptcaO4/6+gh/t/5GAH2kLwWjVI/jxNEjQDnzG5x1U2j3j10BP3nwav/mUcpFyEQ2IBkQDooGTpoGKt+EHfrSDbe2Yx4zPxwV+kHcj+CPgR4yJYIwJq68V8CP6tFpjx3F/f8CP+j8qKJUYP8dRV9GSplfw426QoB34CPgRI+WkGSnyvKJ50YBoQDRgngbCFfyowbbZ076OE/wYjesE/IhhHc6GjYAf0Wc46zPQvPkLftB3w+Pn57MS3DnQMj/p1/kEfowGCTimNgE/5g1+xZCQshQNiAZEA6KBk6aBcAY/GOuYPe3ruMGPflwn4EcM63A2iAT8iD7DWZ+B5i1Q8COrekl7CFRzPoMf/SBBQR/sBfyIkXLSjBR5XtG8aEA0IBowTwPhDn4w1jET/oQD+NGO67Tg50pCLnUNTYbtEsiBDnjlusg1lj7OrFBBWR0vzR7ocu5t78Zo0rEjupbl3cNGA41dH+j3C8msa6Pl3LGqF/4rtDb3o6dN9J9zCXzNnZIamljeCpvnkT42/PtYv8CPdpCgFaGAH/MGv2JISFmKBkQDogHRwEnTQCSAH4x7zII/4QJ+1Lju84SNkrOKXYZ1bXMPjS99E4NCjOSw0MC78XmKTb7D+jx1MYWePm9hY9hbO0I8lH/9GcfX3S6uoZHZ1bB4HjGQw99AtrqOADOLKhvon6diWZ8llXW0tbVNgD3aTQ9+Xra/ccGiczHpNDi5JJqWftpnDfgNftQgAYMfBX8E/IiRctKMFHle0bxoQDQgGjBPA5ECfsyCP94MVu3A34zParzmbr+2vk6llXWEKQT/98c1uhifTdWNXTQ6v+bzgNJqQ0nuf/KMZXjo9I7OUFpemQvgXE7MpXcDIz6Bn7bOXjpzNY0N61/+SqDiygYaW9gQTYuhfKwaAIAsr22l3y+msDb/ez6JGpo76cePH4egD/p+PfiZmVugSzdy6B+nYhka3UgvpL7RmWN9HumbI6dvDgj8YOCgXRVCwI95g18xJKQsRQOiAdGAaOCkaSCSwI8Z8CfcwA+eaXB4jK6n5rMhAqPi1/NJdDkhl5Iyiykl575sUgYh10BiZjGdvpLmgj4Mb8qf0lfHqk/gZ3VtnW7ll9NPp51eP7j+fHw2JWeVhPxZpA1JHwINoD+9lJBD/zmXyJAdHj+ZBRU0Pbd4BPoYgZ/19XWqftZM0PL/+z2Gfjody20kIaNINC19tFcNBAx+tPBHwI8YKSfNSJHnFc2LBkQDogHzNBBp4CdY+BOO4Gd1dZV63n2gywk5bFDAqPjHqWtsWPx0+jrJJmUQag3887RzGgy0+K8zcZSZX0a26TnXjANv7QgeFF9ss5SUec8Ff+DRBmM51M8i6Un7cWoglv7xxzXuYwF9EjPv0fDoF9rb2/MJ/OC/Z3nZQXc10xjRPnAv0ZhozJsGggI/Cv5MLKxQafcMySDYvEGwlKWUpWhANCAaEA2cFA1EIvgJBv54M1jNmN6lvQfy6su2urZGw6PjlFtU6QogCqNCNimD49IADJmrSbnU1NZFS8tfD+nYl3a0t/eDPYTqX76mszHpPEXmuJ5F0pV2pDSAKYi1DW1kX/rqFvoYefyofnz5q4PaO3vpSmIuew6p+8peNOZJA0GDHwjwi31VwE+DGCgnxUCR5xStiwZEA6IBczUQqeAHY6BAAj77YrBqwU2wn5Wx4MseUwkAgGBYDA5/ou6+QZ+290OfKFRb78CwT3nS5r2nf8iva5BGqJ4H6Wjz6stnf58H9wzl85hRR2/7h2hicoq+Ohy0trZ2CPpAy762I3j+7OzucvDcickZGhgeC6gsfKkX7TknoY60z2v0WdrR4X5xcOQzTc3MsxahSaO4Ptr+Hhp312+jTaBtTM/MH+o//NWd1NHhOvK3nzSjrzNqO9pjZtWRKeBHpnqZOwAWg0LKUzQgGhANiAZOkgYiGfxgUO4v/PHVYNUaAMF8dmc4eDqOWI6eftf/BgMmVNv29rZfeVN59eeZkEaongfpqDz6s9cutOLLdaF8nlDUUSDtKJgy8KWM9eec9DqSdmTcL/ran3sCP3qtab9LX2dc7sG0f3fXhqKvM6sdCfgRTx2ZoicaEA2IBkQDooFj1UCkgx8MuP2BP4EYrL4aCkbnaQ0Cfz5rF/Lwdp1RulYdC9QYkjo6vFS0VfWD+0odHUyvlHYUOt1566fc/S51JHUUaH8YSX2dgB8Z7B/rYP8kvdGWZxUPDtGAaEA0YKyBaAA/MCh8BQuRAn7wTL4aRIEOmgO5LtCBttRR6Iw7qaMD8CPtKHS6Q1kHuklfF5p6CrR+pB0FXz8CfgT8CPgRDYgGRAOiAdHAsWogWsAPBqa+wJ9IAj++DrYDATiBXhMMVJA6Ct548KXepI6OAghfwIIvZWvWOVJHUkfoD+X/KLg+MZLakYAfGewf62Bf3n4bv/02u1ySGycpq2WKsloPb5ktU5T+0kbJLyaPRQdIN6PZRsgH8mj2c8v9QqMvKWcp52A1UNE7x8AEg1CjzSxDx5f7BDuI8wUsRNpAG8/kzWj1pWzNOkfqyLidSB0FZ8B506dR3+TvMakjqSNvOtP+Ln2d9HXoY8waMwj4EfAjxvYJ0EBZzzxt7+yR9s8Enze2dunT7AZV99kZwCSFGAAVts/QF/smfV3fobLuOdHiCdBisIBAro9OyASPH08Gkb7vsvK7GQNtDNQ8ef6YNYjztRz8NU7dnS91ZJ3R6q7M/T0udSR15Gu/IH2dMVRAm5N2JO0oGtuRgB8xtMTYPgEaUOAH8Gdp4zvZ17Z5W1r/Tutbu7T1fY+Gp9ep+PVsSL1/BPxEpxEvcEbq1V8NqKle7gbbvg7AzDjPLGMIxoM7+BOp4MeTQWRG2ft6D6kj9war1FH4G6xSR1JH0td57sPQRnzZZMzgX1sS8HMCjH5/B+ByfvQZbQr8jNs3KadlygX7Uhsn6UmfnWxL3+j77g8am9+ke69nKbEhNNOuBPxEn9ak/5A6DUQDCvwog0g/4PN1kGzGeWZCBTyHEfwJZ/CzurZBDi/b6sbmkXO2d39QqLaNb9tH0veWZ0+/r6xt0NrGt0P3RBqheh6k4yl/gfwmdWS+HgOpB0/XSB1JHXnrY6Svk/8j9CFm/R8J+BHw44IAgQzW5ZrIMPLcgR9Vf8Wds/R5YZN2935Q9+cVymy2HdLFzcZJut02TSVv5qi027nltE5TkhtAlNjwhTJe2uhux4zr/MLOGY4npNLE3h34AZC61znL6SEGEe6nrstumeLfkA/kB/lC/tTv2Kc0TtKd9mkqfD3Dz4JzirtmKb99hn/TniufD8pWykLK4rg0oAU/RvDHDKDj6z3MBj9G8CfcwM/6xgbZHWs0Pr9CvRPL1PlpyevWNXb4vLeTqxSq7c34V6/58+UZ9OdonwlphOp5kI4+L2Z81z4P7hfK55E68t6GUCdSR+b2G2a0G/09pI6kjjz1nZHU1wn40RiUxzXglXTF2LJaA97AD9Kv6bPT0tp3Wlzd5ng7CrZkNNnoab+dxuY2GAwp42l4ap0qeuaPgBTECSpon6GOUQfZV7ZdcYUQx6dleJly2qZdIMcI/AAm1fQu0Nq3HZpZ3uLpZ/BAQiBogJz3X1Zp7dsu3xegCvlC/pBPVY55bdM0ZFsj++o2dY+t0OjsBm1uOaez4Td1nuyl7YkGwkMDevCjhz+q3wnF3grwg+fBtrW1xftwAz/TS6v04sPCEegv7SM82ofUg9SDaEA0IBoQDQSrAQE/An7ECD4BGvAF/MBDZ2hmg/Z+/GBAk9Y0SfC8eTm0TJvbe7S8/p3G7Jv0aWGTMGUMgaFXN3eo6u2CS0OARfnt0zQ0vU7fd37QrGOLz8d1s45tPr93YpVy9+GLEfgpej1DtqUthlAV3fOumEP3O+cYBH3b3qMvi858fLZvkmNjhza296hhYMnlgaTAz97eD8L5AEDIQ/PwMmU1H0x1C7YDlevlT1g0YI4GjMCPFv6EAvioNKwEPwr+hBP4mVteo2cDC0c8J0Xb5mhbylHKUTQgGhANiAbCQQMCfk6A0R8OQpM8HG+H5wv4QR11fHLQ1vYevZtYJUypKn8zx2AFgKeu3+7y7gEQavnoBEILjm1SXjRpTTZq+/iVdvZ+0GfEC+qYYSgELx5MJxuZ22D4AwCD6Vl68IM0P0yv8zkvBpcYPCFfuO/Ewibft2d8hTJfOr17MKUL561t7tCcY5s9jXC+Aj8/fvyg6eUtquxZcAEk0eLxalHKX8rfSAPuwI+CPwrKhGJvNfjBM+3uOr0WQ/E8SANputu6x5cos+XAY9KofuSYtFvRgGhANCAaEA1EtgYE/Aj4cXlrSGOO7Mbsqf58BT8vh5dp/dsuDU6uUW7LFL2dWOVl4DtHHQxf9GkM2dZ5+lfHx6+sI0zjmvu6xbCoqufAE0hdV9GzwMu393xeodst04fAz+PeBXo18pWvhVeQNs5QedccB59eXvvugj7qnhnNNs4vvJLaR5z5UOAHq5W9HnMI9JF+Tvq5MNeAJ/ADYIEAyaGCJKEAP3imUHr9uIM+ON40ZJf2EebtQ/3fyT56x2lSt1K3ogHRgNUaMAQ//g6uZle2qPztvAwcZOAgGghTDfgKftpGvvK0rv4vq5TfNk1flr6xl839rjlXXB5tp1TzdoGnho3NbfLvRZ0zPMVranmLMFVMey4+33ppowddc7wB7CiPn5WNHRq0rTH0GV/YpIJXM4fSa/mwzIAJ8YcahpYObU0fl3k1MsT7+Ti7wWkq8ANPpeeDS0fyoc+XfJc/W9HA8Wqg6p3dI9gBoMCyrZ4Ahlm/hQLIIA3ArFA9k6dxXdsnh/SRYfrfLf3S8fZLUv5S/qIB0UA0aUDAj/zZy4DvBGjAF/CD6Vv9tjWnB8+og+62T3OMHnjN5L9yTtnSd34lr2fpx4//8XQqTOeq6J5jEITYO/pzjb4r8ANAgzg82zt71D+5SlmaJedxXdeo41BgaSMjBrGJxhac6Srwg/g/df2LPuXFKH9yTP7wRQOh0YAv4CdU8CdU4AfPEyr4Y9RnqmMCfkKjcelLpJxFA6IB0YBo4Dg1IODnBBj9xykwSTs8OjhfwE9Z9xyDHsTLqepd4FWyJuHxs/uD4/OoVb60dYrpXAAuiOeD3xHHB+fblrdc8Xm056c32aioY4Y3rMKlwA9W/Ooac5Bt6Rvhc22//VCg0bYhp8fPvGObOsdX3GwOejrghDwCfsJDd9q6l89SJ5404Cv4CQX8CSX4CRX8UZDHaC/gR9qmp7Ypv4k+RAOiAdFAdGhAwI+AH/GGOAEa8AZ+AEre29bY42bAtka5rc4lz99NrvLUrbbhZUo1mLrVP+H0EIJHDv4UsFoXlnDHCmAIDK3/owBcGpnZYA+e262HY/w87Jmn6r4F9vzBMu4PNSt6VXbPM1CaWvzmCjCtvzeWe1dLugv4iY4/KH0dy/forVd/wI+CJdhbsYUa/KjnsXLalxHwUccE/ERvu5I+U+pWNCAaEA2IBpQGBPycAKNfVbbsT27Ddwd+sCoW4vf0T67x8uwLK9v06O3BCljw6FnZ3KGl1e9U3XtwHNfVDSzS2uYuL7teuD8VDKtvdX5yMCwanl6ngnYnQMI0sIKOGRqYWuMVuBBLCDGAtB4/gEKYboYAzQjUzLF+2qfZkwixgaaXthj+YEUwBXgAe4pfz1Lr6Fdq/+QgTD2DzgX8nFytSz8XmXXvL/hRsARTpcyGP8cBftTzWAV/FOQx2gv4icw2I32d1JtoQDQgGhAN+KMBAT8Cfo54ZfgjIDk3MjocBX4AcQan16h3cpU3xPRBIGaAFkyzqn1nP7R6F0BOx6iDEOdnzrFFfTbntf1Ta4SAzFgBrO79QQwdAJ7Cjhme+oVrPi9scjq4bty+ydcMTq1x8GZoRw9+cCynZZrefVnjPGF1L+QBxwGG4E3Eq47tPwPua1v8RmvfdhleKU8lAT+RoUvpP6SelAYCAT8KlpgNf44L/KjnsQL+GAEfdUzAj7RD1Q5lL1oQDYgGRAPRqwEBPwJ+BPycAA0o8KMG+mq/tb1HmFaFJc9LupweN/oOP6t5iuBlM2n/Rnt7P1wr73ye26Sn7xePxPJhL5zOWer7skpYfl2lhQDOXWMr7PkDQIR0jMAPjue3T/NKXQA67aMOV7yf8p55niq2sbXH90V8obmv29QzvsrXqLwL+InePy1Vx7KPrjoOFPwoWGIm/DlO8KOex2z4o/pho72An+hqS9I3Sn2KBkQDogHRgJEGBPycAKPfqOLl2MnqEDJbpqim3061A4uHtsd9dgY+Gc1Orxp3uoDXzb3OWap5f3APePYA8hhdA7CT3TJFADUqzYrehSOrdSHYM6DUo74FwvLu2nsVIb1+O98jufEgHUChqr4Fvu+T93Yq7ZqjHN0qYIhHBJCF8263Oaebae8tn0+W/qW+w7++gwE/gCUAJWbBn+MGP1bAHyPgo44J+An/9iF9mNSRaEA0IBoQDQSrAQE/An4OGdvBCkqul05JNCAaEA2IBvzVQLDgx0z4Ew7gx2z4oyCP0V7Aj7RXf9urnC+aEQ2IBkQDkacBAT8CfgT8iAZEA6IB0YBo4Fg1YAb4MQv+hAv4MRP+GAEfdUzAT+QN3sXgkjoTDYgGRAOiAX81IOBHBvvHOtj3V7ByvnRyogHRgGgg+jRgFvgxA/6EE/gxC/4oyGO0F/ATfe1J+kipU9GAaEA0IBrQa0DAj4AfAT+iAdGAaEA0IBo4Vg2YCX6ChT/hBn7MgD9GwEcdE/AjxoHeOJDvognRgGhANBB9GhDwI4P9Yx3sS6cSfZ2K1KnUqWhANOCvBswGPwqWBBLwORzBj3qeQFf7UpDHaC/gR9qrv+1VzhfNiAZEA6KByNOAgB8BPwJ+RAOiAdGAaEA0cKwasAL8KFjiL/wJV/CjnicQ+GMEfNQxAT+RN3gXg0vqTDQgGhANiAb81YCAHxnsH+tg31/ByvnSyYkGRAOigejTgFXgR8ESf+BPOIMf9Tz+wh8FeYz2An6irz1JHyl1KhoQDYgGRAN6DQj4EfAj4Ec0IBoQDYgGRAPHqgErwY+CJb7Cn3AHP+p5/IE/RsBHHRPwI8aB3jiQ76IJ0YBoQDQQfRoQ8COD/WMd7EunEn2ditSp1KloQDTgrwasBj8KlvgCfyIB/Kjn8RX+KMhjtBfwI+3V3/Yq54tmRAOiAdFA5GlAwI+AHwE/ogHRgGhANCAaOFYNhAL8KFjiDf5ECvhRz+ML/DECPuqYgJ/IG7yLwSV1JhoQDYgGRAP+akDAjwz2j3Ww769g5Xzp5EQDogHRQPRpIFTgR8EST/AnksCPeh5v8EdBHqO9gJ/oa0/SR0qdigZEA6IB0YBeAwJ+BPwI+BENiAZEA6IB0cCxaiCU4EfBEnfwJ9LAj3oeT/DHCPioYwJ+xDjQGwfyXTQhGhANiAaiTwMCfmSwf6yDfelUoq9TkTqVOhUNiAb81UCowY+CJUbwJxLBj3oed/BHQR6jvYAfaa/+tlc5XzQjGhANiAYiTwMCfgT8CPgRDYgGRAOiAdHAsWrgOMCPgiV6+BOp4AfPg80I/hgBH3VMwE/kDd7F4JI6Ew2IBkQDogF/NSDgRwb7xzrY91ewcr50cqIB0YBoIPo0cFzgxwj+RDr4MYI/CvIY7QX8RF97kj5S6lQ0IBoQDYgG9BowCfxsU/nbeQEIApFEA6IB0YBoQDQgGvBbA8cJfvTwJxrAjx7+GAEfdUzAjxgHeuNAvosmRAOiAdFA9GnAFPCzuP6dqvvtfg/0RFDRJyipU6lT0YBoQDQgGvBHA0kvvlDtwCIpEGG0B8iwesOUL2zRAn608MeoTNUxAT/SXv1pr3JuYHpJbJiku69nqKhzlpJeTBraTEkNk5TdMsXnZTbbDM+JlvK/2ThJBR0zlNc+TcluyiNanlWeI7A2I+VmfrkZgh9/B1fLq+v0cthOyY3GHZlUnPkVJ2UqZSoaEA2IBkQD0aCBrBYbvRlb8gh2FKSwer+9ve0xH/6Oj9ydHwq4pMpKH8NIn6emIXlxFw3tSJ4hvP8P0ppstLG9x4DbHdTJaLZR7/gKbWztUsvwctSCn8SGL3Svc5ZWN3fItvSNsqMccknbDO+2eZLqxxD8GAUG1A8U9N9HZhxU3Dkj8Edc/KP2j+okdQzyrPInJRoQDYRCAymNk1TVO0dzy2segYuCGKHY7+7uesyLfvwTyPdQgh+UmadxnYAfaeuhaOsnPQ0BPwftDOAnv32aRhc26Z1tjbKap8R2EPtRNBACDRiCHwxiPA0SjAY5a+sbNGj7SmXdM4S3d+kvPW+g2qHavOXFrN9D9TxIx6w8e7JoRvsAACAASURBVLpPtD0PnjXaninankfqKDiNemrPZv4WbbqLtueJhHaEMs9tm2LoM2lf9QpaQgF8VBqAMltbW17zZDQW8vVYqMGPp3GdgJ8Dg/Skwwl5fuu0IODHurIV3UrZigZ804Bb8ONpkOBuYAP4Y7Ov0pvPS9Q8bPe4vRpzUKi2ttFlzkvLiPd8ecu3u9+RRqieB+mofFj5TKF8Hqkjz+1F1bd+L3UUXD+iylPake/6k74uOM1JX+fUWuuInXonlr16+qjxhoIyodgDyiBdK+HPcYAfd+M6AT++DZjFsJByCkYDAn5EP8HoR64V/ZihAY/gB4MEb3PD1aDM330oBm8qDTWIQx4xkLPimY5rECd15HvAT6mj/3kMnqrai7u9tCPftabtD92VpxXHpY6kjqA96eukr9P3L9o+ST8GEvAjBoUZBoXcw7OOAgE/CHqMAMi1A3Yq7JwxnAqT3z5D1e/sVNI1R6mNk5TbMkWP39kpr22a7rRNU02/nZ4OLPJW1j1Ht9umDe+DabcF7TNU8XaBz8WiPfe75kgfjwj5wDm4z92OGU4L52G61qO+BU7vZtPRmK8Ibl3eM8+/I28oD+StonfhUHBneKwinyrPSAsBrzE9TKux5IZJfkY8uzr3wZs5utVsO3Qurrv7aoYXIcpqtlEh8txn59WocQ/tPeXz4TKW8oi+8vAKfqwCC/pBiZXftcYQnscK+HOcA22pI9+MPakj84whaUe+aQ7lZGXfpr+39HW+1wvqRm36crTyu9TRQbmr8vdlb2Wd6O990upIwE/0De7FYAu/Og0E/ADG1A0s0trmDg1OIxbO4ZW+AHrejK/Q+rddahv5ShkvbfSkd4GDJn+YWqPh6XXa2f3hGofYV7dp0LbG8EOrEayw9ejtAo3ObtDKxg6fv73zg2aXt6h95OshWNQ57iDHxg4NTq3R2NwGbX3foyHbOhV3zNL4wiZ/r+iZP7JyGeDN0uo2X1vaOUv5r2b43BnHFgMr5CezZYpeDi8T8qn6ZaTVNebg1b9UnlEuAEJ4FqSvzl1wbNObzysMvNS5gGcdH5dpe2ePeidWaXx+k75t79HU14N01bmyD792I3Vibp34DH70b4h8Gah5Okc10lDs9YM45Mts+IM0QvEsKg192aJ+pI48GxRSR+aCH2lHnvWm2qhqs6HYS1/nW52oulH7UNSNSkPqSOoIugun/yMBP+YOrMVQkfI00oAW/LSNfqXG4eUjG47bFr8dWtUL3ioALIur21Tdu3DIQ6WoY4ZXxQLwKO6a498U+MF/DoBR/9QavZ1c5Q1gBiDo09yGC44AjDzsnqfppS1aXPtO7/fP77Ot8b0Bgjo/OVyePwA/O3s/GLhM2DcJ5z3tt1N6k40aBpZoc9sJgvC82nJ42menvb0fNGhb5+N68AOYU9tvZ/A0t7LN90W+J5e+MchqGlp2ASKApenlLVpa+04D04efD2n0T65xfpC+Aj8oDzw78oz7Nn1cphRZRv5QHWnrSz5HZz/mE/jBIMVssKAGwaHYGw208Uxmwp/jHsRJHXk3JqSOzAc/0o686y4UfZxKQ/o67/UBzeo3VX6h2EsdHS1/fX0YfQ9F3ag0TlodCfiJzgG+GG7hVa9a8KP6Gnd77XLuuK7l4zJtbO1R5+cVF/xA/dYPLDEogSdLVotzZSwFfnB+8/AywZtHaQFTueAFBDjS/XmFj8PLBp4+q992+H7wIsL5ACYALDPLW7Swss0eQTiuwM/EwiaVds0dmqaV1zpN8yvbDGqQlnZ61ujMBn3f/UFVPU54pQc/mFL2ZszB4AjeS0gf6VX2LBCuxfL2OCenZYqGZzZobdO55D2mhqnnK3w1Q8gXvHtq++yu54DHz48fP2jOsU2AZep82YdXG5H6sL4+fAY/GIgB/vi62tfaxiZ52kCLQ7V92/7uNi8b37bc/uYp//rfkEaongfp6NPXft/YNOeZQvk8Ukee24u2frWfpY6C60e0Zan/LO3IWJPS1wWnOenrlK78A0DuDCQrjrsDPxgHmfXCCGlYkXd39zSCaWpc1zy8KIaQLn6IGCDWGyAnrYy14Kd7YpU6xhxHtjcTKzy9Sgt+UE6IXQNoAW8VBS4Aegam1hiy1Lyzu0CJAj/D0xsc70ZfzoAj8MpZWv9O6U2TdK/TOeUKab79skrtYw7X1jOxyiAHU6PgoYR7KfDzatTh8qrRpgGg9H3nBzUPLbvyhDwjTXgVpe3H/9GDHwCnxqElnrY2NLNOVb0LlNs2Tbde2qj49SzHH4JXUNXbBZ4y9nl+89D0L5WHRz3zbI9NzG8eAj+ATt1jTtilzpW9tPOTpgG/wI8aJLiHP5u0svGNlta2yL62TQsetqVvexSqzb6x4zEv/Pv6d4/neHoW/IZ7hOp5kI7H/OBZgnwe3D+UzyN15Lm9uKtvqaPg+hF35crHpR0Z9jPS1wWnOenrnH0dxggYK6xubB7xwDKCFO6AhhXHPYEf5M0M+BMu4AfP83LY+Wb8pA2A5XnF6AulBrTgRx8wWeUjo9lGveMrh6Z64Tec3z2+wvFxGgaXCEGJq/vstLj6naeBFbw68GJR4KdteJlSDYIsw5PGvrLNIKagbZo9ebz1o3s/fjCkSmqYdIGfhqElF9hR+ce+uGOG8wlPIZX+28+rhHs0Dy65ILMe/OBaBKrGNC1Ma0OcH3j2tH9y0OPeBRfEqh9YZC8nQByjcsQxQB54BOGeaqoXvICaNOlr8yyfpS84KRrwG/y4hz+btLy+RbOr32lqdYdsq7uySRmIBkQDogHRgGhANGCogenVHZpf+05fN7a8wh9vhomZv3sDP2bAn3ACPzLVS4yek2L0HOdzBgN+sCJWdZ/T0+XD9Bp7/XSPr/L0ryYAHs10Ll/AD4ARPHAAfjCV6seP/3G8HMS9cbfdfzNHvoAfgJaRmQ2ebgXvG0zNQpyg1c1dut16sKKYEfjBtVjx60m/nVpHv9KAbY0Qv2jesU0vBpcoo8lG9e89gx8EwAb4Wd3cEfAjnowu0HicbT+c0g4I/BjBH8fGFs2uCfAR4CXATzQgGhANiAZEA75pYGptl+bWvnv1/DET7Hi7ly/gJ1j4I+BHYEs4GQOSF+v1GAz4Qf3kt08zUIE3zOsRB0/7QoBjLKWurT8Ffj7Nbhh6xGD1LayEhUDOaY2TvMIXINDCqvv4N5hipWIFqale7jx+kBcEcoaHzcj0Bj3vX+Rpre8mVg/lUw9+UD6lnXO8IVA0IFBu6zQ1fViipbVtjvODuEGPehbYI+iLfZM9hLTPjs81vQs81WtsdkPAj4CfQ5rTa+Ukfg8Y/Gjhz/rGJi2ubRMGcDLYlTIQDYgGRAOiAdGAaMBXDUyv7dLimmevH2+wxszffQU/wcAfAT/WG9oncVAvzxy+ugoW/AC8wLsHnixY4hwrdnWOOXgJd229K/CDuDyvxxyu6VY4517HDC9nvrv3g16POtgoxtSooel12trZo/eTa+xxg3Ox4hWCNyMeUfvoVypod3rr+AJ+EJdn5usWeyRhyhcgENLW5lMPfuAZ1Dnq4ODMmMamzkWsH0z7wspmiE+E/A5Or3MsoI5RB2F6nDq3rGuOV/tCeiqItEz1Ct82oepN9qGro6DAj4I/axvf2F3b10GenCcGgWhANCAaEA2IBkQDSgOIq4UxhbvNTLDj7V7+gJ9A4Y+An9ANdMWokLIOBw0EC37wDGVv5niVLfRhX9e+0+O+hUMrZ+EcBX4w3QkBm0cXNml4boM3eAhhUZChqXXKaXGCHIARAJ5J+zee/oXl03H+yPwGzTm2aHntO2GVrYz91bN8AT/IB7ySAJiwTS5sHokHpAc/AFt1A4u0irisiO+zn+cZxxZDHgSTVnng/C5+YwA2Zj94PuQXsYR6NKufCfiR9h8O7T9c8hA0+MGgZ3XjG7tqqwGc7GUwLxoQDYgGRAOiAdGArxpArB930AfHvcEaM3/3F/wEAn8E/IgxEi6GgOQjNFo0A/zgHl2fnUAFS7Bj6pO+/hT4GZvbpL6JVY6Rg6XM0UfOfd2mt+OrLq8edS2mcmHlsA+2Nfq6vsPn7uz+4BXGmoaWXEvF43xfwU9uyxStfdvle9W9O/DgUWnqwQ+Ow3un4cMSe/ioPh3xgbDMO6a6qeXh4Y1U0jVHWMYe09TUufAuav24zHGFVDoCfkKjb1Xesg/v8jYF/Kysbwr4keCdMs1PNCAaEA2IBkQDAWkg0sGPv/BHwE94D47FeJH6MVsDCIz8oGeOyt/OH/F+UWkBUtxpn6bS7jmOb6OOq3128xSverW1vUfNH5cJwEb9pvYK/PRPrHIMnKLOWU4T6Ra9njkEcdQ12CNtxNQp7nLmsaxnnuP/pO97+qhz89qnCb9lt065QIz6Tb+/3+28F4Iy63+72TTJ97nXNctBo9XvgFv3NHkG4MlqsR06B+eiPLNbpris8GzYCjtmCNcrQITz8Pl2mzPPmE6m0pG9tPGTqAEBPzJID2iQ7utbXDlP3viLBkQDogHRgDcNRAP48Qf+CPgRo+MkGh3yzMHpvrIXgY2/0/TSFk/PMipPLfhRU6OMzpNjwdWFlJ+UXyRqQMCPgB8BP6IB0YBoQDQgGjhWDUQL+PEV/gj4EaMhEo0GyfPx6BYeK28+O8ixiaDOu/RyeNm1ypa+TgT8HE8d6etBvks9hKMGBPzIYP9YB/ve3gLL7+IpIBoQDYgGol8DC+s7ER3jB8BHu21tbdHm5uahY9rfBfyIURCORoHkKTx1iVg+ozMbvJIXVuPyNGVJwE941qG0LamXcNCAgB8BPwJ+RAOiAdGAaEA0cKwaAPjxBEpU8M5Q7AFltJAm0M+e4I+AHzECwsEIkDxEhg4RfyezxUY5bdNHYtjo6zC1cZLPu9V8ONaN/jz5Hhl1L/Uk9WSmBgT8+DnYH/iyQB39I1Tf3k1VdU10/9ETKrj/kHILSygzr5AycvN5w2ccw284B+fiGlyLe8gb7Oh/gy11LHUsGhANiAZ80wCmegH8uIM/oQA+Kg2zwA+AkTv4I+BHBvNmDublXqIn0YBoQDQgGvCmAQE/XsDPu7EZetHxlkqrnh4COwrwBLoHGMI9cW+kIcaBb8aBlJOUk2hANCAaiD4NqBg/7uCPgjKh2JsJftzBHwE/MkD3NkCX30UjogHRgGhANGCmBgT8GICf3tEpqm1qp7yiUpcHT6CAx9frkBbSRNpi1ESfUSN1KnUqGhANiAbca0CBH4ASI/gTCuCj0jAb/BjBHwE/Mpg3czAv9xI9iQZEA6IB0YA3DQj42Qc/40ub9LLrHRU+qAwZ7HEHhZAH5AV5EkPBvaEgZSNlIxoQDYgGokMDWvBjBH8UlAnF3grwo4c/An5kgO5tgC6/i0ZEA6IB0YBowEwNnHjwMzq/SnWtXaZO43IHdPw9julgyBvyKMZNdBg3Uo9Sj6IB0YBo4KgG9OBHD39CAXxUGlaBHy38+f/bO/O/qLF0/99fvnfuzJ25M9NtTy9j23bbtrY0tLsiguCCKIraKIrSokijIIjsi6zFVqwFhSDi/K/P9/U5cIpUSFUlVUlRqfr8kFdqSc76SfKcd57zHIIfGvNuGvNMi3qiBqgBaoAaSKSBnAU/w/NrKtiyUxizV8cjMDTKzAHD7gED24RtQg1QA9SAvzVgBX6M8EdDmXTsvQQ/Gv5sbGxIOuqi80C+sba67qAkMhb5PwcU1AA1QA1QA9SAvzWQk+Cnoa0nrfF73IJFiAOEsnOA4+8BDvuP/UcNUAPUQLQGYoEfDX/W19fTBkq8Bj8a/mxubqatTrGgD34n+PG3Ic+BGPuPGqAGqAFqwI4GLMEPjB4nW3htQ2ZWNjIeSPQE5uVm9aM9j+GTKghCHVAXDhyiBw5sD7YHNUANUAP+1MBMeCOu3QFA8fHjx7jHOLFb9vpYLPOODZ4/e12W+r45evzUctBgZ9DAY6gTaoAaoAb8qwFL8KNdg+3u1z9+kmB4M6NBBDxlEDMnVeiSKeejLrnm/dMzsSRtQzPSN7Uso4sfYuqtfTiojhua9Udw7KG5NemZWJS3I1vlRh3xuTuwkDPT+94FV6VjdFY6RmYzqs4DMyvSOTan9IR+wdYTWMyoMhJ0+BN0sN+i+212Nb73i/ZYASzRn73aA8TYtX+SPQ55oPyoD1Yx86ouOt145Xw+sEjwQ/BDDVAD1AA1QA1kuQZyAvxgmfRMATZulwN1y5UBROG1avnzvsNypeqJ9E3FDnj92bf58v8+OyT1zembFtcxEpTmvgkZWVy33x9LG9I/tSwPG95Iwdmr8vmBAlVulH3fgXzJO1UmT5o6pXcyFBd0+aX/B4NhaRuckq7xBRldivYQrH3RLt8cPi1f/XBCXnaP2m/D7VX5vGiD7vF5uXr7iRw4cibSL3/ad1h+OXVZHjd1Sv/0clrK2T48Iy39EzLqRFsetosXbc00oyFILraHXfCjYYkGGl7s0wl+dH28hj8EP/59Q8u36+w7aoAaoAaoATc0kNXgB6thlVfdz1rooyES6pgLK39lMvgpOHtF/rTvR+keX7AFAwA+4EkCiLXvQIH8Y/8vsv/oefm+oERt+38ulH98my+ff5svxdfvS/vQzC5Y4rfB4dPmHvn60EkpLL8vg8Fob6y6pk7JL6yQ/PPl0jowaasNvaw/vHpOFd+UP3/xk3z+3a9ysKBY9cvB/GL5v2+OyV+/PiY3quudgb4kYcyRgmL52zfHlKeRl3Vm2oQve6kBJ+BHwxIvoA/STDf40fXxEv4Q/HDQ4MaggWlQR9QANUAN+FcDWQt+OkZmpOTazayHPhr+oK6o814a7l7nnangZ3hhXX4+USp/+tw++MHUrsu3H8vfvzkm3x07L9fvPZU3g1OR/usYDsrN+89l/5Gz8tevjkrZrcdxvZy8bvtU0wfoqv2jQ748eNwS/KSavtvnl9+tU+0OL6x7T17KWGjLQ2l4fl0uVTyQ//3yiHxz+Iy87gtE+sztMiA95PfDsUKCnyShmRd9wjS9AWROwQ8giVfTvvYC/HgNfwh+/Guoc5DFvqMGqAFqgBpwQwNZCX7eDE5IYenVnIE+Gv6gzqh7tg5M3AA/w/Nr0tIXkGdtA/L76z6pbxuQ5p4x6Z1Y2tVuOBZTkyLHtvZLc++4DM29V8diUP68/Z08aGiXfd8VyH9/dkjuP38jT1v7VJqx+gHn369vVd48ADu1jW935a3PrXneJvt/OqsAEcAJyqT/a2h/J8/fDMrATFhNj0J9sD3dLmesqUhI4+1wUHD+Vhv0y6ueMemfiZ661Dk6J8/bB6W1f0J5HP3ROazqBiilQQj2aE+dd31bv/LY0fGVtjyb5uXxy24pvFotf/3yiBw7Vy61TZ0qfwAw1AfxjBreDkljx5BgShh+Qz7oH/RB58isNHUOR/LB51jT/RAzCefo+qE/mjpHpGtsXl73T6rfrfpbtyv2+WevyJ+/OCzF16oFYM/4H9r14NGzCsaUVz1RZa9v7Zc/ukYj2jAf39Q1Ks/fDES8dqABtCvaS/VBa7+CSCPbeaGP0I/Q0z++OSZ/+fKo0hl+e90ffY3Dewq61Gmhz9qHpmVoLtqr6vXApCoDPM3QZygz8t5p8w1Bnze+HVK/o93aMsD7ytiW/OwNdMmEdnUKfgBKvII/ewV+vIQ/BD8cNLgxaGAa1BE1QA1QA/7VQNaBH4CPc8VlOQd9NPxB3bMV/qQKfjDYfviiXQ5j6sxXR1Xclr9+eVR+yCtUHjddY3ORAT7gQX1rn+SfK1eeH4i7g2k/h/KLFKjBoBrwYN/3JyLxX3AMNsSBQcyeWIMpTGX65cxV+dvXx6TsVq0lLDCee/lWrQI/R46XqIG5/u/LQycVFKi4/1y+/WknDs3/fHFYDv1SJDcfNEjn6GxUOQBVfm/ullPFlaJjIcF75bufz8uthy9UkGmd/t3aJvn8uwI5dqpMThRVqPg7qNuNe08j8Waevu5V7anr/pcvj0jeqctS0/BG3s2uKlB1t655VxvheMTzQQwj5FdT3ypfHTolB46cVRADv1VWP5O/f5Mn+eeuytnSKvnmx1Py35//qNLC5/J7T6PaA+cgz7pX3ZJ/7lqkfv+z77B8c+iUFF2rliOnrqh86152RbWLrrPeHz1ZKjiv6Mo95XWjf8ceOoI31omSW8obCPl9tv8XOXDsgrzsHNmV7u+vuuXbo+ci+eL8Jy+75OjJMkF7oS3+8sVPgv6tb+kRwB9MNfvzv7b+022rjvvXETlXelvlAagGcHbv92b5Ia9IoGUc849/50nB+evKwwrBqXXZz125p3R04Vq1/HS8RP6ynf4XB3+VqsdN8ro/IIVX7skX323FmkJf5525ooCbToP77AUve923yYAfr+DPXoIfr+APwY9/DXUOsth31AA1QA1QA25oIKvAD6Y65aKnj4Y+eo82yMZpX6mAH3hQwHsGg9x93/0qeefL5UTJbeV98sXB48pjB/F2MODGAAheQHlnrqqB8k8ny9SxR06VKS8PQIeXXaMquG9RRY3673+3B935hTfkZGmV3KqJHXQbnh/7vs1X07gQ2ybRgKuhrV+++emsglWNHcORWD8AP//9+RZs+uK7X1U5UKeCopuqjgBLJRU1Ec8YtAGAx3fHClWcmsPHS9U5KPNXP55WoOTG/WeR4zX4AZTAlLSjZ64q2IE0AB3gdYN6/P3feZJ/4YZKK6+wQh37zU9nFIABxIBXEsr1fUGxgmJfHT4jv16slOIbNcrTCPWPB37+8q+t/PPOX4/U8V/fn5A/f3FE1Q/1QhrYP2vtk4PHChWs+yG/OHL8DwUlqv0AcwCcEoEfwDa0378OHleQJt6ULnhP/XyyLNJ+xv4EiLp293f521c/y6mSW1ueUx1D8mNBiQI0W216Ww6fKFVePQB4iOcEr6LTZXdV+VHm//niJ9XG+O1e3StVX6xuV/FbvQI1X/5wUn4prFDHQ68AZt/9XKj6QK+AB/CDtBToy7sgBRcrpaDohnz2bYHqM0Cef+7/RY6X3FLp/Hj8kgJSP+RdEAQvN9aLnwmA3NZAsuDHC/iz1+DHC/hD8MNBgxuDBqZBHVED1AA14F8NZA34QXDjXIrpoyFPrD3aItsCPmvwk3e2XCofNcm9+lbLDQN2eD7oVb0AKQByMODHILf87u/Sa5hiVHHvqWDgDI+Thw1taoCLwTWmb8HDp6ljWP2GGDy/XqiQrw+dktrG6GlXAErIM1FwZ4CQmoZ2NY3o6OkrUXF9Yg2kAA8OnyhT3i5Vj5pET6PS4AfgCpBGn/9ublVu3n8mn39bIPsOHlerhuE/AIUTF28qKHKi6Ka09I6rc+AVUlXbpOoPqPW0pVetIqbBD2DB+ct31VLrY4bVuM4WV6q2KLxyVwZntqZnwQPl5EUERT4iJ4oro6amVT9rVV4mVsGd44Ef5F9cfl96ItPxNuTu4yb5v69/VvUDgEL9sArXmZJbCqD8cvaaNHUMRdoEK4Xlnb2qQIYd8NP+blpOX7ot/9ifp+IS/XL2qtLa87b+XdP4UPfKmgbVrgWFFVHTBlsAEM9eVencf9aqyoOg0AAsR0+URqZStfYFlAcQtPW8tT9qFTd4p5mDO0NH9S19CkxBB7ceNkaAXevAhJy5dFvBnLNl6LctaKPBz1eHTsqjF+3KcwnTxODVhKlk0O/Z0tsRsPiqe1QOHD0nf/3qZ6m8/zzSllpn3BP+uKmBVMCP2/AnE8CP2/CH4Me/hjoHWew7aoAaoAaoATc0kDXgJxdW74oFeWL9jjZx0zDf67Q0+MEA1c6mwQ+m1gDuYKpW/tlrUQNz1AnAoORGjfIIKSq/rwbQAAtYUevHgmLBUuN6ykxj+zt5+LxNDdiNS7fbBT+YalVZ80KVH14viM9jp13zzl5T3jKlNx5GYvFo8HPl5sNdaWCZ+ItXq9VUorNlVep/QAtM40FcoSdNHVHnANicvlSlvEHg+dQ3GVIwCVO9MCUM4AwAzVjWmmetUvO8NQpeoU0AjgBrDh2/pJar1+ckC36wtD28anbiCm159xz5tVjBlop7v6tyAXh8+f1x+frwGal7uduT6lFju4JbdsAPygxQduP+c/kh/6Jaah7TzL47claObU9le/NuJxg3YuzAWwcBn2sb2yPthKmFX/5wQo4cL40ARIBHTMeCl9DTV90RkPf8dZ+gTd+aVnCzAj/on0s3ahRIO1lcGYE+uq0x/ezbI2flqx9OypPtttDgB3AMsXz0sbhO/rE/X8FIADLdzohtdPHqvS1Yt60hfQ73hD5uayBV8OMm/MkU8OMm/CH44aDBjUED06COqAFqgBrwrwayAvxU1zXkbEyfWNBH/462cdtA36v0NPjBFB54jRRX1lpuOtaJBj+ALSfOl6upO1dv1Vq2R21Th5q2dORkmbzsGlHTmDD1BQP0Q/nFUnrrscBjo/51ryWssQt+MB2pur5VgZFjZ69FvDHitSnOOXLqslo1rPzu00jwY4AfwCwECTafj+k9z9r61f+YsoOBPsDLn/cdli9/OCVFFQ/kxsPGqA1ThBDQOP/sVWkbnIyAH8Td0V4j5nwwNQ7LtKNtdHoXbzxU6bgFfr7/+bya+mTMG1CisKxKQQnACdQXwYpVrJxTl6OAkz4P3jfHztiL8aPPwR5T7R41vJHiykdy+Pgl+ezbX+Sz/flytuyOCiKNYxCcGjGEMKULEBF9hrYprqiRv6tYTo8jdYBHz+FfS+Sf/85T6V2+UycPnrfJ89Y+QWwpY974bAV+ELsJsZQQpwdl0m2v94Xl1cqLDdfCvactKk0Nfsoqa6VvIhTJB0G0P/vuV5UPPIB0/vAqwvUC760zJZWR3/X/3BP+uKkBN8CPW/Ank8CPW/CH4Me/hjoHWew7aoAaoAaoATc04Hvw09DWQ+hTWBy3DdBGbhroe5WWBj/KI2VqZ+BqLo8OWqzB5XvhqQAAIABJREFUD7x1jp0oVXFPEDDYfDy+A158feikHCooloY3A2rgDg8ZBEGG5wSmuyBdBEG+/lv9Lg8Lu+AHeQHI/HN/nhz4+bw8be62LI+xjABR+4+eVyti/d68FfwX/wP8AAroGC7Gc/AZqzhhFS2c29DaLzceNNjylIJHC2CSnur1/bHz0mEKEo30n7X0yvkrv6npQLrNjZ5YboGfH38pikATXUcNfjSUADDBSmkISJxfWGHZpgAcJy5W2orxo/OJ3m+o6WOY1gWvIWiirPKRygsrvGGlMrTDkROlykMK8YagF0ytMq7cBihU19wtBYXXZf9PZ5RX1r4DBSo2EQJsw0PNmK8V+IEH1E/5xQn7EyAMwbWRngY/V+/+HgXGEKT884PHd4OfxXWpuAtPOYIfY3/wszfAyy3w4wb8yTTw4wb8IfjhoMGNQQPToI6oAWqAGvCvBnwNfnoC83KmqDQu9NCeL7m8Rxuhrfw+YEkW/CAGi/b4uXb7sWU7PG7qFEwpUh4/2zFj0F7wfMG0oVu1TSo4L+LpYAWnZGP8IE0spQ04gPgxWJkKICBe31y/97v8Y/8v8t3Rc9KupjxtDbwAfjCwx9Ll5vMBg563DWytRAaPn5HZiKfR1z+dlZLKWrlW/dxyw/Qk41QvK/CDaVDf511QcYcOF5REpVN4/YGrHj92wM/o4rrUv+6z4fFz1Rb4qXryUsru1MnrvgkxxjVCO2NFt9IbNQoyoR9122O1NkAzQBwEXa582Kji7JwurdqKjxSKHjAjxhKCe9982CjHi24qaARwBA8jI8yzAj/a4wcePUdPXY5qf2O/VjxokOa+gCojwU90++t+4z4z2sVN8JMq/MlE8JMq/CH48a+hzkEW+44aoAaoAWrADQ34GvzcrH5E6JPA20cDL7SV3wc4yYIfeFAgrgqmRRWcK4+a5oI26QksyKWbD5XHw4XyagU9sIoTAj3D8wVTXnAcPEZOITjyl0el6OpvUV4/2uMHAaATtTNA1O1HjQr8YNras9b+mOcAZvyQX6QCGVfV/hGZ5oU8dIwfq+lrWBUKAZGxXDiWQsfx8GBCwOrv8y8qr6ZY5UR8IHjQxPP4qa57pbxNvvz+hCDukU4Lni+AaPFi/Jy9ci+q7XBuvODOdsAP0njdP6ECMSPODpZQ12XSe3jdIHiynRg/aPM/7ftRrt+ti/S/TkfHjML/h34tieSDKYUIsvz3r3+WQ/kX5eiprZW+7j55GTkGabzsHFbaAjzTgAe6+eXMFaXRyzcfRsFAgJ+/fn1Mxf7RZQCYw4pt0CKWYDd7CUWOm1iKeEsR/GQG4NB9w310f7gNflKBP5kKflKBPwQ/HDS4MWhgGtQRNUANUAP+1YBvwQ+neMWf3qWBj3Hv9ylfyYIfBCVG0FpACgQrhjcGprdg4IU4LFhlCSt6YcOS7/i9+mmzfH+sUC5cvSftQ9PqNwy2TxdXqgDIJdfvR02XOXjsvPJ+uWVz9SPEzMGAXS2TfqpMqp+2RAXcxepgCJx8+DiWIf9ZEMC3cyzaa0uDH9Trt+0lvlF2rOqF5eQBebCql64TVqo6XnRDxTrCqk/GJcob376TsttPpPRWrYpvBIATD/zcq21S4Ofbw6cjK3rBcwlBoxFHB1O+zFO9Hja+VbALXjJ6JS49+HUD/CBI91b/HJWC8+XysnMkAlxe9oxK/vlyFRPHDvgpvHxXHfvd0fNS39IbCXistNQ5LIcLLiqodm4bqul6oF44B7F3/vrVUTV18MWbgUg5cNzN+8/VFDB4DXVv9yl0iJhSgJPXbj+JAj8oL1bduvd4Z+U2THV72tIjAI4AXffqmiN6RJrQU/GNh2opeR0DiuAnGjToPuM+M9rFC/CTLPzJZPCTLPwh+PGvoc5BFvuOGqAGqAFqwA0N+BL8YIBZVFaeEd4+L1taxc5mBDB79RltlmhaUSYPgpIFP6jTkAqq/FqtaoXpWgVFN+TM5buSf6FC/vXDCfn8QIFcvlWrgvTieAz2D+ZdUKsdIQgzjsU5ACkAKli5SnsC4fjyO0/U1B/Eczlz5Z5UPWqMGuyb2xWeHvBQOX/lnlo9DMvJ550rV/mochVWyFc/nlLTyhBnqKlzRDDYN6ajwQ8gw78OHo+ce6LktqCOWNb+4vX7yoMJ58GLB6s9ff9LkYp3dORUWeScHwqKVSBrAKE377ZAVzzwA+8nrKAFuHG8+JZK5+SlKvn26HkFxgAwzOAH8O3oyTL5v2+OqSl1gEzNvWOqTm6AH2gb/Qbwgvg7Px4vidTvxxOl8revf1aeSHbAD6AYvHbQtgfziiLpnC67K4eRFqBO/kVp2S6/7hdAFwR5Bvj63y+PqEDP8L7S/2OPVb8Aaz47UKDiEW3p8IbSGlZde9k1GrWCWmnF1rSyf/90Rs5frVZQB+n0z6xI5cMXSo+Alr8WVapy/nK+QgV2Rj2xKhmAJY4n+MkMwGHUAj/v9IlX4CcZ+JPp4CcZ+EPww0GDG4MGpkEdUQPUADXgXw34Evw8bGjOGOgTz5gy/tfT158RZUbb+XWwkQr4QZ0RmwWrJ/2YX6wG7hicY6rMwWOFcu1unSBuim4bDNbhKQNQAbihgxYfPHZBqutfR025wjldo3NqShU8eBBguODs1UhaOk3zHvAHAOXmgwb56XiJiuOj80H8H4CF24/+ECwbDg8c8/ka/JTdqpVjp8oUpMD5//PFYfkh74JUVD/bXgZ9Z3CF6UgILHyi6IaKKaPzw5LjpZWPVPwhDZjigR+Upb61Tw7nX4y0DWDPD3lFUnj1t61A2abl3N8FV+VhQ7taJQ1ABWDiSdPWsutugB+UCXkgzbwzVxU0Q/0QB2n/4TOSd/qK8upCsG6szmZuT/N3eO8Aun196ESkjn/6/Ef55tBJOXGhQv7oGNqVBmAgVm1DUG2jB5kx7b6pkPLQ+bGgWHkN6T7A90eNb3fBWUwJO3nxpppChnY7V3o7km/f1LLcefJSvs8rVFpGWgBch/KLBEGoMY1R503ws3Md6DbhPnPaxEvw4xT++AH8OIU/RnvE/LlpaFEKnowKjXn/GvPsO/YdNUANUAPUQCIN+A789E+HMgKgwGvHbDzF+x5aXs6YcqMN/TjgaemfkCfN3SqYsYYTVvV4+rpPal92R6ZzGY+B10tzz5j83tKrjqlr6ZWmrhE15ct4HD4DkiAQsz4WacIbAwDJfCy+A+Ig78evcNzONCOrY42/ATKhTFiOHHlgw+dX3aO7AJPxPA1+nr7sVtO26pp71LlPmnvU1DbE6jEerz+jDTB9rb5tJ7+G9kHVBqOLG5FzMB3taWuf4L9YMWRQbl1mnS+Wjsc5LzqGo7yikD/iG73qGROUFXXsDiyq/LrG5lR5nr8ZlIGZsPoNwAP98+Ltu13eTmOhDUFwZOSJMiBtePxgihzKiulNuj2RV2PHkFTXNStvIECRxvbBSD11u1jtUYYX7e9Un6Ke6FuUJ1YsJ6wgd736mYJwxy/eVJqwShftgHLXtWz1GdJGu1jrekNQDmhL1bd3PKrs0Cm8qXRaOA7aAWAy5o0gz09edUvbu+mofNBuT1v7VZ/omENb5yHf6ag2NqbHz5kDTbKhL7wGP07gj1/AjxP4E88+GZ1fk6uvpgh+ajloSDRo4P/UCDVADVAD/tWA78BPzbOXGQFQML0rniFl9V+meP2gDbNhoJDrdTCCn1xvC9QfoKPy/nPJO18uV+/URUEXrHyGINd//yZPiitqLEGfG20IAIPA0Pu++1UQjDsapBAUuNHGTCM7dZQO8GMX/vgJ/NiFP1Y2if5tfWNTeqbCcumPCcIfwh9qgBqgBqgBaiBLNeAr8ANPi0xZvl0bTE72meL1gzaM5bXCQZV/BlUEP9F9hWlWDW0DKij33/+dJ9/lFcmPJ8rUduDYBfnbN8cEq6g9b+2PiqHjhuYRR6fyQYN8+3OhmhpYUFgRBZ7cyINpRPc32yO72iNd4McO/PEb+LEDfxLZKusbn2R8YU2e9s3LteYpBYEAgpxsxS8C4uZW0hg7vZJGZ2VzUg99LPJIV32Qj87Xy72b9UFa7CP3dcg+in3dJ9Ic/vfy+tFps4/YR0YN+Ol55Cvw8/vLN2nz9iktvyFVvz2wDNwMz51ERlSs/wMTk7vSfFL/XOWVzqDPaEsOnPw9cCL42d1/COINsINVvRCEW8fPgQfO+bK78rxtwBPoiaDOWAkMcY6watkzwKXFD7zGQrv7iPcdtomVBtIJfhLBHz+Cn0TwJ5ZNYvx989MnCa9/lPnwB5lbcb4FZkPi6ja3LJPzYcs0pxZXkyqjk3ohD1frMxuSifmVmGk6KVuyx7pdnwD7yHUdso8S30d4HTm/P8e7Z/Bel1hz2XKv8xX4Kb1+y1PwA9iTzBQuo+GU6md4BaEMXkMgtKWV8c3f/DMoQ6wWxD1CjBf2206/IRA2lnbX7YM2wufeiSXLINlutN3I4rp0jc/L64FJQYwjP6+e50Z7MI0dPbIt7LVFusFPPPjjV/ATD/6kapvYOR/5u72trq7K2trarnTZR/9J6gWk2/2D9NhHyfVFrGuKfWTvPoL7ArRnbq9Y7erm7+Y83fjO64jXUTyN4pnnhs58A35a+8c9hSHw7onX4On+Lx0ACG3KQYm9QQnbie1EDVAD1IB3GtgL8AMjysrY9jNUQJ2sQEk6bBg3jFKrNNhH7g2IrNrXjd/YR+yjWPcYtwasVjrlvc4d3bGP7MFGaNDv9zrfgJ/qugbPwM9ee/nEulnidy+9f9CmHMh4N5Bh27JtqQFqgBqwp4G9Aj9WhpzfwQ/qZB4QxbMz3PrPamDm1m9mY5t9lNyAz63+sEqHfZRcn5ivP6u2des39hH7yKw3fPcS/EC7fB6lrju3+sg34KeorNwT8JNpnj5WFyTK6MXUL7QpByX2BiVsJ7YTNUANUAPeaWAvwQ8MU+OAKBuggtnYtrIt3P7NrcFprHTYR6kPHmK1rVu/s4/YR+b7ilsD1ngaNYIFc/5efI9XFjf+43XE68isW7euI0vwg8SdbOG1DZlZ2fAMIrwZnPAEfACmYEqVuXHxHb9bBWKGB47bG4JFIy+rcuiyeAF+kCbaloMZ7wYzbFu2LTVADVADiTUwE95wZHc4sVHsHruxsaHeTGIQYfecTD/u48ePKi5AppfTbvnYR87sc7vt6uZx7CP2kZt6spsW73WZrzv20d73kSX4AWl0QiyXVlZlatm7FWweN772BPzEWp0Lv3sFWuKlGy+4tFdlQttyUJJ4UMI2YhtRA9QANeCdBqaX4wcujPVixO3fNzc3d7mlO7GH7B6LwYzbZY+VHvJyatfZrYfxuFj5u/07+8h+PApj/+Cz230RKz32EftIa4/3uuS9V3gd8Tpy+zqyBD/v3793ZCR4DX7Kq+57AmKsvH28AizxgI/5PysghbKaj3PjO9qWgxnvBjNsW7YtNUANUAOJNZAp4AcDWe2xoA0uL/bpHAyhTk7tumTqHAsCePE7+yi5AZEXfRErTfYR+wj3Ed7rkgc/uLZ4HfE6cvM6sgQ/yMCJkeA1+DlTVOoJ9LB6WLkBU1JNA54/VmXD76mmbT4fbctBSeJBCduIbUQNUAPUgHcayCTwoz1kjHEjkgEh8c5J92DIqV0Xr+yx/rOyW7z6jX2U+YMh9hH7CPcK3utSAz+8jngduXkdxQQ/yMQu/PES/HSMzLgOOwA/ntQ/3wVXMsHbR4MZq5g/XgV5RhtzQOPdgIZty7alBqgBaiC+BjIN/MAGMgbYxHc3t70YDDmx65Kpq1eQxypdtB/KyD5ypkurtvTqN/aRs77R15xX/WGVLvuIfQTd8XmUOpzzy/MoLvhBJezAHy/BT2N7nyfgx2oJdy+XTtdAx+4+neVDG3NQEn9QwvZh+1AD1AA14J0GMhH8eGnI7ZWhbdeuw3FON6uBpVe/6QEr+8hZP3nVH1bpso+c9Y2+3qza0qvf2EfsI+iOzyN3wI8fnkcJwQ8qkQj+eAl+HjY0E/z8Z0uQXoEptDEHNN4NaNi2bFtqgBqgBuJrIFPBj1eG3F4a2onsuuWVFVkOO98+ftqUdG3v19dMZQxLeHXV9JvzOhjrjTzSVR/kY8wbn1dWw7IcxpZaPYznp7M+7KPk+o19lNp9xKh3Xkf2NMh7XWqa89O9zhb4SWQkeAl+qmrqCH48Bj9oYw5K4g9K2D5sH2qAGqAGvNNAJoMfL+DPXoMfs123Eg7LXGhJxhfnpGd2UjqCAcdb31JQ0rV1z0/tKl9ncEK65pIru1V9kUe66oN8rMrQOTshqJfVf8n8ls76sI+cX0PoU/ZRavcRq+uC11F8LfJel5rm/HSvsw1+zEYCvuvNS/Bz7fZvGQ9+9DLsOi4PVuBCvCB46CQbkDmdU73QxhzQeDegYduybakBaoAaiK+BTAc/sHfcjCeTCeDHaNdNLs1L/cSgXBlsleL+Zm5sA2qAGqAGqAFqIMs04Aj8GI0EDX2wXw6/l5nlD57Ag5JrNzMa/CDgcry5t4BAyUzRSif4QRtzUBJ/UML2YftQA9QANeCNBsZDH2VmeT3yMsloX+jP8Z6zbv8HKKPzNe/dgj+ZAn5Qv7mVkDwNDEhJfwuN/Cwz8gnxCDGpAWqAGqAGtAYcgx8YCeaYP8pFeGVdxkMbrgOEwtKrGQt+rOBMLAPUKfyxSttpGnYDSaONOaDxZkDDdmW7UgPUADUQXwMTyxsyv7IWE7bA7oj1bPXi93jgB2VxA/5kEvjpDAbk+rs2Qh9CH2qAGqAGqAFqIIs1kBT4sYI/S+H3MrW8IePL8Q08pwbwmaLSjAQ/iTx9zMYoPH+cLMeeTvCDNnbaLzzeXZ2zPdme1AA1kIsawAsjePssh1d9A37cgD+ZBH6apoZp6Gexoa/f9HLPt/7UADVADeS2BpIGP1bwZzH8XjBPH2/vAssf424Ty5tiZztTWCypbqcLi8W8vWpp3fUGEb+Zj4v1XcfzMQOeeN8Bf+zWJVb59PmxypXs71b9Zad/3DrGKn8vfnOrvHbS8aL85jTtlMOtY8x5e/XdrfLaScerOhjTtVMOt44x5uvlZ7fKaycdL+uh07ZTDreO0Xl6vXervHbSSbYusBUAfUIJoA/sjXjPVrf/S+Txg/KkCn8IfnLb+Obgi/1PDVAD1AA1kG4NpAR+rOAP3trBZXtuOf4WWv8kdrbCiyWS6na+qFjOFV60t124KHaOT9bQLK+4Yas+La1tuwxd/KbbwnZ9Ci/K+QsX5Ry2OG1g1V92+setYxZXNxJqJlLGlXWZD3+wf/y2FpGHW+W1k06kvAmuBRw3H16XuZV1x3WyUw63jmEfsY+gVV5H9p5dsa47Xkfb19HKmiyEsSR3fE8fDVmSfeYmc55d8JMK/CH4ocGfboOf+VFz1AA1QA3ktgZSBj9W8EcbavH2do2xsrIyKSkpSWkrLi6WoqIi17b6+vpdUMZufWpqamzVpa1tN/jBb7ot3KwP2seqr+zWyY3jnBjaKGsyMRYyydC2am9z7CyrY8y/udH2dtNgH+2Ob2buD6vvdtvXjePYR+wjaJD3uv8k/YzGdZhr1xGneuX2QIADQfY/NUANUAO5oQFXwA8MTaeDVruDnGvXrkVgh4YeTvdug5/Xr18nbVQa4U28egAQ4VjjZoRGboIfwDW/DVhRXqfwJ9MHQ15eR3avt3jHOR0MsY+2poPEa1O3/2MfbbW5V88jN/qLfcQ+wr0xk55HBD+5YfBzYMd+pgaoAWogtzXgGvhxOmi1a0BXVlbuKfi5ePHiLk+h6urqpMFPQ0NDyvUBMHIT/JSXl/sS/DgFC5lkaKPssTYng1a715EbxyUzYGUfZWZsErP2nEBUXkfp9SbRfcU+Sq3dndwDc+1eR/CT2wMBDgTZ/9QANUAN5IYGXAU/MFDtDlrtGmH3799PGZSk6vFjhj/Xr19PGvzcvHkz5fq4DX6qqqosIYTdPnLjuGQNbSdgwS8DVi+uI/aR9aBRD6qT2bt9r2MfsY8S6dAu/OG9zlpLdq+xXHseEfzkhsHPgR37mRqgBqiB3NaA6+BneWVFZpdDMrI4K+/mZ2JugXBI7Gx3HtXI6aLClLZTheflxPmzKW0nz5+LOn98IuAY/mBVr1Tros93sz4379+z7Cc7/ePWMaOhecsyxNOQ8b+h+aAML87FTQN5uFVeO+kYy5fM5+HFWUG94p1rpxxuHcM+2n0/Yx/Zu4+nosF4+rfzH/soM/toeD4oc8tL6qWDHYhqF9q4cVwq4Afwzg6gyyQ4R/CT2wMBDgTZ/9QANUAN5IYGXAU/06EFaZ0eldqxXrk32iV3hjtjbvdGu8XOdu7hHTl4qiC17WSBHDyZ78K2k86vpUWOwU/p7Zup1cPYDq7UZ6tNztZUWfaTnf5x65i7I7G1Ek9H5v/ipYP/3CqvnXTMZfPiu51yuHVMvLZ1Urd46bCP7N0XY/VpvLZlH8W+x8RqTy9+Zx9t9QPaoS7QL53BgMwvhxJ6C7sBdOymkSr4sQN/CH5yw8jmYIr9TA1QA9QANZApGnAN/MyEFqVxckiuDraKm5X79fd78tXxY65vhZXl8ripIWrDb07ywvl2DUkc6yTtdB6LNnazz5gWb3DUADVADVADiTRQ0t8sN4bapXl6VEIrK3Hhj91nrRvHuQF+EsEfgh9eH4muD/5PjVAD1AA1QA24qQFXwM9KOCxvgwHXoQ8qeqalzhNgYgVtkoEzN2vvy3xoKSYAwn9OgVI6oQ/yQhu7KSqmxZsUNUANUAPUgF0NVA69lYG56bjTvtwAOnbTcAv8xIM/BD+8PuxeHzyOWqEGqAFqgBpwQwOugJ9gaFGeBgY8gwdfn8hzHf64BX4ATn4uPi8AQC1dHQoCAfa8Gx9V3kTphjhO80PbuiEkpsEbEjVADVAD1EAyGigbaJEXE0ORRQYQ8wfQxLjZhTZuHOcm+IkFfwh+eK0kc63wHOqGGqAGqAFqIFkNuAJ+xhfn5MFot2cA4fvLhRkNfpzCFvPx8AgCKILBCmgEgJQuLyG0bbLi4Xm88VAD1AA1QA2kqgFM+Xo83hcFeszwxw2gYzcNt8GPFfwh+OF1k+p1w/OpIWqAGqAGqAEnGnAF/IwtzMp9D8HPsfs3shb8wFPIyhgFAEpm6pkZKiX6jrZ1IhgeyxsMNUANUAPUgNsaeDjWGwV+AEuM8MfqOenVb16AH+29tLa2pupJ8MNryO1riOlRU9QANUANUAPxNOAL8HP6ZW1Wgh949cQzXNMRHwhtG08g/I83EGqAGqAGqAGvNWAFfozwJ96z0u3/vAQ/qBPgD8EPrymvrymmT41RA9QANUANGDXgC/CDAu8/e9xV+GMFXTDdKpGHjJv/Y0pXIoPVyzKhTY1i4GfeHKgBaoAaoAb2QgOxwI+GP4melW7+7zX4QZ0+fvyY8PnvZp2QZ6ytaWqYtkA/r/u9uO6ZJ3VHDVAD1ED6NOAb8HPk9hVXoQwCMpuNKnjYuAl2EqWF/MxlMH/3skxoU15s6bvY2NZsa2qAGqAGrDUQD/wAWKyuriZ8Xpqfn8l+Twf4QZ3S6fUTC/rgd4Ifa03yWmW7UAPUADVADWSTBizBj1NjKfh+RWoCfZ5ChFN/PHIdyliBF3jhJAI2bv1vlb9V27uVnzkdtGk2iZl14c2ZGqAGqAF/auDJxEBcsANAYYz5Ew9kpPpfOoAM8gDMSledrGwL/VvLXIC2AD1+qAFqgBqgBqiBLNeAb8APjPkDRadchTKxplqlI6gyIIxeyUsbX1Z7r0AU2pIDJH8OkNhv7DdqgBrINg3YAT/pgj/pAj+oT7rgj5V9oX8j+OH9JNvuJ6wPNU0NUAPUwG4N+Ar85NVUugp+MN0rltcNfgeYAXgBCHKymT1rYn23mm6mDTG992pZd7QlL4jdFwTbhG1CDVAD1ED6NWAX/KQD/qQT/KQL/mibwmpP8JN+vfMewzanBqgBaoAaSLcGfAV+LnQ1ytcn8lyFP1ZBnq0MIye/xQI9Vr8DKMVKG0u9W52T6m9oQ7RlusXG/HiDowaoAWqAGrDSgBPwo2EJ9l5s6QY/uj5eTvuKZWfgd4IfXpNW1yR/oy6oAWqAGsguDfgK/EB8R++Wuw5D4sGXeMZSrP+cghl4/sCzCF5G2tPIK08flA1tyAs5uy5k9if7kxqgBvysAafgR8MSTJVyG/7sBfjR9fEK/sSyVwh+eN/w832DZad+qQFqgBqwrwHfgZ/CjgbXwQ9gCEBLrGlf8Qwmq/+cgp90H4825EVi/yJhW7GtqAFqgBrwVgPJgB8NS9yGP3sFfnR9vIA/VraK/o0eP95qm/cOti81QA1QA9RAJmjAd+AHjXbstwpP4A88b+D9kyoASjfIcZIf2i4ThMcy8AZIDVAD1AA1oDWQLPjRsMRN+LOX4EfXx234oyGP1Z7gh9ehvg65pxaoAWqAGsheDfgS/BT1NMn+s8c9gT8aogACwQsIcXacBHbGsTqNTNujzdB2vKCz94Jm37JvqQFqwI8aSAX8AJYAlLgFf/Ya/HgBf6yAj/6N4If3DD/eM1hm6pYaoAaoAWca8CX4QScX1N3NWMCSacBHlwdtxgvE2QXC9mJ7UQPUADXgvQZSBT9uwp9MAD9uwx8Neaz2BD/e65v3kOxp49KBFikfapPrQ28En1Pt2yuDrXJjqF1tZYOvU04v1fLw/OzRKvuSfWnWgG/BDypy6Fox4c/xY7baAG1l7nx+5w2BGqAGqAFqIBM04Ab4cQv+ZAr4cRP+WAEf/RvBD+8BmXAP8EsZ7o12yUR4UWZWl6VmrCcl2/rauzbpmAvIh82PsvZxQxomB1NKL5U2BMS6Otgql/pTh1mplMN8bkl/s1wefK02fDb/z+9sE2rAvgZ8DX7OtdW7vry79o7Jpj2Wb0db8cKwf2G41VZ4SFUMvZGq0U71hsiNdPFgrhrplLujXXLP6B13AAAgAElEQVRzuJ39SkOAGqAGfK8Bt8CPG/Ank8CPW/BHQx6rPcFP+m0DN2wBprE3/eYm+HkTHJNPnz7J8oc1mQgvyZNA357cywF9Ho31yNu5gNwZ7tiTMsTSc/lgqzRND8sfU0NS/q4to8oWq8z8fW+uTbZ74nb3NfhBB3PKV2KPH07xSnwheHWzgAtv1/yEepPTFhxL+YGFt0PtcwFZ3ViXT//5j4yEZmUv34DgLcxvY90KbnnVhqmkexmQbLRTbhCQpay9VPqB5+7dPcgvbe8m+EkV/mQa+HED/lgBH/0bwQ+vT7/cJzKhnG6BH3jWLK6tytrmhjxM0XMo1XaBrdoaHJPQ+nv5faI/o+yFquEOGVuel9HleakaySwolWq783zee9OtAd+DHzTYkdtXbE13yiYvHrt1QdukW1TMb+dG5jb4aQmOyvrmhno4T6yG1IN6L9u7erRTNj9tSmtwNCN1dn+sW2ZXl6VncdqVufh72dbMe+e6YltkX1u4DX40LEkm4HMmgh9dn2RX+9KQx2pP8JN91xPvkd71qVvg59pgq3qBB9iy1/0FT/KOuYmMBD/3RjvV1DqCH+80nZT++l5JMTfftUFWgB8I9vvLhYQ/png/aJOkLmZOm3Ct3dwGP+Mri7L56ZM0TA1mxDzsJ4HejAY/jwK9srgWJvjhNe3aNc17qjfGpxfgR8MSp/AnU8GPrk8y8McK+OjfCH680TTvFdnZrrHAz+2RDsHLJkxHqhx+Kw8DfVI70S81471SOdwe5Z19c6hd6icHBddgeGNdHYfjERoA067g2VI91qPSwmf8B+9l7eGNY5Am0kYejwJ9cne0U8osgk2jPIAntYF+dWy18tLemjJV0r+V1/OpIQmuhpQ3+du5CXUsQgpAw1cGXwvqfGe0UyqGkFaXKk/F0FaoAeSLtOGRbtY88sZ/OMb4H+qBNkBZUH7UD+ELjFO5YD/j/zdzATUVLri6LE0zI6quOq/rQ22qDVBWq9hEOB9tA+905F828Hr7+A6VF/5/MN4jSEeXD8feHu6QmvEeVTa0MfqAgbe3r+e+V3Kx76UU9XLzYxtkDfgp7GiQby+cJPzZhj9oC7SJvpFxvzcGSCzwgwfIb6Pdcn+sR24gBtBwh3o41U0OqgcgHojGhxiMgdpAnyysr6r54K+Co4JjfxvtUn18a/itYOCE82AMPBzv3Xo4DrZGNABDAcc9DPSqc/EwhjGANz1mfZT2t8idkU55PNGvjn0y0a8efNrowEMR+Q+FggpEYY/vxgfsVcMD/9q7Vnkw1qMMAMQlQp6oOx6o+gFuLMNWffvVQ/+ShSGDeiAv5Il6wxDB2zOdBgySp5OD0r0wLeubHyUQXpT6KbRtb8SwgBGFc2Gg6Xrp87GvQfoTg1Htc2u4Q9AWaGfdljBYjG0IowFGjm475Inj0abG9Pl5b65JtntmtrtX4EfDEifwJ5PBj66PU/ijIY/VnuAnM68J3qsys19igZ/OhSkJra8KwMlQaFZ5Z+N6Q9Dmd6Ggsre0rdE8M6ygj/F61MGdAT/6kNaHNemcn1DeLrBj+paCCuwA7tQGelUeax8/qHQ+ftqUmdWQAODA7tTagW3yZnZceT4jlhDyW1pfle75KWV74ti+xeldZcELxp7FGZUO7JnAyoJMrYakZ2FKAGA2NjelcWZYLvU3y2BoTtmBsFF1/XT+dYG+LRtxKRgpE44BcBlcCqr2QpmQHtJtmx1X9hLOxzFT4aVdZdvY/KhsSRxTP9EvKxtr0r84E2WH6fxVWT9tyt3tuEU3h98quIXg3B3zE+rFINrj6fb0NrTX88lBNbXs/ca6yvv9xgdV/2eTg1Ftq/PIpf3FvldS1PNSirr/kMLORinseMHNZ22QNeAHF96Zljr595mCnIc/aAO0RS7djDK1rrHAD6DBcGhWze/GgxTzl/FwwQMQ8XvwEMNqEYA1qJt+uBmNBHzWMX5eB0fVwxXGAiDMyoc19YZEzxvXhsJwaE69XcK5mDI2vRqSppnhCAxBXgAUCDCIBz0exjgWe5QRb0Dw0G6fHdv1MMZxCFB4ezueDsAODBkELMQbGzxcUbfG6WH1VgwP9Ln31qtiPJsYUOUcX57f9TBHGVAP3V4wUPCmCvPTsSQqyqffpKFMxm1+LawAGurZtTCt2qx5ZlS90TJrCMd++s8nebAN1/A/4jRtfNqUvoVpZXSFP6zL0vp7qRnrVv0Eg61xekimwiG1Sgfyxts8GDgw1PC2yZwPv2emcc9+SW+/eAl+NCyxC38yHfzo+jiBP8b7oPkzwU96tc57i7/bOx74wdR32CawewBEBkKz6jPsLdhQeNGH/q8d75Wh5Tlln2BFLxzXvTgT8RiCLYfrFOdNhpfU/4A6AC3Vo90qTdgWYysL6j+cD5tleX1Nnk4MRGxHQAykgf90eQBDUM6WmVEFkhqm3snw8rw6F2UB4AFkejY1pMqqwY+2Z8ZWFlWe2h50An5gn+mpW6sbH1TcHpQdaSBflB+wC7YUXmK2BMdUXWFLor6jKwvSuzijvJ/Qjto2dgJ+0B6wGzHFbnh5Tt7OT6iXh3hph7aYe78ic2thGdruP/QT7DzEY4JtmcueP8rTp/sPOXDxNDeftkFWgR/cBE6/rJVvTuXnLPxB3dEGNCwyw7BIBH7w8MEDDQAGD9rexaDyTsFvgZXFiHssHpTt8xMKnCCoMx7SvUtBadx+MAP84KGMNyF4mPUvBdXxAEzQAh7ceMOBdMfDiyofPMxC61uA6MXUUMRFGHnhARzeWFOGCcqEudUAHgAs19+1KTCEh+/s+2XlgRR8v6zSRBm1qy7AD4wIvGVSD+zlBemYn1SePnCHTgb8wGsIU7cAkN6F5lSe/aGgelDjYY456uXvWtVDHOVGHCS08eL6qmrf1tnxSHDAZMEP2h/1AshCO7fNTSgDBV5NiMGE9ofRAGMGZYCRBEMQbfpgrHvXGzFeq5lxrbIf9rYfvAY/GpbYgT9+AD+6Pnbhjxn2GL8T/Oyt9nnv8Vf7JwI/sLXuj3YrSIO+vT38VkaW4RWzqbxJAD/we6wYP9rjB7YLpvebAxrDE+bt/KR6aQfvaK0fQAu89MPLP/07Xjoh35czwxHbAy+qADew8Ig+F1Odtjxwdgd31uAHLwC7F7Y8hfR52DsBP3iZObA4o14mds5PRuzFLaDVJWPLC8qGgneNzuPheI/yBrKK8ZMs+IFNBnsN09h0PgBqeGk3+35F6gL9EZsYL05fzoyotsULUXh+63Nyag9vn96XUtj5gtDHp9AHwC7rwA8uQoCPXPT8QZ0JfTLLgEgEfgBFYCQYgQAe8ngLAZBh9kYBPMA5ZkNAgx+AHTz8jdOK8NDCKg3T4ZD0LE6pKUq4TmB0wK32/ccPyntFQyI84ABWhpaCyoMGx+ItFR66AD3GpT4R1BlGhVVwZw1+UI+ehemI+y7SSwb8oLx4UwWXZnj36OlVMCTqJvq33nZ9wNuunRUpMN0LxopVcOdkwQ8GTGgfvEnT7YxpeXBzhps3jAa0N9oddcVbK+SPc/SbLPzOjW1ADexoIB3gR8OSRPDHL+BH18cO/DGCHvNngp8dHfKaZFsk0kAi8AMvFdh+xnQatj1veuenIt44icAPPGKaYyycAfsCQAl2R8P0sDQFR6Vrfkq9ZJsMLwqm1CN/2BzKBlqYVnZX5XZcnseBPvVdl9EO+IHHC6a663P03gn4AZBa29hQ3jPa5tTpwJYD5AHUwlR+/bsX4GdhbVW1n84DMK5haki1VfD9iuAlIdpUb4BU8GjHS0yAN31eTu01+Okg+PGzx1NWgh9ciJjqlEsxf1BXTu/KPIMlEfhZ/7ghr4NjkTcx+iGCBxAeMngDg+lL+vd44AdACJ5DGkboc/AwvYPggOM9Eeij/8N0MswLB3zS8YJgaABSYDoVgBTOx/G/jXbKo/FeKTcYNHbAz9zaipq2pvPEPhnwsxVI+pMqr4Y+Ok0YQXhDBIMHsEz/7gX40bDO2M4w4NrnAsoTCAaChj66HGg3QDN4AsFrSf/OfeZds+yTvemTdIEfDUviwR8/gR9dn0Twxwx7jN8JfvZG87zX+LPdE4Gf51Pvdtl0tdtT30dDcxGbKhH4gQ1o9HzRegE8+WNmWNloC2thBSuM17MR/MCDG1PM4AkEbxbEGmoOjqmp50Ybxg74ga0Im1CXQ++dgJ+tlWA/Kc8efX6ivRfgJ7i2IpcN8SPh+dMaI4SBsW3xotMIpRKVPav+J/jJCk+nrAU/uNgQ3DgXVvtCHRnIOTMNiETgB/OZ4aFjfjjUjvcoSAC3UgRS1v8nAj+D28H49PHGPWAJgAvmKLfOBdTWtzSjAJMR/ADwYJoZ4tdgj7cvOAcPfGPAaaRtB/xMhkNya/vtky5PMuAH8XUAXd7OjUfaQ6eHPeZnA2TBLVn/7gX4wYMf8+91HtgjeDNiNuHNGgJJ6/bV+77FrXaG91PdxEDUucZ0+Dkzr2P2i/f9kk7wo2FJLPjjN/Cj6xMP/hgHL+bPBD/e65v3kOxp470EPwAU8MrGVHN4QHctTEXsjf7FoMBLyAh+oDvAHwRihj0CWw+eyZjqhReMWpfpAz9davo9pnTpvBPt0wl+YGPCzta2m9U+56d60ePH1wAoq8GPvpkcuX0la2P+oG66ntxnnmGRCPzgAWz1RkeDn5lwSK2upfs2HvjBfHAzkMB5cGEFPGqfm1AeQYjrYzb8jeDnEla0Gu9RAabxhgcwY3n9fSQQtHGVLTvgB0EOdUBDXY9kwA/mo+Oh3DIzYlvzXoAfTDXrnp+MKgNWBguszO9qV3M7oy1RJt0O3GfeNcs+2Zs+STf40bDECv74Efzo+sSCP+Z7kfE7wc/eaJ73Gn+2+16CH9hyiBeEaVeIzWicUoZFORDP0Ah+YGsZQwngxR5e5MEWQcBn7fWTCvhB3B/ElzTGitTabpoaUqAHoQPwG2xBhCTAVCs97UwfC+9yeEQDtmDFV/17PPCDBUwQV3FiZVHKDUuy41ykh/8Qn9K4qhdewJk9fvBSEyAMq6cNhmajPO11ObCHN7eO0WT8PSc+0+PH18BHT0/LCfCDC7Kg7q58fSIvawAQ6oI65cTNxsfxUDIB/FQMtSlQEf6wpjx4XhvmLnfOY/nR91FTvbSmEJsGRgPmjyNGDdyO4S6Mt0f6mGTBz92RLa8iuClj6Xmdnt5brerVFhxV4KdjLrDreJyHtsa8dT1lDb/FAz8AYQjSjHhBRuNJlyHWql5W4GfL4yeoDJp3odnIvHA9P1zvG2dG1PLxOg/u/Wn4s9/c77e9AD8alpjhj1/BD+qDzQr+GEGP+TPBj/t65j0ie9t0L8FP1XCHircI2wn2jtYZ7DWsbAVwYQQ/8DZGCAC9wiuORxqwY2DTafBz7V2b9MxPqWn+CASt08VeB3eONdULi4xgMRDEgUQ59LnIB17rWB1Vgx+AE4Qw+LC5ubUYx3bogEsqnECXSgM2KabL6XQQKBuLgSB/2KT6d+yxmMdEOKQ8nfASVYcmwH+oB+ppB/zgeMTuQR5oFwR+1guVoMxPAv3q5SnqioU8jGXImc8EPwQ/2nhAIKwaww0oUy+Cc231cuhase/hD+qAumRqO7NcOwZPJoAfPLTxdgggA2+E9IMe/YTYM1hS3ejxA7BTF+gTACP9ZgOf8eBWq0NM76wOocFP++zu6Vc6uLOVx0/Fu60VJN5vrKu3TzofrR0EncZbGeNy7vCCglcT3Jt3xfhRy3AOqYc2Htg6HQ1+YPxcMS2l/sf0sAJZ+M/skQSDZWVjXXnwmJdztwI/KM+b7TIj1g+MGF0G4x7HmeP/GP/nZ+t2Y7tkf7vsFfgBKAH4McIfv4MfK/ij7TWrPcFP9l9fvIe618d7CX62YtGMq6n4AB49izNqw7LuCDwMr2gj+IEtBe+emdVltRIsjsdKYbClegxT1gFMfp8YUOAHcRmxtLz2Tk4EfhCHEkufI/8RrDi7XSaECsDqWbjnaPADWw8v5wBycDzOQ5mwqi1sRYQ/6JqfVPan1izsJkxpQ+zJsfCi+lw1svMCEp5GmOIGGxcrreo2wYtK1N0u+IG9jrRgLwM+6bINYOXYtbBaURZAKmeXcyf4IfjRBoRfwI++icBTZv/Z474DQCgzvXzce3hrPXi5zxzwE1YPLizjqet7Z6RTvXkBYDGCn6aZYQVQ4AmDt0A4Hg9eBCWEsfDCELjw+cSAMjTwpgfH6LSxjwd+4FYbCSK9PBcVxwhuvVgZCwaMEfwgfaxMBvACuKLzg8FSPzGgXJwxjQ3QSpcDb8Tw8EfcHWPsn63ydQuWocf/cPFFjCD8juXq8eYLBgPucXbAD4wZQDS4WcNAeDoxGAE8SA/pwxh5NTO6CzLpsnLvr2ub/eVuf+0l+DHDn2wAP2b4o+01qz3Bj7ta5r0hu9tzL8EPtIUVu+CxDC8bfT0D1iA4MWyniZWFyKpeeKnVMTehYAY8b3A8AAq8bsyrasHD5c1sQHm8KDC0HTMyEfhBmXBM9/yUemGnywS7snF6WP2mwQ+OLelvUfEYh0KzKt4Qjoe9hbhDsO0wdd58DQEWvVsKChZEwbSy2sDO6mKwBbXdinIjvcW1sAJbOMcu+EGeV9+1KnsNnkoaWsEzHIGxYcdpu9Ncvpz4TvBD8KMvbr+BH1ygRT1Ncuy3Ct/AH5QVZc6Jm0sMbwk/1j0TwA/mbuPNDlyA4fI7tDyvtqnVZfVgw4PSCH4ejfeoNyd4G4O3Kzgeb5Peq3nZ4ShXXngC4S0L5mzjmO7FaYE3D/oqHvjB//CqwRsVGCGThnIBnODhbgY/OAcG1/z7FVXusZWtsuENE97QoAxv5sajpm3BsEEea5sbKmBfx/xEBAAB9GBFNeQPYDO6sqDqCkiEusK4+GQT/KBs6GsYOYjbpNLbbmekh7dYMGowtz5n3xZl0XWN/ubmbhvsNfgxwp9sAT9G+KPtNas9wY+7Wua9IbvbE4N/2DeIhahfjqHPq+AtPTFgGR8GUOXxRL+aTqQ9nOF9XTc5uGuVKLzMAkjBUu1mb2StLdh1DwO96nykgWlKKBf2mA5VZvBwRt4oL47D9jDQF2XH6TRRLhyL+Dqox93RLvWcg22jYgWN9ygwoo8377HaWO1EfyQf1AF1xG/GKfg4D3nBPkMbokxYJh5lR73M6eI7XhbieAAfPCvM8Xxgz8E+RLmRHuoL+xTn4Hh4SiEd2F/IqybQG/FoN+eH+mIlXLQ/0kK/wRNevxw0H58z3wl+shf8wFhwso0tzArmYPpR/FgN6+jd8oyM/4M4PigbV+zyrxGRCeAHb1fwQBzAylLbgZ216+/buYDyhjGCHzzcfp/oV0uAAn7ogcLo8px6SGujRV/vCMYXXA2p4zA3+vb2HO9E4OcS3hKNdCoopd+swJtnfGVBzc1GWkaPH53fb6Pd6m0VXHtRNkw/mw4vqWXczUYDDCh4EGE5U7y1AaTCw1ynheOx/Pvc+7DyZkJ6gEhwj8YqXYBidjx+dHrob8wzR3sCtCE9gCW03VNlfER7RenzuPfvNc6+c6fvHo71xrU79H3I6/36+nrccjixjeIdmw64pNvKOI3NqkxNU9ExPahpdzTNdmQ7UgPUQNZogOAne8GPVWBAK2NB/+Zn8KMvyAtdjZJXUykHik7tuRcQyoCyoEy6fNz78+EBSAK31fvjPWrJb92PiPNSNdKh3nDgDYv+Xe/x5ubeWLd642L0EMEbGLypMP6GczDHGm9pYi0zibcleHP021i3isf1YLxHMEcaed8a6VBvl4xvMwBM8KYE5Ub8LmwI2meGPsgbvyEtHFM91hOZ4gQIgnzUW5+Bll111OfiLRHe9OB8HI98URaU9c5o564l5HV9d87pVW0ZywUXdVF9MNaj0jQfh+8oI9oPZQAkw2+oL35DPZCnznernXe7Iutj0LfoB/VGULVJt8rf+AZOH8u9P69r9pv7/ZYp4Aew5OPHj57Dn3SCH9Qpnl1H8OO+nnmPYJtSA9RAVmmA4Cd7wQ+ATjwjQQMfvc8G8GO8OE/98UiwTHo64wAhL+SJvI1l4Wc+OKgBaoAaoAayXQOZBH4AZdbW1jyFP+kGP/HsOoIf3l+y/f7C+lHj1ECKGiD4yW7wE89I0MBH77MN/BhvDqdf1sqx+zfk+8uFrk4HwzQupIm0kYcxT35O8ebE+BvUEzVADVADvtJApoEf2Ddewp+9AD+x7DqCH9octDupAWqAGoirAYKf7Ac/MBISzQ3HMdkMfswXwZmWOvn193sqMPThiktysPS8fHvhpPz7TEEUGALYwW/4D8fgWARoxrlIw5wuv/OGSw1QA9QANZCrGshE8KPhjx07CMc62fYK/KCM5voQ/PC+k6v3Hdab2qcGbGqA4Cc3wI+VkWA2bnIJ/PAGYfMGwbfthHvUADVADVADNjWQqeAH9g48f8ywxGwHOf2+l+AHZTXWh+CHdg1tW2qAGqAG4mqA4Ce3wI/RSDAbOAQ/vFnEvVnYNPyZBnVEDVAD1EBuaiCTwQ9sHrfhTyaAH23XEfzk5jXHey37nRqgBmxrwCXwk1/9WJ50D8nYUlhWZ9qThin5T5qkLbAgC+E1WcXLGWzhkAQDXXKn6nTMdJM970DX9E4+Oj/zPjQk1Rdj533Aw/+aZgztYC7X9veFkWfyX599vk8++wzb5/JPbP/8zNJdGQaCNhIIfnijsH2jIPThG39qgBqgBqiBBBrIdPDjNvzZa/CD+mi7juCHNh1tOmqAGqAG4mogafBTJhfrm6RlZFqCIROcSBL8lLYHZMEIN8JhWV41pB0OStvzsl3wJ9nzAGwu9gUzGPzclrZZQ/2NbWP47Aj8aCPBarUvevzwZhH3ZpHA4Oe51A81QA1QA7mtAT+AHzfhTyaAH23XvZweIZiknUINUAPUADUQWwPJgp/GIROkCUlwaRtSJAN+anpkchtmLAd7pLp6B/CcaeiRSe0BtDAgt4weNsmet51G9UhoC/xMJe+l5J3HzzPp2YZqY53xPY5se/zAQNBGghn+EPzktsHOARv7nxqgBqgBaiAVDfgF/LgFfzIF/KA+9PjhtZvKtctzqR9qIAc0kAL4CYZDMjbSJU/qb0v+xdMSgShJgJ+asfAWgMG0qordkCO/PbDtmROSnsad/5M9T8OapqktWAWvGf1b5uzbZUzBsOg6W5XPMfixgj8EPzlwwZOCx6bgbBu2DTVADVADKWnAT+DHDfhD8EO7iYNlaoAaoAZ8o4FkwY/R68bsPeMY/NRJz7a3UGwAoyHImox1afCT7Hn6/DJpCW6Bn8nuHQ8jK7CS+Le70jCxIJN9dQqC7T7+rjwNBGVy8FmM/3WZDPuKrm0vqKC0WMAwYx5JgR8z/CH44Y3LNzcuDs5SGpyxn3mtUwPUgBca8Bv4SRX+EPzwOvLiOmKa1BU1QA14ooGMAD+3pfptl7R0d8mTpwbwEQWXNPgJy0CzPibZ8/T59qdSGSGL1efzkSDRYQv4A+izPaVsLbH3TiT9yHS6aWmKagtd/p190uDHCH8IfniT8eQmQ0hDSEMNUAPUQE5owI/gJxX4Q/BDu4l2EzVADVADvtFARoCfHYARgR4m0JHfGpBlTHtaDUhDAu8XYxrxz2uWYRU8GlPWAhIMbU83Qz6YxvauWSps53VdanS8oDUj/DFCn7CMddfY9/hp257eFpqWHtNKZ8tL09LRtpNWSuBHw5/xxTm5P9qdE8apby5QDpaoR2qAGqAGqAGfaMCv4CdZ+EPwwwEf7UlqgBqgBnyjAV+An8fSsbA1JWt57IWDWDyJztNeRNtBqbeDS0eWkcf3BeuYQ0a4tPPZDH+aDJ4+DqEPwFfEiyh2+YLDW1PHUgY/MHrGCH44uPDJ4MI3N1i2J68paoAayCEN+Bn8JAN/CH444KM9Qg1QA9SAbzSQ8eCnbCdodDggT2174Ng4r2Fge7WwsATH2qWm5rqCSmdqXkjLlJ6atSbLgSb7XjoXjfBHA5skoM/F03JnMLi1nH14QQY6X0hpFTyjrktpU5eMba/2tbqGqW9l4g74WZilx08OGei+uUmxTzhwpgaoAWrAFxrwO/hxCn8Ifjjgoy1FDVAD1IBvNJDh4Ke0a3pripeKjWM/ALOT8/IrrNItkycBPfVrWppsAyfAmcfSNquhz5osBJrkjGnq2o6XUKJpbmWSb5V3RZMMrGznMdNO8OObC46DF18MXqgnPsSpAWqAGnCugWwAP07gD8GPc43wumKbUQPUADWwRxrIYPBz5uWQLKjpV2EZ67pre4pXsuftgjF1AxLcnv413JYI0Oj/jTF9NPwxxvzRx6W+rxhc2FrifjXgDvgJLM7JA8b4IZggnKIGqAFqgBqgBpLQwKOxXgE4ibX95z//kXRtgDKxymHn9zUYgKurcdMg+NmjwUsS2uRAk31FDVADOa+BDAU/+ZEVrdYES7zn2/SYSfa8XdBH5WdY9SuyhHw8YGOEPpje9VieWAZ8jpeGg/8ibTTtDviZCS1KXaCfxi4NCmqAGqAGqAFqgBpwpIHSgRZ5PjEYF5SkC/ogn1TBD+BQIvhD8MOBZM4PJHmfdHSfpF54z9hTDWQi+Klpl7HwlrfMQqBZSm1CnwPJnhczfSfgxwx99Ipbxpg/Lnv+uA1+QuEVaZ0ZkyuDrbyJ8UFGDVAD1AA1QA1QA7Y1cHOoXfrmp+J6yfgN/CSCPwQ/HMTt6SCO9yfb9yf2E69VaqBZijMN/BjgzfJMe1LQx955tyNxeIKDNdbTyCq6ZNLmVK/zkRW4rAI5G+FPSHoabXj13O/ZzntBOuqsj8/vDro71QsGzuTSvNQHBgl/+DDlw5QaoAaoAWqAGrClgauDrdI0NSyLK8sK/MSaIuVH8BMP/hD8cDDJwSQ1QA1QA77RQCaBn4pn0rO05emzPNMlFVZBja28c5I8r1pPw1oYkFGsVBsAAAcCSURBVFsW6Zb2bYOVNTvBne9Kw8SCjHVrTx8zrAH8WRC9/Lr11DLjOTveRsF3jy3A1N0IuFp1K7gzjBsNf2DAVY92SdVwR9zt7miXpGurGumMW5ZEZd31v1V6I51pqw/abVeZErR3Msenq39UfazaNJU6WaXHPkpJo7yO4t/TYl1jvI5Su9fHalc3f2cf7U0f3R/rkebpUZlfDkWmeQH8WMEfv4KfWPCH4IcDPt8M+AixbUFs9iev6azWQKaAn4oaaZnZXkVraUiqbUOfJM8D6KnRXjVYeatNbqnl0gFfyqSibXQ7sLTT5dyN8Ca1zzvgKSQD7Y93VgarqJGnAb3cvIvLuWvwg31oZVkQ7HlwfibuNhZelHRtw0uJy5OovOb/3y0Eo+qHPNJVH+RjLo8X39NZH/ZR/OslVv+yj1K7j8RqVzd/Zx+xj4wa4L1u+143Ny0Ti/OyvLISgT7alrCCP34GP1bwh+CHg8SsHiQSFhEWUQPZpYEMAT93hjXIWJPVcFiWV+JtQelo2IIqyZ6nPW5K2wMRwLO6traV76pejWtNVhccQCgLryGdT3J7eBEZ2mV1q01QTr1pD6L/+uzzffLZZ9g+l39i++dnu4wwbYylsjcbcn434syGXCYZccn2E/vI3VVjku2HeOexj9hH8e6duA/F00+y/xkD1fJel5oG2UexV+4y6pP3utR0Zr5PGNvW/Bme2oQQBFHUADVADVADMTWQIeAnMu3KADU03Ni934mTk+x5RhCT/6RZOmZCsmwAPsuhBRnuf2E/xpDr0Ed7C8H7aEDGlra9odTqomFZmA9I28udJe7TBn5gaBgNObNR4uV3rwxt1EkPiLJhMMQ+Sp+hbTa8nXzndeRePzlpdyfHso/YR7GeaXwe2QM/uN54HaXnOiL44WAv5mCPXhuEotQANQANuAh+jDCFnzW4Sc8+reDHaMjFMoq9+N1LQxt1AvzZ2NgQL8oeK00ng1Cnx2pjO1beXvzOPrI/GOJ1lJ7BkNPrxnw8ryN3+sncrm5+Zx+xj6yeZ7n2PCL4Ifgh+KEGqAFqIK4GCH4sAienB9a4CcfSDn5gtMPYXl9fTxso8dqIQ50AfzY3N9NWJzcHP1ZpsY9SHxBZtaubv7GP2EfmQSvvdc4AKq5HXke8jnL9OiL44YAv7oCPHh/0+KAGqAGCn+wFPxg8eL3B4P748aPn+XhdD50+wI/2/NG/+X3PPvL+OkhVI+wj9lGqGnJ6Pu91ma859hH7yMl13TYbkLLB1xzYcHBLDVAD1AA1YK0Bgp/sBT/mt19efMeAFRsMVP3Zqz0MIC/qYEwTeej64A2yV3XR6Rrz9uqzzot95NyLAG3nVb8Y02UfJdc3ut2MbenVZ50Xr6Pk+sqrfjGmyz5Krm90uxnb0qvPOi9eR8n1Vbx+mQiH5Lexbmtjn4Mgtgs1QA1QA9QAwQ/BTzxDItF/2ojD3mtDLp3gR9fHa/iTqH3d+J99lJyBrdvNjT5IlIbOS+vO+N3tz7yOkpsSY+wH3uucX1OJrgE3/mcfOe8XY5u50QeJ0jDmx+vIeX/Fa98Pm5vSHwrKrZEODm44wKUGqAFqgBrYrQGCH4KfeIZEov+MRhw+e2nIpXvAquvjJfxJ1L5u/M8+cm5cG9vMjT5IlIYxP607829ufed1lDr4YR85v6YSXQNu/G++Rvg8ctZPbvRBojTYR876xNxeidp3ffOjjIcXpSk4Kg/Ge6VqtFOBIMAgu1vlULtEbcNvo7+b/0/h+61h++WyW/5dxw13RJcf9fGyTg7aeldZbZ4b1T9ofy/rwz6yfe0Y+5N9ZLqPOLxPGNvSq8+52kc3BtukvKdZDpecT2n76dJ58XpLtYxOzv+pxPv6IA8nZYp1rGVw50QGghv/m40SQBKvjO29GLCifqiPV/DHjT5IlAb7yFtDO1H72/mffcQ+MmqA9zp34ByfR86uKzv3qlSPMeocn9lH7vfR5qdPEt5Yl/m1VQm+X5HgmrNtbHFWorc5CYTmTb+Zj0nu++TKouPyOa0P8oiuz6yqz/jS3K7fzccl891p+ZI5fne52Ee72yS2JpNpc6fn7C4P+2h3m7CPnOoq3vF27nWjC0EZmZuRgamAlJZfTWm7erNCvN6sylhWUZ5Sua3SxG+XK8o9rw/yMOev6nP92q7fzccZv2cM+PHSkNurwRDq5BX8SdWItnO+2dBmH7lvaNvph3jHsI+c9Ym5veK1rVv/mfPkdeSsz9zqh3jpsI+c9Ym5veK1rVv/mfPkdeSsz9zqh3jpsI+c9Ym5veK1rVv/mfPkdeSsz9zqh3jpsI+c9Ym5veK1rVv/mfPMletoeXlZ5ubm5MaNGyltVVVV4vUWq4w3b95MqexW6VZWVnpeH+RhlbfT+vx/f9Mpxp1jxc0AAAAASUVORK5CYII=;" vertex="1" parent="1">
          <mxGeometry x="-199" y="585" width="1150" height="491" as="geometry" />
        </mxCell>
        <mxCell id="II7UFy0TQZ8Xzfp5rinB-24" value="ОС" style="rounded=0;whiteSpace=wrap;html=1;fillColor=#f8cecc;strokeColor=#b85450;" vertex="1" parent="1">
          <mxGeometry x="442" y="233" width="355" height="15" as="geometry" />
        </mxCell>
        <mxCell id="II7UFy0TQZ8Xzfp5rinB-25" value="Docker" style="rounded=0;whiteSpace=wrap;html=1;fillColor=#dae8fc;strokeColor=#6c8ebf;" vertex="1" parent="1">
          <mxGeometry x="442" y="248" width="355" height="9" as="geometry" />
        </mxCell>
        <mxCell id="II7UFy0TQZ8Xzfp5rinB-26" value="образ" style="rounded=0;whiteSpace=wrap;html=1;" vertex="1" parent="1">
          <mxGeometry x="468" y="259" width="37" height="66" as="geometry" />
        </mxCell>
        <mxCell id="II7UFy0TQZ8Xzfp5rinB-27" value="образ" style="rounded=0;whiteSpace=wrap;html=1;" vertex="1" parent="1">
          <mxGeometry x="537" y="257" width="37" height="66" as="geometry" />
        </mxCell>
        <mxCell id="II7UFy0TQZ8Xzfp5rinB-28" value="образ" style="rounded=0;whiteSpace=wrap;html=1;" vertex="1" parent="1">
          <mxGeometry x="654" y="257" width="37" height="66" as="geometry" />
        </mxCell>
        <mxCell id="II7UFy0TQZ8Xzfp5rinB-29" value="" style="rounded=0;whiteSpace=wrap;html=1;fillColor=#fff2cc;strokeColor=#d6b656;" vertex="1" parent="1">
          <mxGeometry x="468" y="257" width="37" height="7" as="geometry" />
        </mxCell>
        <mxCell id="II7UFy0TQZ8Xzfp5rinB-30" value="" style="rounded=0;whiteSpace=wrap;html=1;fillColor=#fff2cc;strokeColor=#d6b656;" vertex="1" parent="1">
          <mxGeometry x="537" y="257" width="37" height="7" as="geometry" />
        </mxCell>
        <mxCell id="II7UFy0TQZ8Xzfp5rinB-31" value="" style="rounded=0;whiteSpace=wrap;html=1;fillColor=#fff2cc;strokeColor=#d6b656;" vertex="1" parent="1">
          <mxGeometry x="654" y="257" width="37" height="7" as="geometry" />
        </mxCell>
        <mxCell id="II7UFy0TQZ8Xzfp5rinB-32" value="2 * 32 * 2 = 128 поток" style="text;html=1;strokeColor=none;fillColor=none;align=center;verticalAlign=middle;whiteSpace=wrap;rounded=0;" vertex="1" parent="1">
          <mxGeometry x="54.5" y="405" width="134" height="40" as="geometry" />
        </mxCell>
        <mxCell id="II7UFy0TQZ8Xzfp5rinB-33" value="32" style="text;html=1;strokeColor=none;fillColor=none;align=center;verticalAlign=middle;whiteSpace=wrap;rounded=0;" vertex="1" parent="1">
          <mxGeometry x="-15" y="337" width="60" height="30" as="geometry" />
        </mxCell>
        <mxCell id="II7UFy0TQZ8Xzfp5rinB-34" value="8" style="text;html=1;strokeColor=none;fillColor=none;align=center;verticalAlign=middle;whiteSpace=wrap;rounded=0;" vertex="1" parent="1">
          <mxGeometry x="95" y="337" width="60" height="30" as="geometry" />
        </mxCell>
        <mxCell id="II7UFy0TQZ8Xzfp5rinB-35" value="12" style="text;html=1;strokeColor=none;fillColor=none;align=center;verticalAlign=middle;whiteSpace=wrap;rounded=0;" vertex="1" parent="1">
          <mxGeometry x="207.5" y="327.5" width="60" height="30" as="geometry" />
        </mxCell>
        <mxCell id="II7UFy0TQZ8Xzfp5rinB-36" value="12" style="text;html=1;strokeColor=none;fillColor=none;align=center;verticalAlign=middle;whiteSpace=wrap;rounded=0;" vertex="1" parent="1">
          <mxGeometry x="98.5" y="242" width="60" height="30" as="geometry" />
        </mxCell>
        <mxCell id="II7UFy0TQZ8Xzfp5rinB-37" value="12" style="text;html=1;strokeColor=none;fillColor=none;align=center;verticalAlign=middle;whiteSpace=wrap;rounded=0;" vertex="1" parent="1">
          <mxGeometry x="586" y="212" width="60" height="30" as="geometry" />
        </mxCell>
        <mxCell id="II7UFy0TQZ8Xzfp5rinB-38" value="2" style="text;html=1;strokeColor=none;fillColor=none;align=center;verticalAlign=middle;whiteSpace=wrap;rounded=0;" vertex="1" parent="1">
          <mxGeometry x="589.5" y="252" width="60" height="30" as="geometry" />
        </mxCell>
        <mxCell id="II7UFy0TQZ8Xzfp5rinB-40" value="24" style="text;html=1;strokeColor=none;fillColor=none;align=center;verticalAlign=middle;whiteSpace=wrap;rounded=0;" vertex="1" parent="1">
          <mxGeometry x="456.5" y="303" width="60" height="30" as="geometry" />
        </mxCell>
        <mxCell id="II7UFy0TQZ8Xzfp5rinB-41" value="6" style="text;html=1;strokeColor=none;fillColor=none;align=center;verticalAlign=middle;whiteSpace=wrap;rounded=0;" vertex="1" parent="1">
          <mxGeometry x="525.5" y="302" width="60" height="30" as="geometry" />
        </mxCell>
        <mxCell id="II7UFy0TQZ8Xzfp5rinB-42" value="8" style="text;html=1;strokeColor=none;fillColor=none;align=center;verticalAlign=middle;whiteSpace=wrap;rounded=0;" vertex="1" parent="1">
          <mxGeometry x="642.5" y="302" width="60" height="30" as="geometry" />
        </mxCell>
        <mxCell id="II7UFy0TQZ8Xzfp5rinB-43" value="MAC/Linux/Windows" style="text;html=1;strokeColor=none;fillColor=none;align=center;verticalAlign=middle;whiteSpace=wrap;rounded=0;" vertex="1" parent="1">
          <mxGeometry x="442" y="399.5" width="153" height="31" as="geometry" />
        </mxCell>
        <mxCell id="II7UFy0TQZ8Xzfp5rinB-44" value="Докер &quot;под капотом&quot; работает одинаково на всех устройствах" style="text;html=1;strokeColor=none;fillColor=none;align=center;verticalAlign=middle;whiteSpace=wrap;rounded=0;" vertex="1" parent="1">
          <mxGeometry x="593" y="399.5" width="197" height="42" as="geometry" />
        </mxCell>
        <mxCell id="II7UFy0TQZ8Xzfp5rinB-45" value="связанные приложения" style="swimlane;fontStyle=0;childLayout=stackLayout;horizontal=1;startSize=30;horizontalStack=0;resizeParent=1;resizeParentMax=0;resizeLast=0;collapsible=1;marginBottom=0;whiteSpace=wrap;html=1;" vertex="1" parent="1">
          <mxGeometry x="323" y="53" width="140" height="150" as="geometry" />
        </mxCell>
        <mxCell id="II7UFy0TQZ8Xzfp5rinB-46" value="db" style="text;strokeColor=none;fillColor=none;align=left;verticalAlign=middle;spacingLeft=4;spacingRight=4;overflow=hidden;points=[[0,0.5],[1,0.5]];portConstraint=eastwest;rotatable=0;whiteSpace=wrap;html=1;" vertex="1" parent="II7UFy0TQZ8Xzfp5rinB-45">
          <mxGeometry y="30" width="140" height="30" as="geometry" />
        </mxCell>
        <mxCell id="II7UFy0TQZ8Xzfp5rinB-47" value="cache" style="text;strokeColor=none;fillColor=none;align=left;verticalAlign=middle;spacingLeft=4;spacingRight=4;overflow=hidden;points=[[0,0.5],[1,0.5]];portConstraint=eastwest;rotatable=0;whiteSpace=wrap;html=1;" vertex="1" parent="II7UFy0TQZ8Xzfp5rinB-45">
          <mxGeometry y="60" width="140" height="30" as="geometry" />
        </mxCell>
        <mxCell id="II7UFy0TQZ8Xzfp5rinB-48" value="celery" style="text;strokeColor=none;fillColor=none;align=left;verticalAlign=middle;spacingLeft=4;spacingRight=4;overflow=hidden;points=[[0,0.5],[1,0.5]];portConstraint=eastwest;rotatable=0;whiteSpace=wrap;html=1;" vertex="1" parent="II7UFy0TQZ8Xzfp5rinB-45">
          <mxGeometry y="90" width="140" height="30" as="geometry" />
        </mxCell>
        <mxCell id="II7UFy0TQZ8Xzfp5rinB-50" value="django" style="text;strokeColor=none;fillColor=none;align=left;verticalAlign=middle;spacingLeft=4;spacingRight=4;overflow=hidden;points=[[0,0.5],[1,0.5]];portConstraint=eastwest;rotatable=0;whiteSpace=wrap;html=1;" vertex="1" parent="II7UFy0TQZ8Xzfp5rinB-45">
          <mxGeometry y="120" width="140" height="30" as="geometry" />
        </mxCell>
        <mxCell id="II7UFy0TQZ8Xzfp5rinB-49" style="edgeStyle=orthogonalEdgeStyle;rounded=0;orthogonalLoop=1;jettySize=auto;html=1;entryX=0.045;entryY=0.378;entryDx=0;entryDy=0;entryPerimeter=0;" edge="1" parent="1" source="II7UFy0TQZ8Xzfp5rinB-45" target="II7UFy0TQZ8Xzfp5rinB-26">
          <mxGeometry relative="1" as="geometry" />
        </mxCell>
      </root>
    </mxGraphModel>
  </diagram>
</mxfile>
